SplineFontDB: 3.0
FontName: Crimson-Roman
FullName: Crimson Roman
FamilyName: Crimson
Weight: Roman
Copyright: Copyright (c) 2010, Sebastian Kosch (sebastian@aldusleaf.org),\nwith Reserved Font Name "Crimson".\nThis Font Software is licensed under the SIL Open Font License, Version 1.1.\nThis license is available with a FAQ at: http://scripts.sil.org/OFL
Version: 0.8
ItalicAngle: 0
UnderlinePosition: -112
UnderlineWidth: 47
Ascent: 819
Descent: 205
LayerCount: 2
Layer: 0 0 "Back"  1
Layer: 1 0 "Fore"  0
XUID: [1021 559 149143806 1270264]
FSType: 0
OS2Version: 0
OS2_WeightWidthSlopeOnly: 0
OS2_UseTypoMetrics: 1
CreationTime: 1270926789
PfmFamily: 17
TTFWeight: 400
TTFWidth: 5
LineGap: 92
VLineGap: 0
OS2TypoAscent: 717
OS2TypoAOffset: 0
OS2TypoDescent: -307
OS2TypoDOffset: 0
OS2TypoLinegap: 92
OS2WinAscent: 0
OS2WinAOffset: 1
OS2WinDescent: 0
OS2WinDOffset: 1
HheadAscent: 717
HheadAOffset: 0
HheadDescent: -307
HheadDOffset: 0
OS2SubXSize: 666
OS2SubYSize: 716
OS2SubXOff: 0
OS2SubYOff: 143
OS2SupXSize: 666
OS2SupYSize: 716
OS2SupXOff: 0
OS2SupYOff: 490
OS2StrikeYSize: 50
OS2StrikeYPos: 264
OS2FamilyClass: 258
OS2Vendor: 'PfEd'
Lookup: 1 0 0 "'ccmp' Turkish i"  {"'ccmp' Turkish i-1"  } ['ccmp' ('latn' <'TRK ' > ) ]
Lookup: 1 0 0 "'c2sc' Capitals to Small Capitals in Latin lookup 0"  {"'c2sc' Capitals to Small Capitals in Latin lookup 0 subtable"  } ['c2sc' ('DFLT' <'dflt' > 'latn' <'TRK ' 'dflt' > ) ]
Lookup: 1 0 0 "'smcp' Lowercase to Small Capitals lookup 2"  {"'smcp' Lowercase to Small Capitals lookup 2-1" ("sc" ) } ['smcp' ('DFLT' <'dflt' > 'grek' <'dflt' > 'latn' <'TRK ' 'dflt' > ) ]
Lookup: 4 0 1 "'liga' Standard Ligatures lookup 0"  {"'liga' Standard Ligatures lookup 0-1"  } ['liga' ('DFLT' <'dflt' > 'cyrl' <'dflt' > 'grek' <'dflt' > 'latn' <'TRK ' 'dflt' > ) ]
Lookup: 1 0 0 "'pnum' Proportional Numbers lookup 12"  {"'pnum' Proportional Numbers lookup 12-1" ("prop" ) } ['pnum' ('DFLT' <'dflt' > 'grek' <'dflt' > 'latn' <'TRK ' 'dflt' > ) ]

StartChar: exclam
Encoding: 33 33 1
Width: 241
Flags: W
HStem: -11 110<77.2305 163.537> 622 20G<109 140.5>
VStem: 65 110<1.23046 87.5371> 75 94<327.09 632.2>
LayerCount: 2
Fore
SplineSet
65 45 m 0xe0
 65 75 91 99 121 99 c 0
 151 99 175 75 175 45 c 0
 175 15 151 -11 121 -11 c 0
 91 -11 65 15 65 45 c 0xe0
125 642 m 0
 156 642 169 610 169 584 c 0
 169 556 155 422 134 172 c 1
 130 164 127 160 118 159 c 1
 113 161 108 164 105 170 c 1
 91 331 75 533 75 584 c 0xd0
 75 612 93 642 125 642 c 0
EndSplineSet
Substitution2: "'smcp' Lowercase to Small Capitals lookup 2-1" exclam.sc
EndChar

StartChar: quotedbl
Encoding: 34 34 2
Width: 280
Flags: W
HStem: 473 226<74.0952 102.855 194.095 222.855>
VStem: 39 78<523.482 685.326> 159 78<523.482 685.326>
LayerCount: 2
Fore
SplineSet
211 699 m 0
 223 699 229 696 237 686 c 1
 237 657 229 544 223 492 c 1
 220 486 211 477 203 473 c 1
 200 473 196 475 194 479 c 1
 173 551 159 601 159 629 c 0
 159 657 179 699 211 699 c 0
91 699 m 0
 103 699 109 696 117 686 c 1
 117 657 109 544 103 492 c 1
 100 486 91 477 83 473 c 1
 80 473 76 475 74 479 c 1
 53 551 39 601 39 629 c 0
 39 657 59 699 91 699 c 0
EndSplineSet
EndChar

StartChar: numbersign
Encoding: 35 35 3
Width: 480
UnlinkRmOvrlpSave: 1
Flags: W
HStem: 178 49<59.3456 392.303> 369 49<86.4526 420.211>
LayerCount: 2
Fore
SplineSet
413.63 369 m 1
 254.63 369 254.63 369 84.6299 369 c 1
 72.6299 369 80.6299 414 93.6299 418 c 9
 419.63 418 l 17
 433.63 418 426.63 375 413.63 369 c 1
385.63 178 m 1
 226.63 178 226.63 178 56.6299 178 c 1
 44.6299 178 53.6299 223 66.6299 227 c 9
 392.63 227 l 17
 406.63 227 398.63 184 385.63 178 c 1
373.63 528 m 1
 301.63 77 l 2
 300.63 73 292.63 64 277.63 64 c 0
 267.63 64 266.63 68 266.63 68 c 1
 338.63 518 l 1
 341.63 527 341.63 531 360.63 531 c 0
 369.63 531 370.63 530 373.63 528 c 1
212.63 528 m 1
 139.63 77 l 2
 138.63 73 131.63 64 116.63 64 c 0
 106.63 64 105.63 68 105.63 68 c 1
 177.63 518 l 1
 180.63 527 180.63 531 199.63 531 c 0
 208.63 531 209.63 530 212.63 528 c 1
EndSplineSet
EndChar

StartChar: dollar
Encoding: 36 36 4
Width: 498
Flags: W
HStem: -10 34<219.887 310.061> 606 33<190.359 278.405>
VStem: 51 36<116.663 172.135> 69 77<436.525 551.168> 284.553 35.308<637.943 681.31> 364 84<85.4024 206.897> 382 32<472.037 523.086>
LayerCount: 2
Fore
SplineSet
292 683 m 1xd8
 300 683 327 683 327 676 c 1
 319.860609513 632.687697709 l 1
 343.663779548 627.579956953 366.219327865 619.951260474 402 612 c 1
 414 561 413 502 414 476 c 1
 409 473 403 472 396 472 c 0
 392 472 385 474 382 477 c 1xda
 377.821238878 510.430088974 352.7850357 559.867052084 312.29655437 586.799096509 c 1
 274.138620504 355.307631059 l 1
 276.434951766 353.880533813 278.723352441 352.445490514 281 351 c 0
 344 311 448 261 448 166 c 0
 448 60 350 -10 247 -10 c 0
 235.920766655 -10 224.95774577 -9.47704392724 214.160458306 -8.55988627859 c 1
 207 -52 l 1
 198 -52 172 -50 172 -43 c 1
 178.421261882 -4.15136561481 l 1
 139.648752736 1.98955184263 103.976813858 11.6219544982 74 18 c 1
 62 75 51 154 51 165 c 1
 55 169 69 173 76 173 c 0
 81 173 85 172 87 168 c 1xec
 91.8232072377 144.687831685 111.50909629 65.8021574541 185.01733808 35.7548953829 c 1
 226.016226055 283.79816763 l 1
 153.905774442 325.717955256 69 377.317258005 69 470 c 0
 69 572 161 639 257 639 c 0
 267.14294341 639 276.199938643 638.628491413 284.552635769 637.943446402 c 1
 292 683 l 1xd8
259.26633444 265.082428938 m 1
 219.886603473 26.1787277374 l 1
 228.968353745 24.7624094063 238.659324169 24 249 24 c 0
 309 24 364 65 364 140 c 0xcc
 364 210.491622856 315.8621451 234.398224842 259.26633444 265.082428938 c 1
241.165297655 375.450050815 m 1
 278.661487228 602.301997731 l 1
 269.899920941 604.689095494 260.668444555 606 251 606 c 0
 167 606 146 546 146 500 c 0xd8
 146 439.049885881 191.112832113 406.295291833 241.165297655 375.450050815 c 1
EndSplineSet
EndChar

StartChar: percent
Encoding: 37 37 5
Width: 667
Flags: W
HStem: -7 25<451.434 521.549> 289 24<438.266 507.513> 325 25<163.003 231.1> 621 24<149.377 218.599>
VStem: 40 64<408.045 571.079> 271 66<399.6 570.458> 328 64<76.045 237.871> 559 66<66.3943 238.458>
LayerCount: 2
Fore
SplineSet
186 621 m 0xfd
 127 621 104 555 104 496 c 0
 104 427 146 350 196 350 c 0
 254 350 271 418 271 476 c 0
 271 543 239 621 186 621 c 0xfd
190 645 m 0
 277 645 337 571 337 484 c 0
 337 404 281 325 190 325 c 0
 107 325 40 396 40 484 c 0
 40 573 101 645 190 645 c 0
475 289 m 0
 416 289 392 223 392 164 c 0xfb
 392 95 435 18 485 18 c 0
 543 18 559 86 559 144 c 0
 559 211 528 289 475 289 c 0
479 313 m 0
 566 313 625 239 625 152 c 0
 625 72 570 -7 478 -7 c 0
 395 -7 328 64 328 152 c 0
 328 241 390 313 479 313 c 0
598 624 m 1
 115 0 l 2
 111 -5 94 -12 82 -12 c 0
 68 -12 65 -3 64 -1 c 1
 546 624 l 2
 551 630 560 636 566 636 c 0
 595 636 589 633 598 624 c 1
EndSplineSet
EndChar

StartChar: ampersand
Encoding: 38 38 6
Width: 683
Flags: W
HStem: -3 43<199.243 342.066 514.5 607.13> 289 23<463.686 506.937 597.031 655.236> 620 36<262.399 355.509>
VStem: 53 86<94.0843 236.46> 161 73<445.099 592.5> 385 68<465.283 594.712>
LayerCount: 2
Fore
SplineSet
406 95 m 1
 341 161 242 314 242 314 c 1
 188 277 139 244 139 172 c 0
 139 78 208 40 281 40 c 0
 321 40 374 61 406 95 c 1
313 620 m 0
 270 620 234 589 234 543 c 0
 234 494 254 443 286 385 c 1
 348 421 385 453 385 530 c 0
 385 575 358 620 313 620 c 0
308 656 m 0
 396 656 453 616 453 544 c 0
 453 454 380 400 304 353 c 1
 346 282 402 210 452 154 c 1
 489 210 509 261 509 271 c 0
 509 291 471 287 464 289 c 1
 461 295 461 308 465 312 c 1
 544 312 l 2
 579 312 608 315 654 317 c 1
 657 315 656 289 653 289 c 1
 636 289 595 279 584 272 c 0
 579 269 541 194 480 123 c 1
 525 76 554 45 578 45 c 0
 599 45 625 78 630 91 c 1
 641 91 653 80 653 73 c 1
 649 64 621 0 544 0 c 0
 485 0 429 72 429 72 c 1
 381 30 313 -3 247 -3 c 0
 130 -3 53 57 53 158 c 0
 53 254 135 307 219 350 c 1
 191 398 161 450 161 519 c 0
 161 595 224 656 308 656 c 0
EndSplineSet
Substitution2: "'smcp' Lowercase to Small Capitals lookup 2-1" ampersand.sc
EndChar

StartChar: quotesingle
Encoding: 39 39 7
Width: 160
Flags: W
HStem: 473 226<74.0952 102.855>
VStem: 39 78<523.482 685.326>
LayerCount: 2
Fore
SplineSet
91 699 m 0
 103 699 109 696 117 686 c 1
 117 657 109 544 103 492 c 1
 100 486 91 477 83 473 c 1
 80 473 76 475 74 479 c 1
 53 551 39 601 39 629 c 0
 39 657 59 699 91 699 c 0
EndSplineSet
Substitution2: "'smcp' Lowercase to Small Capitals lookup 2-1" quotesingle.sc
EndChar

StartChar: parenleft
Encoding: 40 40 8
Width: 262
Flags: W
VStem: 37 73<122.806 447.394>
LayerCount: 2
Fore
SplineSet
110 285 m 0
 110 128 162 -47 256 -130 c 1
 257 -130 244 -146 237 -150 c 1
 120 -58 37 91 37 285 c 0
 37 480 120 627 237 719 c 1
 244 715 257 699 256 699 c 1
 162 616 110 443 110 285 c 0
EndSplineSet
Substitution2: "'smcp' Lowercase to Small Capitals lookup 2-1" parenleft.sc
EndChar

StartChar: parenright
Encoding: 41 41 9
Width: 262
Flags: W
VStem: 152.055 73<122.806 447.394>
LayerCount: 2
Fore
SplineSet
225.055 285 m 0
 225.055 91 142.055 -58 25.0547 -150 c 1
 18.0547 -146 5.05469 -130 6.05469 -130 c 1
 100.055 -47 152.055 128 152.055 285 c 0
 152.055 443 100.055 616 6.05469 699 c 1
 5.05469 699 18.0547 715 25.0547 719 c 1
 142.055 627 225.055 480 225.055 285 c 0
EndSplineSet
Substitution2: "'smcp' Lowercase to Small Capitals lookup 2-1" parenright.sc
EndChar

StartChar: asterisk
Encoding: 42 42 10
Width: 443
Flags: W
HStem: 390 61<309.708 393.559> 434 65<38.0898 148.571>
VStem: 129.583 57<572.979 660.875> 208.583 25<420.999 450.228>
LayerCount: 2
Fore
SplineSet
301.583 613 m 0x70
 318.583 632 342.583 640 357.583 625 c 0
 373.583 609 370.583 586 351.583 569 c 0
 316.583 537 282.583 532 254.583 505 c 1
 254.583 505 248.583 496 249.583 491 c 0
 250.583 486 254.583 483 259.583 481 c 0
 294.583 465 322.583 471 366.583 451 c 0
 389.583 441 404.583 421 395.583 402 c 0
 385.583 382 362.583 378 340.583 390 c 0xb0
 298.583 413 283.583 444 249.583 462 c 1
 249.583 462 240.583 467 235.583 465 c 0
 229.583 462 230.583 457 229.583 452 c 0
 225.583 414 238.583 389 233.583 341 c 0
 230.583 316 216.583 296 195.583 299 c 0
 173.583 302 162.583 322 167.583 347 c 0
 176.583 394 201.583 419 208.583 457 c 1
 208.583 457 209.583 466 205.583 470 c 0
 202.583 474 197.583 474 192.583 473 c 0
 155.583 465 135.583 444 87.583 434 c 0
 63.583 429 38.583 436 35.583 457 c 0
 31.583 479 48.583 496 73.583 499 c 0
 121.583 505 150.583 489 189.583 494 c 1
 189.583 494 198.583 497 200.583 502 c 0
 202.583 507 201.583 511 198.583 516 c 0
 179.583 549 153.583 562 129.583 604 c 0
 117.583 626 117.583 650 135.583 660 c 0
 155.583 670 175.583 660 186.583 637 c 0
 206.583 593 200.583 560 217.583 525 c 1
 217.583 525 222.583 515 227.583 514 c 0
 232.583 513 236.583 516 240.583 520 c 0
 266.583 548 269.583 577 301.583 613 c 0x70
EndSplineSet
EndChar

StartChar: plus
Encoding: 43 43 11
Width: 542
Flags: W
HStem: 218 56<35.4861 242 298 507.076>
VStem: 242 56<7.125 218 274 480.966>
LayerCount: 2
Fore
SplineSet
242 474 m 1
 258 480 278 485 285 485 c 0
 295 485 298 479 298 479 c 1
 298 274 l 25
 378 274 422 274 502 274 c 16
 506 274 511 270 511 262 c 0
 511 245.721 503 226 495 218 c 1
 298 218 l 25
 298 218 298 93 298 16 c 1
 286 7 265 5 255 5 c 0
 248 5 242 10 242 14 c 2
 242 218 l 25
 37 218 l 1
 37 218 31 218 31 228 c 0
 31 232 36 266 46 274 c 1
 242 274 l 9
 242 274 242 455 242 474 c 1
EndSplineSet
EndChar

StartChar: comma
Encoding: 44 44 12
Width: 201
Flags: W
HStem: -139 262
VStem: 80 70<-26.8236 65>
LayerCount: 2
Fore
SplineSet
106 123 m 0
 114 123 125 120 132 116 c 1
 139 104 150 84 150 46 c 0
 150 -11 83 -111 32 -139 c 1
 25 -139 17 -124 17 -118 c 1
 37 -103 80 -71 80 -7 c 0
 80 26 47 35 47 74 c 0
 47 95 70 123 106 123 c 0
EndSplineSet
Substitution2: "'smcp' Lowercase to Small Capitals lookup 2-1" comma.sc
Substitution2: "'c2sc' Capitals to Small Capitals in Latin lookup 0 subtable" comma.sc
EndChar

StartChar: hyphen
Encoding: 45 45 13
Width: 377
Flags: W
HStem: 210 63<80.002 314.131>
VStem: 58 261
LayerCount: 2
Fore
SplineSet
71 261 m 1
 71 261 279 272 312 273 c 0
 316 273 319 272 319 264 c 0
 319 247 314 227 306 210 c 1
 259 207 156 203 65 199 c 0
 60 199 58 201 58 210 c 0
 58 229 64 246 71 261 c 1
EndSplineSet
EndChar

StartChar: slash
Encoding: 47 47 14
Width: 413
Flags: W
LayerCount: 2
Fore
SplineSet
369 761 m 0
 377 761 381 755 382 752 c 1
 87 -12 l 2
 84 -19 71 -35 48 -35 c 0
 33 -35 30 -28 30 -28 c 1
 329 746 l 1
 330 749 345 761 369 761 c 0
EndSplineSet
Substitution2: "'smcp' Lowercase to Small Capitals lookup 2-1" slash.sc
EndChar

StartChar: zero
Encoding: 48 48 15
Width: 545
Flags: W
HStem: -3 37<223.248 317.625> 604 37<228.254 322.204>
VStem: 54 88<173.11 465.617> 402 88<171.948 470.875>
LayerCount: 2
Fore
SplineSet
278 604 m 0
 194 604 142 477 142 320 c 0
 142 163 194 34 268 34 c 0
 357 34 402 168 402 325 c 0
 402 482 352 604 278 604 c 0
272 641 m 0
 412 641 490 493 490 319 c 0
 490 145 410 -3 272 -3 c 0
 136 -3 54 145 54 319 c 0
 54 493 134 641 272 641 c 0
EndSplineSet
Substitution2: "'pnum' Proportional Numbers lookup 12-1" zero.prop
Substitution2: "'zero' Slashed Zero lookup 11-1" zero.slash
Substitution2: "'onum' Oldstyle Figures lookup 3-1" zero.onum
Substitution2: "'ordn' Ordinals lookup 0-1" zero.ordn
EndChar

StartChar: one
Encoding: 49 49 16
Width: 545
Flags: W
HStem: -3 29<174.404 240.283 331.717 397.596> 622 20G<320.5 327>
VStem: 247 79<32.7426 557.993>
LayerCount: 2
Fore
SplineSet
247 116 m 2
 247 520 l 2
 247 549 240 558 226 558 c 0
 211 558 172 544 156 538 c 1
 151 542 146 548 146 555 c 0
 146 557 145 560 148 561 c 0
 230 598 319 642 322 642 c 2
 324 642 l 2
 330 642 333 631 334 626 c 1
 334 626 326 590 326 529 c 2
 326 116 l 2
 326 86 326 58 331 42 c 0
 334 31 383 26 395 26 c 1
 399 21 400 2 395 -3 c 1
 354 -1 323 2 284 2 c 0
 245 2 218 -1 177 -3 c 1
 172 2 173 21 177 26 c 1
 189 26 238 31 241 42 c 0
 246 58 247 86 247 116 c 2
EndSplineSet
Substitution2: "'pnum' Proportional Numbers lookup 12-1" one.prop
Substitution2: "'onum' Oldstyle Figures lookup 3-1" one.onum
Substitution2: "'ordn' Ordinals lookup 0-1" one.ordn
EndChar

StartChar: two
Encoding: 50 50 17
Width: 545
Flags: W
HStem: 0 73<164 413.605> 577 65<186.263 309.239>
VStem: 82 19<497.173 503.317> 354 85<378.152 530.573>
LayerCount: 2
Fore
SplineSet
478 150 m 1
 458 101 430 18 424 0 c 9
 424 0 85 0 78 0 c 1
 74 2 68 10 68 14 c 1
 152 107 248 221 306 306 c 0
 347 366 354 407 354 456 c 0
 354 525 308 577 244 577 c 0
 164 577 113 511 101 491 c 1
 93 491 82 503 82 507 c 1
 89 532 161 642 266 642 c 0
 362 642 439 560 439 475 c 0
 439 418 417 367 382 324 c 0
 311 237 209 123 164 73 c 9
 362 73 l 2
 402 73 425 98 446 150 c 0
 448 155 452 156 458 156 c 0
 462 156 474 153 478 150 c 1
EndSplineSet
Substitution2: "'pnum' Proportional Numbers lookup 12-1" two.prop
Substitution2: "'onum' Oldstyle Figures lookup 3-1" two.onum
Substitution2: "'ordn' Ordinals lookup 0-1" two.ordn
EndChar

StartChar: three
Encoding: 51 51 18
Width: 545
Flags: W
HStem: -5 40<187.683 309.393> 318 30<180.3 229.651> 589 53<197.429 305.118>
VStem: 338 75<445.646 556.049> 374 86<125.145 267.973>
LayerCount: 2
Fore
SplineSet
282 642 m 0xf0
 333 642 413 596 413 514 c 0xf0
 413 449 355 400 320 379 c 1
 377 371 460 316 460 218 c 0
 460 81 331 -5 206 -5 c 0
 179 -5 136 2 104 18 c 1
 98 22 84 40 84 56 c 0
 84 85 104 104 126 104 c 0
 154 104 166 76 182 60 c 0
 201 41 229 35 256 35 c 0
 309 35 374 75 374 190 c 0xe8
 374 271 312 331 246 331 c 0
 225 331 198 321 186 318 c 1
 182 323 180 330 180 338 c 0
 180 342 180 345 182 348 c 1
 262 366 338 410 338 496 c 0
 338 549 297 589 240 589 c 0
 177 589 137 530 128 523 c 1
 122 523 116 536 116 545 c 1
 147 591 204 642 282 642 c 0xf0
EndSplineSet
Substitution2: "'pnum' Proportional Numbers lookup 12-1" three.prop
Substitution2: "'onum' Oldstyle Figures lookup 3-1" three.onum
Substitution2: "'ordn' Ordinals lookup 0-1" three.ordn
EndChar

StartChar: four
Encoding: 52 52 19
Width: 545
Flags: W
HStem: -6 21G<366 397.5> 174 57<118 342 421 491.961> 624 20G<402 411>
VStem: 342 79<-5.38048 174 231 524>
LayerCount: 2
Fore
SplineSet
406 644 m 0
 416 644 421 634 421 626 c 2
 421 231 l 25
 480 231 l 18
 486 231 494 211 494 190 c 0
 494 181 492 177 490 174 c 1
 421 174 l 25
 421 -1 l 1
 421 -1 417 -6 378 -6 c 0
 354 -6 342 -5 342 2 c 2
 342 174 l 25
 60 174 l 1
 53 178 50 187 50 193 c 1
 376 619 l 2
 382 627 398 644 406 644 c 0
342 524 m 25
 118 231 l 25
 342 231 l 25
 342 524 l 25
EndSplineSet
Substitution2: "'pnum' Proportional Numbers lookup 12-1" four.prop
Substitution2: "'onum' Oldstyle Figures lookup 3-1" four.onum
Substitution2: "'ordn' Ordinals lookup 0-1" four.ordn
EndChar

StartChar: five
Encoding: 53 53 20
Width: 545
Flags: W
HStem: -5 40<187.683 309.393> 339 56<167.196 300.639> 556 79<198.062 400.682> 624 20G<328 423>
VStem: 374 86<126.942 266.661>
LayerCount: 2
Fore
SplineSet
272 395 m 0xe8
 390 395 460 303 460 218 c 0
 460 81 331 -5 206 -5 c 0
 179 -5 136 2 104 18 c 1
 98 22 84 40 84 56 c 0
 84 85 104 104 126 104 c 0
 154 104 166 76 182 60 c 0
 201 41 229 35 256 35 c 0
 309 35 374 74 374 190 c 0
 374 252 330 339 214 339 c 3
 193 339 146 332 130 324 c 1
 126 324 122 331 122 338 c 1
 144 450 169 574 180 635 c 1
 328 635 l 2xe8
 369 635 420 644 420 644 c 17xd8
 426 640 432 638 432 633 c 0
 432 627 420 583 402 562 c 1
 374 559 338 556 286 556 c 2
 286 556 215 556 202 556 c 1
 190 496 178 432 166 376 c 1
 194 387 245 395 272 395 c 0xe8
EndSplineSet
Substitution2: "'pnum' Proportional Numbers lookup 12-1" five.prop
Substitution2: "'onum' Oldstyle Figures lookup 3-1" five.onum
Substitution2: "'ordn' Ordinals lookup 0-1" five.ordn
EndChar

StartChar: six
Encoding: 54 54 21
Width: 545
Flags: W
HStem: -6 33<230.737 325.455> 346 49<206.323 332.157> 618 29<410.176 444.518>
VStem: 73 86<119.341 313.338> 387 85<110.219 284.317>
LayerCount: 2
Fore
SplineSet
163 306 m 1
 160 285 159 262 159 238 c 0
 159 148 197 27 277 27 c 0
 340 27 387 94 387 184 c 0
 387 269 351 346 261 346 c 0
 232 346 196 342 163 306 c 1
289 395 m 0
 429 395 472 275 472 203 c 0
 472 91 383 -6 269 -6 c 0
 148 -6 73 112 73 220 c 0
 73 322 106 416 169 485 c 0
 240 563 353 625 437 647 c 1
 446 647 449 624 449 618 c 1
 365 591 216 527 171 350 c 1
 206 379 255 395 289 395 c 0
EndSplineSet
Substitution2: "'pnum' Proportional Numbers lookup 12-1" six.prop
Substitution2: "'onum' Oldstyle Figures lookup 3-1" six.onum
Substitution2: "'ordn' Ordinals lookup 0-1" six.ordn
EndChar

StartChar: seven
Encoding: 55 55 22
Width: 545
Flags: W
HStem: -5 21G<172.5 182.5> 560 73<117.576 420>
LayerCount: 2
Fore
SplineSet
408 633 m 2
 434 633 470 636 476 636 c 0
 482 636 482 632 482 627 c 0
 482 614 467 588 454 560 c 2
 190 -2 l 1
 188 -4 185 -5 180 -5 c 0
 165 -5 136 4 136 13 c 1
 239 169 420 560 420 560 c 9
 166 560 l 2
 126 560 109 536 94 483 c 0
 93 478 88 477 82 477 c 0
 78 477 66 480 62 483 c 1
 79 537 97 601 104 633 c 9
 408 633 l 2
EndSplineSet
Substitution2: "'pnum' Proportional Numbers lookup 12-1" seven.prop
Substitution2: "'onum' Oldstyle Figures lookup 3-1" seven.onum
Substitution2: "'ordn' Ordinals lookup 0-1" seven.ordn
EndChar

StartChar: eight
Encoding: 56 56 23
Width: 545
Flags: W
HStem: -9 36<216.472 334.325> 608 35<226.682 321.828>
VStem: 84 79<77.0132 225.193> 112 74<430.437 556.213> 370 72<424.076 561.8> 380 81<86.3009 203.234>
LayerCount: 2
Fore
SplineSet
272 27 m 0xe4
 338 27 380 70 380 138 c 0
 380 221 266 287 252 295 c 0
 250 296 249 297 246 297 c 0
 245 297 243 297 242 296 c 0
 187 261 163 221 163 157 c 0
 163 75 219 27 272 27 c 0xe4
272 608 m 0
 224 608 186 558 186 498 c 0
 186 421 252 386 290 364 c 0
 292 363 294 362 296 362 c 0
 298 362 299 362 302 364 c 0
 343 391 370 431 370 486 c 0xd8
 370 544 332 608 272 608 c 0
278 643 m 0
 367 643 442 589 442 496 c 0xd8
 442 418 376 373 330 344 c 1
 326 343 327 340 330 338 c 0
 390 304 461 239 461 167 c 0
 461 67 370 -9 270 -9 c 0
 160 -9 84 57 84 154 c 0xe4
 84 242 175 293 214 318 c 0
 217 320 216 323 214 324 c 0
 172 349 112 406 112 480 c 0
 112 565 190 643 278 643 c 0
EndSplineSet
Substitution2: "'pnum' Proportional Numbers lookup 12-1" eight.prop
Substitution2: "'onum' Oldstyle Figures lookup 3-1" eight.onum
Substitution2: "'ordn' Ordinals lookup 0-1" eight.ordn
EndChar

StartChar: nine
Encoding: 57 57 24
Width: 545
Flags: W
HStem: -6 29<100.482 134.824> 246 49<212.985 338.677> 614 33<219.68 314.263>
VStem: 74 85<356.683 532.466> 386 86<327.662 521.659>
LayerCount: 2
Fore
SplineSet
382 335 m 1
 385 356 386 379 386 403 c 0
 386 493 348 614 268 614 c 0
 205 614 159 547 159 457 c 0
 159 372 194 295 284 295 c 0
 313 295 349 299 382 335 c 1
96 23 m 1
 180 50 329 114 374 291 c 1
 339 262 290 246 256 246 c 0
 116 246 74 366 74 438 c 0
 74 550 162 647 276 647 c 0
 397 647 472 529 472 421 c 0
 472 319 439 225 376 156 c 0
 305 78 192 16 108 -6 c 1
 99 -6 96 17 96 23 c 1
EndSplineSet
Substitution2: "'pnum' Proportional Numbers lookup 12-1" nine.prop
Substitution2: "'onum' Oldstyle Figures lookup 3-1" nine.onum
EndChar

StartChar: colon
Encoding: 58 58 25
Width: 226
Flags: W
HStem: -11 110<70.2305 156.537> 321 110<70.2305 156.537>
VStem: 58 110<1.23046 87.5371 333.23 419.537>
LayerCount: 2
Fore
SplineSet
58 45 m 0
 58 75 84 99 114 99 c 0
 144 99 168 75 168 45 c 0
 168 15 144 -11 114 -11 c 0
 84 -11 58 15 58 45 c 0
58 377 m 0
 58 407 84 431 114 431 c 0
 144 431 168 407 168 377 c 0
 168 347 144 321 114 321 c 0
 84 321 58 347 58 377 c 0
EndSplineSet
Substitution2: "'smcp' Lowercase to Small Capitals lookup 2-1" colon.sc
EndChar

StartChar: semicolon
Encoding: 59 59 26
Width: 232
Flags: W
HStem: 321 110<73.2305 159.537>
VStem: 68 103<25.9041 111.105 332.398 420.324> 101 70<-26.8236 65>
LayerCount: 2
Fore
SplineSet
127 123 m 0xc0
 135 123 146 120 153 116 c 1
 160 104 171 84 171 46 c 0xc0
 171 -11 104 -111 53 -139 c 1
 46 -139 38 -124 38 -118 c 1
 58 -103 101 -71 101 -7 c 0xa0
 101 26 68 35 68 74 c 0
 68 95 91 123 127 123 c 0xc0
61 377 m 0
 61 407 87 431 117 431 c 0
 147 431 171 407 171 377 c 0
 171 347 147 321 117 321 c 0
 87 321 61 347 61 377 c 0
EndSplineSet
Substitution2: "'smcp' Lowercase to Small Capitals lookup 2-1" semicolon.sc
EndChar

StartChar: less
Encoding: 60 60 27
Width: 492
Flags: W
HStem: 410 20G<421.5 423.5>
LayerCount: 2
Fore
SplineSet
444 35 m 0
 444 28 434 -15 428 -15 c 0
 427 -15 425 -14 423 -13 c 2
 48 177 l 2
 33 185 30 200 30 217 c 0
 30 228 38 236 48 241 c 2
 417 428 l 2
 419 429 421 430 422 430 c 0
 425 430 432 420 439 383 c 0
 440 377 436 374 436 374 c 1
 110 209 l 1
 441 41 l 1
 441 41 444 40 444 35 c 0
EndSplineSet
Substitution2: "'smcp' Lowercase to Small Capitals lookup 2-1" less.sc
EndChar

StartChar: equal
Encoding: 61 61 28
Width: 565
Flags: W
HStem: 120 55<80.8432 485.545> 264 55<80.8432 485.545>
LayerCount: 2
Fore
SplineSet
478.547 120 m 1
 317.547 120 244.547 120 72.5469 120 c 1
 60.5459 120 74.5469 170 88.5469 175 c 9
 491.547 175 l 17
 505.547 175 492.547 127 478.547 120 c 1
478.547 264 m 1
 317.547 264 244.547 264 72.5469 264 c 1
 60.5459 264 74.5469 314 88.5469 319 c 9
 491.547 319 l 17
 505.547 319 492.547 271 478.547 264 c 1
EndSplineSet
Substitution2: "'smcp' Lowercase to Small Capitals lookup 2-1" equal.sc
EndChar

StartChar: greater
Encoding: 62 62 29
Width: 493
Flags: W
HStem: 410 20G<68 70.5>
LayerCount: 2
Fore
SplineSet
48 35 m 0
 48 39 51 41 51 41 c 1
 382 209 l 1
 57 374 l 1
 57 374 54 375 54 382 c 0
 54 400 66 430 70 430 c 0
 71 430 73 429 75 428 c 2
 445 241 l 2
 455 236 462 228 462 217 c 0
 462 200 460 185 445 177 c 2
 70 -13 l 2
 68 -14 66 -15 65 -15 c 0
 59 -15 48 27 48 35 c 0
EndSplineSet
Substitution2: "'smcp' Lowercase to Small Capitals lookup 2-1" greater.sc
EndChar

StartChar: question
Encoding: 63 63 30
Width: 356
Flags: W
HStem: -11 110<75.2305 161.537> 548 94<64.7663 183.549> 569 73<83.3395 192.566>
VStem: 63 110<1.23046 87.5371> 96 29<159.288 241.239> 260 50<432.623 535.531>
LayerCount: 2
Fore
SplineSet
63 45 m 0x94
 63 75 89 99 119 99 c 0
 149 99 173 75 173 45 c 0
 173 15 149 -11 119 -11 c 0
 89 -11 63 15 63 45 c 0x94
100 548 m 0xd4
 86 548 56 565 56 598 c 0
 56 613 60 628 65 635 c 1
 75 640 92 642 113 642 c 0
 179 642 310 574 310 457 c 0
 310 389 284 347 209 304 c 0
 182 288 137 253 131 242 c 0
 122 226 125 195 125 172 c 1
 121 164 118 160 109 159 c 1
 104 161 99 164 96 170 c 1xcc
 91 191 88 234 88 261 c 0
 88 335 136 361 173 385 c 0
 222 416 260 439 260 487 c 0
 260 539 224 569 186 569 c 0xb4
 133 569 126 548 100 548 c 0xd4
EndSplineSet
Substitution2: "'smcp' Lowercase to Small Capitals lookup 2-1" question.sc
EndChar

StartChar: at
Encoding: 64 64 31
Width: 748
Flags: W
HStem: -124 18<261.319 285.566> -7 43<494.48 583.769> -5 58<283.059 341.022> 389 46<390.034 497.5> 538 40<314.127 518.377>
VStem: 49 40<62.2822 287.163> 194 74<65.092 232.038> 423 66<41.9004 125> 672 40<157.015 377.609>
LayerCount: 2
Fore
SplineSet
418 578 m 0xdf80
 614 578 712 426 712 270 c 0
 712 117 623 -7 506 -7 c 0xdf80
 457 -7 423 18 423 79 c 0
 423 91 427 117 430 125 c 1
 411 88 347 -5 289 -5 c 3xbf80
 227 -5 194 60 194 130 c 3
 194 276 343 435 480 435 c 0
 515 435 534 429 553 422 c 9
 492 106 l 2
 491 102 489 86 489 81 c 0
 489 49 510 36 537 36 c 0
 600 36 672 142 672 267 c 0
 672 402 592 538 418 538 c 0
 214 538 89 344 89 170 c 0
 89 53 150 -36 222 -78 c 0
 258 -99 278 -103 297 -106 c 1
 297 -114 273 -124 261 -124 c 0
 249 -124 235 -123 222 -118 c 0
 130 -84 49 29 49 170 c 0
 49 366 186 578 418 578 c 0xdf80
438 389 m 3
 361 389 268 266 268 151 c 0
 268 89 284 53 319 53 c 3xbf80
 369 53 440 178 459 274 c 2
 479 376 l 17
 470 386 451 389 438 389 c 3
EndSplineSet
Substitution2: "'smcp' Lowercase to Small Capitals lookup 2-1" at.sc
EndChar

StartChar: A
Encoding: 65 65 32
Width: 627
Flags: W
HStem: -3 29<-13.6875 43.2822 129.835 192.446 403.025 461.809 582.411 631.812> 253 39<199.25 379.249> 643 20G<321.75 327.75>
LayerCount: 2
Fore
SplineSet
95.25 139 m 2
 95.25 139 227.25 478 288.25 634 c 1
 293 644 317.25 663 326.25 663 c 0
 329.25 663 329.25 661 332.25 660 c 1
 535.545 126 l 0
 549.91 88.5957 559.512 63.8613 561.25 60 c 0
 571.25 36 621.25 26 629.25 26 c 1
 634.25 19 632.25 0 631.25 -3 c 1
 591.25 -1 565.25 2 521.25 2 c 0
 475.25 2 451.25 -1 405.25 -3 c 1
 400.25 2 401.25 21 406.25 26 c 1
 418.25 26 453.25 31 462.25 39 c 0
 465.25 42 466.25 47 466.25 53 c 0
 466.25 83 398.25 248 398.25 248 c 1
 398.25 248 395.25 252 392.25 252 c 0
 366.25 254 318.25 253 293.25 253 c 0
 252.25 253 230.25 253 185.25 250 c 0
 183.25 250 180.25 247 180.25 247 c 1
 180.25 247 152 173 135.25 125 c 16
 123.25 90 121.25 67 121.25 54 c 0
 121.25 30 182.25 26 190.25 26 c 1
 193.25 23 194.25 3 192.25 -3 c 1
 152.25 -1 139.25 2 95.25 2 c 0
 49.25 2 34 -1 -12 -3 c 1
 -15 0 -15 19 -12 26 c 1
 0 26 38.25 32 48.25 45 c 0
 68.25 71 81.25 103 95.25 139 c 2
291 542 m 1
 199.25 298 l 1
 199.25 298 199.25 294 201.25 294 c 0
 227.25 293 269.25 292 292.25 292 c 0
 323.25 292 345.25 293 376.25 295 c 0
 378.25 295 379.25 300 379.25 300 c 1
 291 542 l 1
EndSplineSet
EndChar

StartChar: B
Encoding: 66 66 33
Width: 596
Flags: W
HStem: -3 32<43.4719 115.057 217.574 380.524> 332 38<206.386 361.417> 627 32<44.6716 115.854 211.595 338.313>
VStem: 119.386 87<47.3571 332 370 616.422> 415.386 91<435.521 566.855> 453.386 99<105.284 263.241>
LayerCount: 2
Fore
SplineSet
206.386 332 m 1xf4
 206.386 115 l 2
 206 101 208.386 54 215.386 47 c 0
 230.386 31 257.386 29 294.386 29 c 0
 369.386 29 453.386 54 453.386 176 c 0
 453.386 251 421.386 332 267.386 332 c 2
 206.386 332 l 1xf4
206.386 370 m 1
 290 370 l 2
 380 370 415.386 430 415.386 487 c 0xf8
 415.386 576 354.386 627 261.386 627 c 0
 249.386 627 215.386 626 211.386 617 c 0
 206.386 605 206 572 206.386 542 c 2
 206.386 370 l 1
305.386 659 m 0
 396.386 659 506.386 624 506.386 510 c 0xf8
 506.386 433 440.386 378 405.386 365 c 0
 403.386 364 402.386 362 405.386 360 c 1
 454.386 358 552.386 298 552.386 199 c 0xf4
 552.386 142 534 92 485 51 c 0
 436.677 10.5664 352.386 -2 275.386 -3 c 0
 242.386 -3 84.3857 -3 45.3857 -3 c 1
 40.3857 2 41.3857 21 45.3857 26 c 1
 57.3857 26 111.386 31 114.386 42 c 0
 119.386 58 119.386 86 119.386 116 c 2
 119.386 543 l 2
 119.386 573 119.386 601 114.386 617 c 0
 111.386 628 57.3857 633 45.3857 633 c 1
 41.3857 638 40.3857 657 45.3857 662 c 1
 86.3857 660 124.386 657 163.386 657 c 0
 202.386 657 246.386 659 305.386 659 c 0
EndSplineSet
EndChar

StartChar: C
Encoding: 67 67 34
Width: 674
Flags: W
HStem: -6 33<318.873 489.575> 634 33<314.22 486.001>
VStem: 48 99<212.479 447.288> 587 34<485.58 538.617> 600 32<140.38 186.711>
LayerCount: 2
Fore
SplineSet
386 667 m 0xe8
 452 667 524 662 598 646 c 1
 598 646 621 508 621 498 c 1
 622 492 609 485 599 485 c 0
 593 485 590 486 587 488 c 1xf0
 581 519 558 634 391 634 c 0
 243 634 147 483 147 343 c 0
 147 187 233 27 407 27 c 0
 468.386 27 510.236 49.46 539 75.0752 c 0
 578.18 109.966 593.08 158.131 600 191 c 1
 610 192 623 189 632 183 c 1
 632 163 611 51 597 39 c 1
 542 8 474 -6 382 -6 c 0
 184 -6 48 145 48 322 c 0
 48 509 189 667 386 667 c 0xe8
EndSplineSet
EndChar

StartChar: D
Encoding: 68 68 35
Width: 710
Flags: W
HStem: -3 32<43.4719 115.057 213.782 390.76> 626 32<45.3857 116.036 211.098 377.064>
VStem: 119.386 88<43.3146 622.145> 560.386 99<197.497 448.749>
LayerCount: 2
Fore
SplineSet
207.386 541 m 2
 207.386 115 l 0
 207.386 101 208.386 49 213.386 43 c 0
 221.386 32 258.386 29 295.386 29 c 0
 437.386 29 560.386 118 560.386 313 c 0
 560.386 539 425.386 626 281.386 626 c 0
 269.386 626 215.386 625 212.386 615 c 0
 207.386 599 207 570 207.386 541 c 2
308.386 658 m 0
 527.386 658 659.386 519 659.386 334 c 0
 659.386 164 577.386 -3 295.386 -3 c 0
 251.386 -3 84.3857 -3 45.3857 -3 c 1
 40.3857 2 41.3857 21 45.3857 26 c 1
 57.3857 26 111.386 31 114.386 42 c 0
 119.386 58 119.386 86 119.386 116 c 2
 119.386 543 l 2
 119.386 573 119.386 601 114.386 617 c 0
 111.386 628 57.3857 633 45.3857 633 c 1
 41.3857 638 40.3857 657 45.3857 662 c 1
 86.3857 660 124.386 657 163.386 657 c 0
 202.386 657 264.386 658 308.386 658 c 0
EndSplineSet
EndChar

StartChar: E
Encoding: 69 69 36
Width: 587
Flags: W
HStem: -3 29<42.7894 113.638> 0 34<212.998 435.992> 312 37<206.386 383.837> 408 20G<423.886 430.886> 624 33<210.098 434.16> 633 29<42.9344 113.638>
VStem: 119.386 87<44.2663 310.528 349.429 620.395> 412.386 32<230.002 289.298 372.014 427.976> 482.386 32<523.07 571.016>
LayerCount: 2
Fore
SplineSet
163.386 657 m 0x3b80
 257.386 657 376.386 664 485.386 664 c 1
 492.386 614 505.386 573 514.386 528 c 1
 511.386 525 503.386 523 496.386 523 c 0
 489.386 523 483.386 525 482.386 530 c 0
 460.386 610 419.386 624 366.386 624 c 2
 280.386 624 l 0
 268.386 624 214.386 623 211.386 613 c 0
 206.386 597 206 569 206.386 542 c 2
 206.386 355 l 2
 206 350 227.386 349 249.386 349 c 2
 302.386 349 l 2
 398.386 349 395.386 355 412.386 421 c 0
 413.386 426 420.386 428 427.386 428 c 0
 434.386 428 441.386 426 444.386 423 c 1
 444.386 234 l 1
 442.386 232 435.386 230 428.386 230 c 0
 421.386 230 414.386 233 412.386 238 c 0
 397.386 295 393.386 298 384.386 304 c 0
 373.386 311 316.386 312 278.386 312 c 0
 250.386 312 206 312 206.386 303 c 2
 206.386 113 l 2
 206 98 206.386 49 212.386 44 c 0
 225.386 34 241.386 34 283.386 34 c 2
 331.386 34 l 2
 378.386 34 429.386 44 457.386 61 c 0
 489.386 80 504.386 119 520.386 162 c 0
 521.386 166 527.386 168 534.386 168 c 0
 544.386 168 556.386 165 559.386 162 c 1
 540.386 108 512.386 40 505.386 -4 c 1
 396.386 -4 297.386 0 164.386 0 c 0x7b80
 117.386 0 84.3857 -3 45.3857 -3 c 1
 40.3857 2 41.3857 21 45.3857 26 c 1
 57.3857 26 111.386 31 114.386 42 c 0
 119.386 58 119.386 86 119.386 116 c 2
 119.386 543 l 2
 119.386 573 119.386 601 114.386 617 c 0
 111.386 628 57.3857 633 45.3857 633 c 1
 41.3857 638 40.3857 657 45.3857 662 c 1xb780
 86.3857 660 124.386 657 163.386 657 c 0x3b80
EndSplineSet
EndChar

StartChar: F
Encoding: 70 70 37
Width: 535
Flags: W
HStem: -3 29<42.7894 113.638 212.198 292.982> 312 37<206.413 383.837> 408 20G<423.886 430.886> 624 33<210.107 434.16> 633 29<42.9344 113.638>
VStem: 119.386 87<33.4148 310.528 349.429 620.395> 412.386 32<230.002 289.298 372.014 427.976> 482.386 32<523.07 571.016>
LayerCount: 2
Fore
SplineSet
163.386 657 m 0xf7
 257.386 657 376.386 664 485.386 664 c 1
 492.386 614 505.386 573 514.386 528 c 1
 511.386 525 503.386 523 496.386 523 c 0
 489.386 523 483.386 525 482.386 530 c 0
 460.386 610 419.386 624 366.386 624 c 2
 280.386 624 l 0xf7
 268.386 624 214.386 623 211.386 613 c 0
 206.386 597 206.386 569 206.386 542 c 2
 206.386 355 l 2
 206 350 227.386 349 249.386 349 c 2
 302.386 349 l 2
 398.386 349 395.386 355 412.386 421 c 0
 413.386 426 420.386 428 427.386 428 c 0
 434.386 428 441.386 426 444.386 423 c 1
 444.386 234 l 1
 442.386 232 435.386 230 428.386 230 c 0
 421.386 230 414.386 233 412.386 238 c 0
 397.386 295 393.386 298 384.386 304 c 0
 373.386 311 316.386 312 278.386 312 c 0
 250.386 312 206.386 312 206.386 303 c 2
 206.386 116 l 2
 206.386 86 206.386 58 211.386 42 c 0
 214.386 31 278.386 26 290.386 26 c 1
 294.386 21 295.386 2 290.386 -3 c 1
 249.386 -1 202.386 2 163.386 2 c 0
 116.386 2 84.3857 -3 45.3857 -3 c 1
 40.3857 2 41.3857 21 45.3857 26 c 1
 57.3857 26 111.386 31 114.386 42 c 0
 119.386 58 119.386 86 119.386 116 c 2
 119.386 543 l 2
 119.386 573 119.386 601 114.386 617 c 0
 111.386 628 57.3857 633 45.3857 633 c 1
 41.3857 638 40.3857 657 45.3857 662 c 1xef
 86.3857 660 124.386 657 163.386 657 c 0xf7
EndSplineSet
EndChar

StartChar: G
Encoding: 71 71 38
Width: 720
Flags: W
HStem: -6 33<318.687 492.59> 265 29<459.404 529.258 626.723 693.596> 634 33<314.22 486.001>
VStem: 48 99<212.479 447.288> 535 86<64.4681 258.257> 587 34<485.58 538.617>
LayerCount: 2
Fore
SplineSet
535 175 m 2xf8
 535 205 535 233 530 249 c 0
 527 260 474 265 462 265 c 1
 458 270 457 289 462 294 c 1
 503 292 540 289 579 289 c 0
 618 289 650 292 691 294 c 1
 696 289 695 270 691 265 c 1
 679 265 629 260 626 249 c 0
 621 233 621 205 621 175 c 2
 621 175 621 114 621 104 c 0xf8
 621 83 631 74 631 64 c 0
 631 58 628 55 611 46 c 0
 568 23 514 -6 382 -6 c 0
 184 -6 48 145 48 322 c 0
 48 509 189 667 386 667 c 0
 452 667 524 662 598 646 c 1
 598 646 621 508 621 498 c 1
 622 492 609 485 599 485 c 0
 593 485 590 486 587 488 c 1xf4
 581 519 558 634 391 634 c 0
 243 634 147 483 147 343 c 0
 147 187 232 27 407 27 c 0
 459 27 498 44 528 59 c 0
 534 62 535 67 535 74 c 0
 535 175 l 2xf8
EndSplineSet
EndChar

StartChar: H
Encoding: 72 72 39
Width: 726
Flags: W
HStem: -3 32<42.8894 114.385 211.387 282.882 443.89 515.385 612.387 683.882> 325 34<207.582 520.386> 630 32<42.8894 114.385 211.387 282.882 443.89 515.385 612.387 683.882>
VStem: 119.386 87<35.7426 318.953 362.001 623.257> 520.386 87<35.7426 320.999 362.001 623.257>
LayerCount: 2
Fore
SplineSet
163.386 657 m 0
 202.386 657 239.386 660 280.386 662 c 1
 285.386 657 284.386 635 280.386 630 c 1
 268.386 630 214.386 625 211.386 614 c 0
 206.386 598 206.386 570 206.386 540 c 2
 206.386 365 l 1
 206.386 363 208.386 362 208.386 362 c 1
 257.386 361 309.386 359 365.386 359 c 0
 412.386 359 473.386 361 518.386 362 c 1
 518.386 362 520.386 364 520.386 366 c 0
 520.386 540 l 2
 520.386 570 520.386 598 515.386 614 c 0
 512.386 625 458.386 630 446.386 630 c 1
 442.386 635 441.386 657 446.386 662 c 1
 487.386 660 525.386 657 564.386 657 c 0
 603.386 657 640.386 660 681.386 662 c 1
 686.386 657 685.386 635 681.386 630 c 1
 669.386 630 615.386 625 612.386 614 c 0
 607.386 598 607.386 570 607.386 540 c 2
 607.386 119 l 2
 607.386 89 607.386 61 612.386 45 c 0
 615.386 34 669.386 29 681.386 29 c 1
 685.386 24 686.386 2 681.386 -3 c 1
 640.386 -1 603.386 2 564.386 2 c 0
 525.386 2 487.386 -1 446.386 -3 c 1
 441.386 2 442.386 24 446.386 29 c 1
 458.386 29 512.386 34 515.386 45 c 0
 520.386 61 520.386 89 520.386 119 c 2
 520.386 317 l 1
 520.386 319 518.386 321 518.386 321 c 1
 471.386 322 416.386 325 365.386 325 c 0
 226.386 325 211.386 321 207.386 319 c 1
 206.386 318 206.386 317 206.386 317 c 1
 206.386 119 l 2
 206.386 89 206.386 61 211.386 45 c 0
 214.386 34 268.386 29 280.386 29 c 1
 284.386 24 285.386 2 280.386 -3 c 1
 239.386 -1 202.386 2 163.386 2 c 0
 124.386 2 86.3857 -1 45.3857 -3 c 1
 40.3857 2 41.3857 24 45.3857 29 c 1
 57.3857 29 111.386 34 114.386 45 c 0
 119.386 61 119.386 89 119.386 119 c 2
 119.386 540 l 2
 119.386 570 119.386 598 114.386 614 c 0
 111.386 625 57.3857 630 45.3857 630 c 1
 41.3857 635 40.3857 657 45.3857 662 c 1
 86.3857 660 124.386 657 163.386 657 c 0
EndSplineSet
EndChar

StartChar: I
Encoding: 73 73 40
Width: 324
Flags: W
HStem: -3 29<42.7894 113.638 212.134 282.982> 633 29<42.7894 113.638 212.134 282.982>
VStem: 119.386 87<32.7426 626.257>
LayerCount: 2
Fore
SplineSet
163.386 657 m 0
 202.386 657 239.386 660 280.386 662 c 1
 285.386 657 284.386 638 280.386 633 c 1
 268.386 633 214.386 628 211.386 617 c 0
 206.386 601 206.386 573 206.386 543 c 2
 206.386 116 l 2
 206.386 86 206.386 58 211.386 42 c 0
 214.386 31 268.386 26 280.386 26 c 1
 284.386 21 285.386 2 280.386 -3 c 1
 239.386 -1 202.386 2 163.386 2 c 0
 124.386 2 86.3857 -1 45.3857 -3 c 1
 40.3857 2 41.3857 21 45.3857 26 c 1
 57.3857 26 111.386 31 114.386 42 c 0
 119.386 58 119.386 86 119.386 116 c 2
 119.386 543 l 2
 119.386 573 119.386 601 114.386 617 c 0
 111.386 628 57.3857 633 45.3857 633 c 1
 41.3857 638 40.3857 657 45.3857 662 c 1
 86.3857 660 124.386 657 163.386 657 c 0
EndSplineSet
EndChar

StartChar: J
Encoding: 74 74 41
Width: 313
Flags: W
HStem: -227 47<-40.5 66.2636> 633 29<37.4037 108.252 206.748 277.596>
VStem: 114 87<-53.3294 626.257>
LayerCount: 2
Fore
SplineSet
158 657 m 0
 197 657 234 660 275 662 c 1
 280 657 279 638 275 633 c 1
 263 633 209 628 206 617 c 0
 201 601 201 573 201 543 c 2
 201 121 l 2
 201 -129 102 -227 -33 -227 c 0
 -48 -227 -84 -218 -96 -209 c 1
 -101 -204 -104 -193 -104 -186 c 0
 -104 -155 -88 -130 -56 -130 c 0
 -38 -130 -21.7637 -146.488 -8 -159 c 0
 3 -169 20 -180 37 -180 c 0
 79 -180 114 -126 114 116 c 2
 114 543 l 2
 114 573 114 601 109 617 c 0
 106 628 52 633 40 633 c 1
 36 638 35 657 40 662 c 1
 81 660 119 657 158 657 c 0
EndSplineSet
EndChar

StartChar: K
Encoding: 75 75 42
Width: 657
Flags: W
HStem: -3 32<42.8894 114.385 211.387 282.882 590.286 661.168> 630 32<42.8894 114.385 211.387 282.882 402.848 459.566 553.029 628.468>
VStem: 119.386 87<35.7426 306.999 341 623.257>
LayerCount: 2
Fore
SplineSet
163.386 657 m 0
 202.386 657 239.386 660 280.386 662 c 1
 285.386 657 284.386 635 280.386 630 c 1
 268.386 630 214.386 625 211.386 614 c 0
 206.386 598 206 570 206.386 540 c 2
 206.386 341 l 1
 227.386 354 278.386 402 319.386 442 c 0
 397.386 519 416 539 446.386 578 c 0
 452.532 585.888 460.386 599 460.386 609 c 0
 460.386 634 413.386 631 404.386 631 c 1
 401.386 637 401.386 653 404.386 662 c 1
 441.386 660 482.386 656 519.386 656 c 0
 563.386 656 587.386 660 627.386 662 c 1
 629.386 656 630.386 631 625.386 631 c 0
 616.386 630 560.386 631 526.386 594 c 0
 440.386 500 382 448 295 364 c 1
 293 361 293 359 295 356 c 1
 391 244 474.386 145 551.386 72 c 0
 576.386 49 605.386 30 660.386 26 c 1
 665.386 21 660.386 -1 659.386 -3 c 1
 592.386 -3 537.386 1 517.386 8 c 0
 503.386 13 477.386 23 449.386 51 c 0
 428.386 72 337.386 175 224.386 304 c 0
 222.386 307 219.386 307 215.386 307 c 0
 212.386 307 208.386 306 206.386 305 c 1
 206.386 119 l 2
 206.386 89 206.386 61 211.386 45 c 0
 214.386 34 268.386 29 280.386 29 c 1
 284.386 24 285.386 2 280.386 -3 c 1
 239.386 -1 202.386 2 163.386 2 c 0
 124.386 2 86.3857 -1 45.3857 -3 c 1
 40.3857 2 41.3857 24 45.3857 29 c 1
 57.3857 29 111.386 34 114.386 45 c 0
 119.386 61 119.386 89 119.386 119 c 2
 119.386 540 l 2
 119.386 570 119.386 598 114.386 614 c 0
 111.386 625 57.3857 630 45.3857 630 c 1
 41.3857 635 40.3857 657 45.3857 662 c 1
 86.3857 660 124.386 657 163.386 657 c 0
EndSplineSet
EndChar

StartChar: L
Encoding: 76 76 43
Width: 564
Flags: W
HStem: -3 29<42.7894 113.638> 0 34<212.998 437.778> 633 29<42.7894 113.638 212.134 282.982>
VStem: 119.386 87<44.2685 626.257>
LayerCount: 2
Fore
SplineSet
206.386 116 m 2xb0
 206.386 101 206.386 49 212.386 44 c 0
 225.386 34 241.386 34 283.386 34 c 2
 340.386 34 l 2
 378.386 34 429.386 42 457.386 61 c 0
 482.386 78 504.386 109 520.386 162 c 0
 521.386 166 527.386 168 534.386 168 c 0
 544.386 168 556.386 165 559.386 162 c 1
 540.386 108 512.386 40 505.386 -4 c 1
 396.386 -4 297.386 0 164.386 0 c 0x70
 117.386 0 84.3857 -3 45.3857 -3 c 1
 40.3857 2 41.3857 21 45.3857 26 c 1
 57.3857 26 111.386 31 114.386 42 c 0
 119.386 58 119.386 86 119.386 116 c 2
 119.386 543 l 2
 119.386 573 119.386 601 114.386 617 c 0
 111.386 628 57.3857 633 45.3857 633 c 1
 41.3857 638 40.3857 657 45.3857 662 c 1
 86.3857 660 124.386 657 163.386 657 c 0
 202.386 657 239.386 660 280.386 662 c 1
 285.386 657 284.386 638 280.386 633 c 1
 268.386 633 214.386 628 211.386 617 c 0
 206.386 601 206 573 206.386 543 c 2
 206.386 116 l 2xb0
EndSplineSet
EndChar

StartChar: M
Encoding: 77 77 44
Width: 907
Flags: W
HStem: -3 29<24.4908 102.656 171.458 249.963 632.491 698.726 803.386 873.67> 633 29<58.0572 121.455 788.222 853.324>
VStem: 119.31 45<37.5115 289.668> 133.31 44<371.361 583.939> 693.31 86<325.272 584.822> 708.31 81<37.202 383.21>
LayerCount: 2
Fore
SplineSet
162.31 657 m 0xd0
 196.31 657 221.31 660 243.31 662 c 1
 263.31 599 384.31 324 455.31 146 c 0
 456.31 144 458.31 144 459.31 144 c 0
 460.31 144 463.31 145 464.31 148 c 0
 523.31 300 559.31 394 617.31 542 c 0
 635.31 588 661.31 662 661.31 662 c 1
 693.31 660 721.31 658 740.31 658 c 0
 775.31 658 827.31 660 852.31 662 c 1
 853.31 659 855.31 633 855.31 633 c 17
 841.31 633 789.31 625 784.31 615 c 0
 780.31 606 779.31 589 779.31 577 c 0xd8
 781.31 508 786.31 270 789.31 140 c 0
 790.31 101 792.31 67 801.31 43 c 0
 806.31 29 863.31 26 871.31 26 c 1
 876.31 17 874.31 0 873.31 -3 c 1
 833.31 -1 798.31 2 754.31 2 c 0
 708.31 2 680.31 -1 634.31 -3 c 1
 632.31 -1 630.31 18 634.31 26 c 1
 646.31 26 687.31 30 699.31 37 c 0
 706.31 41 708.31 65 708.31 79 c 0xc4
 708.31 93 706.31 122 706.31 137 c 0
 702.31 281 699.31 403 693.31 565 c 0
 693.31 569 691.31 585 684.31 585 c 0
 682.31 585 681.31 583 679.31 578 c 8
 597.31 372 545.31 242 468.31 49 c 0
 464.31 40 441.31 0 430.31 -2 c 0
 427.31 -3 424.31 -1 421.31 0 c 1
 177.31 584 l 1xd8
 173.31 366 164.31 85 164.31 75 c 0
 164.31 66 165.31 52 168.31 44 c 0
 174.31 29 239.31 26 247.31 26 c 1
 252.31 20 250.31 0 249.31 -3 c 1
 209.31 -1 187.31 2 143.31 2 c 0
 97.3096 2 72.3096 -1 26.3096 -3 c 1
 24.3096 -1 22.3096 18 26.3096 26 c 1
 38.3096 26 98.3096 31 107.31 44 c 0
 116.31 57 118.31 73 119.31 94 c 0xe0
 128.31 334 133.31 554 133.31 572 c 0
 133.31 586 133.31 601 129.31 612 c 0
 125.31 624 71.3096 633 59.3096 633 c 1
 57.3096 633 57.3096 660 59.3096 662 c 1
 105.31 660 116.31 657 162.31 657 c 0xd0
EndSplineSet
EndChar

StartChar: N
Encoding: 78 78 45
Width: 776
Flags: W
HStem: -3 29<39.0772 111.331 192.824 262.854> 634 29<39.3351 115.012 522.238 593.175 674.761 747.015>
VStem: 129.046 46<46.7508 568.502> 611.046 46<166 613.249>
LayerCount: 2
Fore
SplineSet
143.046 660 m 0
 173.046 660 205.046 661 219.046 662 c 1
 270.046 582 500.046 321 611.046 166 c 1
 611.046 224 l 0
 611.046 545 l 2
 611.046 581 611.046 598 601.046 614 c 0
 595.046 624 541.046 634 525.046 634 c 1
 520.046 641 521.046 657 523.046 663 c 1
 563.046 661 594.046 658 638.046 658 c 0
 684.046 658 699.046 661 745.046 663 c 1
 748.046 658 750.046 645 745.046 634 c 1
 733.046 634 674.046 626 667.046 614 c 0
 658.046 599 657.046 584 657.046 546 c 2
 657.046 139 l 2
 657.046 81 657 53 659 1 c 1
 658 -4 649 -5 646 -5 c 0
 641 -5 625.178 0.140735 611.046 18 c 2
 175.046 569 l 1
 175.046 115 l 2
 175.046 79 175.046 62 185.046 46 c 0
 191.046 36 244.046 26 260.046 26 c 1
 265.046 19 264.046 3 262.046 -3 c 1
 222.046 -1 192.046 2 148.046 2 c 0
 102.046 2 87.0459 -1 41.0459 -3 c 1
 38.0459 2 36.0459 15 41.0459 26 c 1
 53.0459 26 112.046 34 119.046 46 c 0
 128.046 61 129.046 76 129.046 114 c 2
 129.046 548 l 2
 129.046 586 128.046 601 119.046 616 c 0
 112.046 628 53.0459 636 41.0459 636 c 1
 36.0459 647 38.0459 660 41.0459 665 c 1
 87.0459 663 110.046 660 143.046 660 c 0
EndSplineSet
EndChar

StartChar: O
Encoding: 79 79 46
Width: 748
Flags: W
HStem: -10 34<312.807 466.307> 633 34<280.332 437.715>
VStem: 49 99<213.913 447.61> 600 99<209.584 443.622>
LayerCount: 2
Fore
SplineSet
358 633 m 0
 208 633 148 484 148 350 c 0
 148 195 234 24 389 24 c 0
 539 24 600 174 600 309 c 0
 600 464 513 633 358 633 c 0
373 667 m 0
 549 667 699 527 699 328 c 0
 699 141 549 -10 373 -10 c 0
 197 -10 49 130 49 328 c 0
 49 515 197 667 373 667 c 0
EndSplineSet
EndChar

StartChar: P
Encoding: 80 80 47
Width: 548
Flags: W
HStem: -3 29<42.4037 113.252 211.748 282.596> 278 28<251.776 345.657> 627 32<44.2859 115.468 211.209 339.676>
VStem: 119 87<32.7426 616.422> 426 92<383.77 555.24>
LayerCount: 2
Fore
SplineSet
518 479 m 0
 518 357 429 278 298 278 c 0
 287 278 265 281 255 286 c 0
 252 288 241 296 241 308 c 0
 241 310 242 314 246 313 c 1
 257 310 269 306 284 306 c 0
 364 306 426 362 426 462 c 0
 426 561 372 627 261 627 c 0
 249 627 215 626 211 617 c 0
 206 605 206 572 206 542 c 2
 206 116 l 2
 206 86 206 58 211 42 c 0
 214 31 268 26 280 26 c 1
 284 21 285 2 280 -3 c 1
 239 -1 202 2 163 2 c 0
 124 2 86 -1 45 -3 c 1
 40 2 41 21 45 26 c 1
 57 26 111 31 114 42 c 0
 119 58 119 86 119 116 c 2
 119 543 l 2
 119 573 119 601 114 617 c 0
 111 628 57 633 45 633 c 1
 41 638 40 657 45 662 c 1
 86 660 124 657 163 657 c 0
 202 657 246 659 305 659 c 0
 411 659 518 595 518 479 c 0
EndSplineSet
EndChar

StartChar: Q
Encoding: 81 81 48
Width: 747
Flags: W
HStem: -136 55<579.579 714.391> 633 34<280.332 437.715>
VStem: 49 99<215.297 447.61> 600 99<206.759 443.622>
LayerCount: 2
Fore
SplineSet
358 633 m 0
 208 633 148 484 148 350 c 0
 148 195 234 24 389 24 c 0
 539 24 600 174 600 309 c 0
 600 464 513 633 358 633 c 0
373 667 m 0
 549 667 699 527 699 328 c 0
 699 175 599 46 466 4 c 1
 562 -42 582 -81 685 -81 c 0
 725 -81 749 -77 756 -75 c 1
 762.551 -75 771.112 -77.6816 774 -81.9473 c 0
 774.639 -82.8916 775 -83.9131 775 -85 c 1
 720 -114 670 -136 609 -136 c 0
 502 -136 423 -33 293 0 c 0
 154 35 49 161 49 328 c 0
 49 515 197 667 373 667 c 0
EndSplineSet
EndChar

StartChar: R
Encoding: 82 82 49
Width: 621
Flags: W
HStem: -3 29<42.7894 113.638 212.134 282.982 586.951 647.168> 302 31<206.386 289.055> 627 32<44.2859 115.468 211.209 339.866>
VStem: 119 87.386<32.7426 302 333 616.422> 415 93.386<414.193 565.385>
LayerCount: 2
Fore
SplineSet
305 659 m 0
 396 659 508.386 600 508.386 486 c 0
 508.386 414 439 344 372 321 c 1
 425 233 467.386 173 533.386 86 c 0
 562.386 48 591.386 30 646.386 26 c 1
 651.386 21 646.386 -1 645.386 -3 c 1
 578.386 -3 533.386 2 513.386 9 c 0
 499.386 14 472.386 22 448.386 53 c 0
 433.386 73 352.386 192 289.386 290 c 0
 283.386 299 273.386 302 259.386 302 c 0
 259.386 302 215.386 302 206.386 302 c 1
 206.386 116 l 1
 206.386 86 206.386 58 211.386 42 c 0
 214.386 31 268.386 26 280.386 26 c 1
 284.386 21 285.386 2 280.386 -3 c 1
 239.386 -1 202.386 2 163.386 2 c 0
 124.386 2 86.3857 -1 45.3857 -3 c 1
 40.3857 2 41.3857 21 45.3857 26 c 1
 57.3857 26 111.386 31 114.386 42 c 0
 119.386 58 119 86 119.386 116 c 2
 119 543 l 2
 119 573 119 601 114 617 c 0
 111 628 57 633 45 633 c 1
 41 638 40 657 45 662 c 1
 86 660 124 657 163 657 c 0
 202 657 246 659 305 659 c 0
415 477 m 0
 415 564 372 627 261 627 c 0
 249 627 215 626 211 617 c 0
 206 605 206 572 206 542 c 2
 206.386 333 l 1
 206.386 333 241 333 260 333 c 0
 338 333 415 389 415 477 c 0
EndSplineSet
EndChar

StartChar: S
Encoding: 83 83 50
Width: 502
Flags: W
HStem: -10 34<181.241 314.943> 632 34<192.457 311.611>
VStem: 49 37<125.029 184.71> 65 80<454.853 571.394> 372 87<90.4983 213.651>
LayerCount: 2
Fore
SplineSet
261 666 m 0xd8
 323 666 346 653 412 638 c 1
 420 586 424 523 426 496 c 0
 426.517 489.019 412 485 405 485 c 0
 402 485 397 486 394 489 c 1
 388 539 339 632 254 632 c 0
 172 632 145 569 145 521 c 0xd8
 145 441 219 408 285 366 c 0
 351 324 459 272 459 173 c 0
 459 63 357 -10 250 -10 c 0
 182 -10 119 9 70 19 c 1
 58 78 49 162 49 174 c 1
 55 180 66 186 75 186 c 0
 82 186 84.8906 182.27 86 177 c 0xe8
 94 139 132 24 252 24 c 0
 317 24 372 68 372 146 c 0
 372 229 308 250 239 290 c 0
 162 335 65 389 65 490 c 0
 65 596 161 666 261 666 c 0xd8
EndSplineSet
EndChar

StartChar: T
Encoding: 84 84 51
Width: 626
Flags: W
HStem: -3 29<193.404 264.252 362.748 433.596> 626 35<95.8184 270 357 528.71>
VStem: 12 33<499.771 557.091> 270 87<32.7426 626> 580 33<499.771 557.091>
LayerCount: 2
Fore
SplineSet
508 661 m 0
 524 661 556 670 568 676 c 0
 578 681 581 681 587 678 c 1
 594 617 602 559 613 506 c 1
 610 503 603 498 594 499 c 0
 589 499 582 501 580 504 c 1
 566 574 534 626 484 626 c 2
 357 626 l 1
 357 116 l 2
 357 86 357 58 362 42 c 0
 365 31 419 26 431 26 c 1
 435 21 436 2 431 -3 c 1
 390 -1 353 2 314 2 c 0
 275 2 237 -1 196 -3 c 1
 191 2 192 21 196 26 c 1
 208 26 262 31 265 42 c 0
 270 58 270 86 270 116 c 2
 270 626 l 1
 141 626 l 2
 91 626 59 574 45 504 c 1
 43 501 36 499 31 499 c 0
 22 498 15 503 12 506 c 1
 23 559 31 617 38 678 c 1
 44 681 55 678 61 675 c 0
 73 669 101 661 117 661 c 0
 204 661 415 661 508 661 c 0
EndSplineSet
EndChar

StartChar: U
Encoding: 85 85 52
Width: 723
Flags: W
HStem: -4 58<281.404 476.04> 633 29<26.7894 97.6372 196.134 266.982 485.795 554.648 632.149 706.374>
VStem: 103.386 87<158.243 626.257> 570.386 46<156.61 613.249>
LayerCount: 2
Fore
SplineSet
147.386 657 m 0
 186.386 657 223.386 660 264.386 662 c 1
 269.386 657 268.386 638 264.386 633 c 1
 252.386 633 198.386 628 195.386 617 c 0
 190.386 601 190.386 573 190.386 543 c 2
 190.386 296 l 2
 190.386 212.72 207.198 151.858 239.282 112 c 0
 270.766 72.8877 316.953 54 376.386 54 c 0
 479.386 54 567.386 102 570.386 274 c 2
 570.386 545 l 2
 570.386 581 570.386 598 560.386 614 c 0
 554.386 624 504.386 634 488.386 634 c 1
 483.386 641 484.386 657 486.386 663 c 1
 526.386 661 553.386 658 597.386 658 c 0
 643.386 658 658.386 661 704.386 663 c 1
 707.386 658 709.386 645 704.386 634 c 1
 692.386 634 633.386 626 626.386 614 c 0
 617.386 599 616.386 584 616.386 546 c 2
 616.386 276 l 2
 616.386 76 511.386 -4 355.386 -4 c 0
 283.356 -4 221.41 19.5293 176.962 62 c 0
 130.696 106.205 103.386 170.929 103.386 251 c 2
 103.386 543 l 2
 103.386 573 103.386 601 98.3857 617 c 0
 95.3857 628 41.3857 633 29.3857 633 c 1
 25.3857 638 24.3857 657 29.3857 662 c 1
 70.3857 660 108.386 657 147.386 657 c 0
EndSplineSet
EndChar

StartChar: V
Encoding: 86 86 53
Width: 638
Flags: W
HStem: -2 21G<301.5 310> 633 29<-7.75244 47.578 181.704 234.139 446.808 499.033 600.396 651.897>
LayerCount: 2
Fore
SplineSet
109.5 657 m 0
 153.5 657 193.5 660 233.5 662 c 1
 235.5 656 235.5 634 231.5 633 c 1
 223.5 633 171.5 628 171.5 600 c 0
 171.5 590.443 176.778 565.907 189.153 532 c 0
 222 442 335 137.158 338 129 c 1
 344 142.158 437 369 497.5 523 c 16
 506.5 546 515.5 575 515.5 593 c 0
 515.5 625 461.5 632 449.5 632 c 1
 444.5 634 444.5 656 449.5 661 c 1
 486.5 659 516.5 657 553.5 657 c 0
 599.5 657 611.5 660 651.5 662 c 1
 654.5 657 652.5 633 649.5 633 c 1
 641.5 633 602.5 627 585.5 607 c 0
 573.5 593 550.5 544 535.5 506 c 0
 462.5 322 419.5 218 341.5 32 c 0
 330.5 5 316.5 -2 303.5 -2 c 0
 299.5 -2 295.5 10 293.5 14 c 0
 225.5 192 178.5 322 103.5 514 c 0
 88.5 553 74.5 584 57.5 610 c 0
 46.5 626 5.5 633 -6.5 633 c 1
 -8.5 633 -8.5 660 -6.5 662 c 1
 39.5 660 63.5 657 109.5 657 c 0
EndSplineSet
EndChar

StartChar: W
Encoding: 87 87 54
Width: 900
Flags: W
HStem: -2 21G<257.5 266 619.5 628> 633 29<-5.75244 45.7641 173.704 226.288 698.574 753.71 857.412 905.077>
LayerCount: 2
Fore
SplineSet
117.5 657 m 0
 161.5 657 185.5 660 225.5 662 c 1
 227.5 656 227.5 634 223.5 633 c 1
 215.5 633 163.5 628 163.5 600 c 1
 163.5 593.495 169.183 570.027 178.714 535 c 0
 201.416 451.571 253.446 289.565 295 148 c 1
 342 303 416.5 531 446 629 c 0
 451.743 648.079 471 662 482 662 c 0
 486 662 489 657 494 646 c 1
 501 624 586 350 653 151 c 1
 696 304 720.5 383 757.5 524 c 0
 763.5 548 769.5 576 769.5 594 c 0
 769.5 626 713.5 633 701.5 633 c 1
 696.5 635 696.5 657 701.5 662 c 1
 738.5 660 772.5 657 809.5 657 c 0
 855.5 657 864.5 660 904.5 662 c 1
 907.5 657 905.5 633 902.5 633 c 1
 894.5 633 859 624 839 607 c 0
 825 595 815 572 803 531 c 0
 748 342 712.5 211 659.5 32 c 0
 654.5 14 634.5 -2 621.5 -2 c 0
 617.5 -2 612.5 10 611.5 14 c 1
 562.192 158.518 447.519 509.416 448 508 c 1
 392 324 350.5 209 297.5 32 c 0
 292.5 14 272.5 -2 259.5 -2 c 0
 255.5 -2 250.5 10 249.5 14 c 0
 191.5 199 150.5 335 89.5 532 c 0
 77.5 572 72.5 595 53.5 613 c 0
 39.5 626 7.5 633 -4.5 633 c 1
 -6.5 633 -6.5 660 -4.5 662 c 1
 41.5 660 71.5 657 117.5 657 c 0
EndSplineSet
EndChar

StartChar: X
Encoding: 88 88 55
Width: 668
Flags: W
HStem: -3 29<-7.68482 57.2189 154.565 228.648 416.457 467.963 601.394 669.319> 633 29<31.457 86.9709 234.451 288.431 432.979 496.117 593.484 648.663>
LayerCount: 2
Fore
SplineSet
159.27 657 m 0
 208.27 657 247.27 660 287.27 662 c 1
 289.27 656 290.27 633 285.27 633 c 0
 271.27 633 225.27 627 225.27 601 c 0
 225.27 593 229 583 237.27 571 c 2
 353.27 393 l 1
 413.27 473 474 550 499 590 c 0
 502.822 596.115 503.27 604 503.27 606 c 0
 503.27 615 492 632 436 632 c 1
 432 633 431 654 434 661 c 1
 474 658 500.27 656 537.27 656 c 0
 589.27 656 623.27 659 647.27 661 c 1
 650.27 656 651.27 638 645.27 632 c 1
 637.27 632 585.602 626.924 556.27 592 c 0
 479 500 444.27 456 372.27 360 c 1
 569.27 66 l 2
 588 37 634.27 26 667.27 26 c 1
 671.27 21 669.27 -1 668.27 -3 c 1
 628.27 -1 606.27 2 565.27 2 c 0
 509.27 2 475.27 -1 419.27 -3 c 1
 414.27 2 414.27 26 419.27 26 c 0
 430.27 26 477.27 35 477.27 54 c 0
 477.27 57 474 63 472.27 66 c 2
 320 301 l 1
 260 221 169.27 94 154.27 66 c 0
 153.27 63 149.27 56 149.27 50 c 0
 149.27 38 170.27 26 226.27 26 c 1
 230.27 20 230.27 0 228.27 -3 c 1
 191.27 -1 152.27 2 115.27 2 c 0
 63.2695 2 32.2695 -1 -7.73047 -3 c 1
 -10.7305 3 -7.73047 23 -5.73047 26 c 1
 2.26953 26 73.2695 34 101.27 70 c 0
 177.27 167 225.27 236 297.27 332 c 1
 258.27 392 156.27 548 156.27 548 c 2
 133.27 584 118.27 601 90.2695 617 c 0
 73.2695 627 46.2695 633 34.2695 633 c 0
 29.2695 633 29.2695 657 34.2695 662 c 1
 83.2695 660 110.27 657 159.27 657 c 0
EndSplineSet
EndChar

StartChar: Y
Encoding: 89 89 56
Width: 598
Flags: W
HStem: -3 29<184.154 255.002 353.498 424.346> 633 29<-13.0625 42.4514 189.931 243.911 392.728 456.191 540.972 603.225>
VStem: 260.75 87<32.7426 320.855>
LayerCount: 2
Fore
SplineSet
260.75 116 m 2
 260.75 267 l 0
 260.75 274 259 285 253.75 295 c 16
 195.75 400 170.75 442 111.75 548 c 0
 90.75 585 73.75 601 45.75 617 c 0
 28.75 627 1.75 633 -10.25 633 c 0
 -15.25 633 -15.25 657 -10.25 662 c 1
 38.75 660 65.75 657 114.75 657 c 0
 163.75 657 202.75 660 242.75 662 c 1
 244.75 656 245.75 633 240.75 633 c 0
 226.75 633 180.75 627 180.75 601 c 0
 180.75 593 185 584 192.75 571 c 2
 332 331 l 1
 381 419 447 554 462 590 c 0
 463.387 593.328 465 599 465 605 c 0
 465 615 451 632 395 632 c 1
 392 632 391 658 393 661 c 1
 430 659 455.75 656 492.75 656 c 0
 544.75 656 562.75 659 602.75 661 c 1
 605 655 603.75 632 600.75 632 c 1
 592.75 632 534.75 632 511.75 592 c 0
 473.75 525 396.75 381 353.75 301 c 8
 348 290 348.75 279 348.75 270 c 0
 348.75 210 347.75 116 347.75 116 c 2
 347.75 86 347.75 58 352.75 42 c 0
 355.75 31 409.75 26 421.75 26 c 1
 425.75 21 426.75 2 421.75 -3 c 1
 380.75 -1 343.75 2 304.75 2 c 0
 265.75 2 227.75 -1 186.75 -3 c 1
 181.75 2 182.75 21 186.75 26 c 1
 198.75 26 252.75 31 255.75 42 c 0
 260.75 58 260.75 86 260.75 116 c 2
EndSplineSet
EndChar

StartChar: Z
Encoding: 90 90 57
Width: 633
Flags: W
HStem: 0 35<156.949 487.391> 626 35<153.615 459.743> 649 20G<72.7891 86.2891 519.79 563.79>
VStem: 42.7891 37<491.927 543.908>
LayerCount: 2
Fore
SplineSet
215.79 626 m 2xd0
 147.949 626 101.789 577 79.7891 495 c 1
 77.7891 492 73.7891 491 68.7891 491 c 0
 59.7891 491 45.7891 496 42.7891 499 c 1
 59.7891 545 69.7891 601 75.7891 669 c 1xb0
 96.7891 666 130.79 661 157.79 661 c 0
 351.79 661 l 2xd0
 435.79 661 477.79 665 561.79 671 c 1
 565.79 670 579.79 657 579.79 649 c 1xb0
 577.79 641 156.949 35 156.949 35 c 25
 417.79 35 l 2
 460.604 35 489.928 49.2266 510.949 70.5811 c 0
 539.598 99.6807 552.832 140.162 563.79 169 c 0
 564.79 171 572.79 172 577.79 172 c 0
 587.79 172 597.79 167 601.79 163 c 1
 577.79 84 565.949 51 553.949 0 c 1
 553.949 0 245.79 0 52.7891 0 c 0
 41.7891 0 31 8 34.7891 14 c 2
 459.79 626 l 1
 215.79 626 l 2xd0
EndSplineSet
EndChar

StartChar: bracketleft
Encoding: 91 91 58
Width: 259
Flags: W
HStem: -144 25<195.153 253.583> 699 25<195.153 253.583>
VStem: 79 48<-98.9827 678.983>
LayerCount: 2
Fore
SplineSet
98 718 m 0
 180 718 251 724 251 724 c 1
 251 724 254 721 254 715 c 0
 254 709 250 701 244 699 c 0
 206 686 127 676 127 676 c 1
 127 -96 l 1
 127 -96 206 -106 244 -119 c 0
 250 -121 254 -129 254 -135 c 0
 254 -141 251 -144 251 -144 c 1
 251 -144 180 -138 98 -138 c 0
 80 -138 79 -116 79 -115 c 2
 79 695 l 2
 79 696 80 718 98 718 c 0
EndSplineSet
Substitution2: "'smcp' Lowercase to Small Capitals lookup 2-1" bracketleft.sc
EndChar

StartChar: backslash
Encoding: 92 92 59
Width: 401
Flags: W
VStem: 31 338
LayerCount: 2
Fore
SplineSet
31 750 m 1
 34 755 44 757 51 757 c 0
 62 757 76 749 79 741 c 2
 79 741 369 -11 369 -17 c 1
 368 -21 358 -28 346 -28 c 0
 339 -28 328 -21 325 -14 c 0
 214 275 119 524 31 750 c 1
EndSplineSet
Substitution2: "'smcp' Lowercase to Small Capitals lookup 2-1" backslash.sc
EndChar

StartChar: bracketright
Encoding: 93 93 60
Width: 260
Flags: W
HStem: -144 25<6.41714 64.8474> 699 25<6.41714 64.8474>
VStem: 133 48<-98.9827 678.983>
LayerCount: 2
Fore
SplineSet
162 718 m 0
 180 718 181 696 181 695 c 2
 181 -115 l 2
 181 -116 180 -138 162 -138 c 0
 80 -138 9 -144 9 -144 c 1
 9 -144 6 -141 6 -135 c 0
 6 -129 10 -121 16 -119 c 0
 54 -106 133 -96 133 -96 c 1
 133 676 l 1
 133 676 54 686 16 699 c 0
 10 701 6 709 6 715 c 0
 6 721 9 724 9 724 c 1
 9 724 80 718 162 718 c 0
EndSplineSet
Substitution2: "'smcp' Lowercase to Small Capitals lookup 2-1" bracketright.sc
EndChar

StartChar: asciicircum
Encoding: 94 94 61
Width: 390
Flags: W
HStem: 423 222
VStem: 61 250
LayerCount: 2
Fore
SplineSet
186 645 m 0
 191 645 198 640 202 632 c 0
 242 553 268 514 311 439 c 1
 311 429 302 423 296 423 c 1
 250 471 186 552 186 552 c 25
 186 552 123 471 77 423 c 1
 71 423 61 429 61 439 c 1
 104 514 131 553 171 632 c 0
 175 640 181 645 186 645 c 0
EndSplineSet
Substitution2: "'smcp' Lowercase to Small Capitals lookup 2-1" asciicircum.sc
EndChar

StartChar: underscore
Encoding: 95 95 62
Width: 505
Flags: W
HStem: -43 56<17.9907 476.32>
LayerCount: 2
Fore
SplineSet
14 -33 m 1
 14 -33 19 13 29 13 c 2
 478 13 l 2
 480 13 482 12 482 8 c 0
 482 -1 478 -15 472 -37 c 0
 470 -43 466 -43 466 -43 c 1
 21 -43 l 1
 21 -43 14 -43 14 -33 c 1
EndSplineSet
EndChar

StartChar: a
Encoding: 97 97 64
Width: 431
Flags: W
HStem: -8 54<138.481 211.996 323.5 388.237> 398 38<158.777 269.5>
VStem: 37 83<64.4927 166.568> 52 81<294.824 353.758> 274 76<67.9015 223 245.918 361.958>
LayerCount: 2
Fore
SplineSet
187 46 m 0xe8
 222 46 274 77 274 87 c 2
 274 223 l 17
 247 215 199 201 181 194 c 0
 145 180 120 154 120 116 c 0
 120 79 149 46 187 46 c 0xe8
241 436 m 0
 298 436 350 376 350 299 c 2
 350 93 l 2
 350 66 358 46 381 46 c 0
 399 46 411 57 414 59 c 1
 417 59 418 54 418 51 c 0
 418 45 416 37 413 32 c 1
 401 21 359 -6 338 -6 c 0
 309 -6 283 28 277 59 c 1
 265 47 189 -8 154 -8 c 0
 88 -8 37 42 37 107 c 0xe8
 37 148 65 179 87 187 c 0
 143 207 233 237 262 250 c 0
 272 254 274 257 274 275 c 2
 274 302 l 2
 274 347 237 398 188 398 c 0
 153 398 140 375 133 336 c 0
 127 302 111 288 86 288 c 0
 65 288 52 310 52 330 c 0xd8
 52 334 55 349 59 354 c 1
 90 383 168 436 241 436 c 0
EndSplineSet
Substitution2: "'smcp' Lowercase to Small Capitals lookup 2-1" a.sc
EndChar

StartChar: b
Encoding: 98 98 65
Width: 498
Flags: W
HStem: -7 34<183.329 294.14> 379 5<154.394 227.394> 628 26<4.29117 62.2212> 674 20G<127.394 150.894>
VStem: 71.3926 77.0014<53.1875 351.859 383.777 621.593> 374.394 84<134.316 299.421>
LayerCount: 2
Fore
SplineSet
211.394 -7 m 0
 196.394 -7 158.394 2 137.394 8 c 0
 115.394 14 95.3926 22 72.3926 14 c 1
 67.3926 14 59.3926 31 59.3926 36 c 1
 68.3926 56 71.3926 90 71.3926 110 c 2
 71.3926 558 l 2
 71.3926 571 71.3926 598 66.3926 610 c 0
 60.3926 624 33.3926 628 5.39258 628 c 1
 4.39258 628 2.39258 653 6.39258 654 c 1
 56.3926 659 106.394 675 148.394 694 c 1
 153.394 694 159.394 685 159.394 678 c 1
 159.394 678 148.394 646 148.394 591 c 2
 148.394 394 l 2
 148.394 389 148.394 379 154.394 384 c 0
 169.394 395 237.394 438 275.394 438 c 0
 395.394 438 458.394 324 458.394 233 c 0
 458.394 102 353.394 -7 211.394 -7 c 0
227.394 379 m 0
 201.394 379 162.394 361 153.394 352 c 0
 150.394 349 148.394 346 148.394 341 c 2
 148.394 98 l 2
 148.394 55 197.394 27 241.394 27 c 0
 313.394 27 374.394 113 374.394 194 c 0
 374.394 310 316.394 379 227.394 379 c 0
EndSplineSet
Substitution2: "'smcp' Lowercase to Small Capitals lookup 2-1" b.sc
EndChar

StartChar: c
Encoding: 99 99 66
Width: 423
Flags: W
HStem: -8 66<191.945 321.563> 394 44<193.28 290.075>
VStem: 39 78<132.251 288.818>
LayerCount: 2
Fore
SplineSet
382 386 m 0
 382 350 361 338 344 338 c 1
 322 338 303 364 286 375 c 0
 265 389 255 394 229 394 c 0
 176 394 117 332 117 227 c 0
 117 110 189 58 279 58 c 0
 334 58 372 94 385 109 c 1
 386 109 393 103 393 95 c 0
 393 90 390 82 387 77 c 0
 369 48 319 -8 241 -8 c 0
 120 -8 39 90 39 194 c 0
 39 340 178 438 282 438 c 0
 317 438 348 430 372 414 c 1
 376 410 382 396 382 386 c 0
EndSplineSet
Substitution2: "'smcp' Lowercase to Small Capitals lookup 2-1" c.sc
EndChar

StartChar: d
Encoding: 100 100 67
Width: 515
Flags: W
HStem: -8 62<192.397 289.897> 20 27<438.72 496.784> 396 42<196.789 327.598> 628 26<283.899 341.828> 674 20G<407 430.5>
VStem: 39 84<130.201 291.813> 351 77<70.6579 374.572 428.007 621.593>
LayerCount: 2
Fore
SplineSet
277 438 m 0xbe
 298 438 336 432 346 428 c 1
 350 428 351 437 351 449 c 2
 351 558 l 2
 351 572 351 598 346 610 c 0
 340 624 313 628 285 628 c 1
 284 628 282 653 286 654 c 1
 336 659 386 675 428 694 c 1
 433 694 439 685 439 678 c 1
 439 678 428 646 428 591 c 2
 428 163 l 2
 428 124 429 79 435 65 c 0
 443 47 491 48 494 47 c 0
 496 46 497 38 497 35 c 0
 497 33 494 20 489 20 c 0x7e
 437 17 360 -8 359 -8 c 0
 353 -8 351 4 351 11 c 2
 351 46 l 2
 351 51 350 54 348 52 c 0
 333 36 263 -8 215 -8 c 0
 124 -8 39 84 39 206 c 0
 39 337 187 438 277 438 c 0xbe
245 396 m 0
 169 396 123 314 123 230 c 0
 123 136 173 54 264 54 c 0xbe
 309 54 351 78 351 94 c 2
 351 347 l 2
 351 370 301 396 245 396 c 0
EndSplineSet
Substitution2: "'smcp' Lowercase to Small Capitals lookup 2-1" d.sc
EndChar

StartChar: e
Encoding: 101 101 68
Width: 430
Flags: W
HStem: -8 64<192.798 321.098> 248 37<116 301.487> 402 36<172.002 264.878>
VStem: 40 71<142.672 248> 302 85<285.847 368.285>
LayerCount: 2
Fore
SplineSet
116 285 m 1
 125 285 269 285 279 285 c 0
 291 285 301 290 302 308 c 0
 303 332 281 402 220 402 c 0
 136 402 114 285 116 285 c 1
111 248 m 1
 108 120 186 56 274 56 c 0
 329 56 371 94 384 109 c 1
 385 109 392 103 392 95 c 0
 392 90 389 82 386 77 c 0
 368 48 318 -8 240 -8 c 0
 122 -8 40 82 40 200 c 0
 40 334 149 438 237 438 c 0
 357 438 387 342 387 302 c 0
 387 273 382 256 363 255 c 0
 332 253 123 248 111 248 c 1
EndSplineSet
Substitution2: "'smcp' Lowercase to Small Capitals lookup 2-1" e.sc
EndChar

StartChar: f
Encoding: 102 102 69
Width: 308
Flags: W
HStem: -3 29<25.7894 90.6755 179.122 247.982> 391 41<41.3486 96.3857 173.386 294.761> 637 60<215.495 300.805>
VStem: 96.3857 77.0003<32.7426 391 432 545.43>
LayerCount: 2
Fore
SplineSet
269.386 697 m 0
 299.386 697 301.386 695 316.386 685 c 1
 320.386 681 326.386 667 326.386 657 c 0
 326.386 621 299.386 617 286.386 617 c 0
 276.386 617 268.386 622 257.386 628 c 0
 246.386 634 241.386 637 228.386 637 c 0
 197.386 637 172.386 605 173.386 543 c 2
 173.386 432 l 1
 291.386 432 l 2
 296.386 432 296.386 427 296.386 421 c 0
 296.386 412 291.386 400 282.386 391 c 1
 173.386 391 l 1
 173.386 116 l 2
 173.386 86 173.386 58 178.386 42 c 0
 181.386 31 233.386 26 245.386 26 c 1
 249.386 21 250.386 2 245.386 -3 c 1
 204.386 -1 173.386 2 134.386 2 c 0
 95.3857 2 69.3857 -1 28.3857 -3 c 1
 23.3857 2 24.3857 21 28.3857 26 c 1
 40.3857 26 88.3857 31 91.3857 42 c 0
 96.3857 58 96.3857 86 96.3857 116 c 2
 96.3857 391 l 1
 38.3857 391 l 2
 35.3857 391 33.3857 397 33.3857 400 c 0
 33.3857 404 58.3857 431 59.3857 432 c 1
 75.3857 432 85.3857 432 96.3857 432 c 1
 96.3857 443 96.3857 438 96.3857 438 c 2
 96.3857 583 208.386 697 269.386 697 c 0
EndSplineSet
Substitution2: "'smcp' Lowercase to Small Capitals lookup 2-1" f.sc
EndChar

StartChar: g
Encoding: 103 103 70
Width: 466
Flags: W
HStem: -227 39<157.618 295.19> -4 71<162.372 348.141> 137 30<177.303 264.226> 374 51<388.868 443.481> 409 30<171.516 260.162>
VStem: 23 79<-141.317 -60.5231> 50 77<74.2375 115.659 218.047 361.11> 308 77<216.006 366.022> 387 69<-102.937 -10>
LayerCount: 2
Fore
SplineSet
215 409 m 27xeb80
 158 409 127 349 127 292 c 27
 127 231 162 167 223 167 c 27
 278 167 308 226 308 281 c 27
 308 343 277 409 215 409 c 27xeb80
255 -4 m 0
 237 -4 169 -5 162 -9 c 0
 139 -22 102 -50 102 -76 c 0xe580
 102 -141 151 -188 236 -188 c 0
 305 -188 387 -136 387 -81 c 0
 387 -52 350 -4 255 -4 c 0
301 67 m 0
 380 67 456 18 456 -38 c 0
 456 -120 335 -226 196 -227 c 0
 115 -228 23 -187 23 -105 c 0xf580
 23 -61 95 -18 129 -1 c 1
 94 10 47 42 47 92 c 1
 64 112 115 149 133 160 c 1
 84 187 50 239 50 288 c 0
 50 367 123 439 219 439 c 0xeb80
 262 439 292 424 310 417 c 0
 329 410 324 412 333 410 c 1
 440 425 l 1
 447 423 450 419 450 415 c 0
 450 407 437 380 427 374 c 1xf380
 402 375 361 378 361 378 c 2
 358 378 357 377 357 375 c 1
 362 370 385 330 385 284 c 0
 385 214 312 137 216 137 c 0
 199 137 170 142 160 146 c 1
 142 136 123 118 123 102 c 0
 123 92 143 67 183 67 c 0
 249 67 257 67 301 67 c 0
EndSplineSet
Substitution2: "'smcp' Lowercase to Small Capitals lookup 2-1" g.sc
EndChar

StartChar: h
Encoding: 104 104 71
Width: 516
Flags: W
HStem: -3 29<18.7894 83.6755 172.096 236.982 288.79 353.676 442.096 506.982> 380 58<241.147 327.57> 628 26<22.2843 80.2139> 674 20G<145.386 168.886>
VStem: 89.3857 77.0003<32.4189 347.537 363.001 621.593> 359.386 77<32.4189 346.845>
LayerCount: 2
Fore
SplineSet
307.386 438 m 0
 415.386 438 436.386 371 436.386 226 c 2
 436.386 116 l 2
 436.386 86 436.386 58 441.386 42 c 0
 444.386 31 492.386 26 504.386 26 c 1
 508.386 21 509.386 2 504.386 -3 c 1
 463.386 -1 436.386 2 397.386 2 c 0
 358.386 2 332.386 -1 291.386 -3 c 1
 286.386 2 287.386 21 291.386 26 c 1
 303.386 26 351.386 31 354.386 42 c 0
 359.386 58 359.386 86 359.386 116 c 2
 359.386 216 l 2
 359.386 340 339.386 380 261.386 380 c 0
 224.386 380 166.386 334 166.386 325 c 2
 166.386 116 l 2
 166.386 86 166.386 58 171.386 42 c 0
 174.386 31 222.386 26 234.386 26 c 1
 238.386 21 239.386 2 234.386 -3 c 1
 193.386 -1 166.386 2 127.386 2 c 0
 88.3857 2 62.3857 -1 21.3857 -3 c 1
 16.3857 2 17.3857 21 21.3857 26 c 1
 33.3857 26 81.3857 31 84.3857 42 c 0
 89.3857 58 89.3857 86 89.3857 116 c 2
 89.3857 558 l 2
 89.3857 571 89.3857 598 84.3857 610 c 0
 78.3857 624 51.3857 628 23.3857 628 c 1
 22.3857 628 20.3857 653 24.3857 654 c 1
 74.3857 659 124.386 675 166.386 694 c 1
 171.386 694 177.386 685 177.386 678 c 1
 177.386 678 166.386 646 166.386 591 c 2
 166.386 591 166.386 373 166.386 365 c 0
 166.386 364 167.386 363 169.386 363 c 0
 170.386 363 171.386 364 172.386 365 c 0
 192.386 387 259.386 438 307.386 438 c 0
EndSplineSet
Substitution2: "'smcp' Lowercase to Small Capitals lookup 2-1" h.sc
EndChar

StartChar: k
Encoding: 107 107 74
Width: 518
Flags: W
HStem: -3 29<18.7894 83.6755 172.096 236.982 441.885 512.891> 396 29<290.574 339.946 417.669 480.451> 628 26<22.2843 80.2139> 674 20G<145.386 168.886>
VStem: 89.3857 77.0003<32.4189 204 235 621.593>
LayerCount: 2
Fore
SplineSet
166.386 116 m 2
 166.386 86 166.386 58 171.386 42 c 0
 174.386 31 222.386 26 234.386 26 c 1
 238.386 21 239.386 2 234.386 -3 c 1
 193.386 -1 166.386 2 127.386 2 c 0
 88.3857 2 62.3857 -1 21.3857 -3 c 1
 16.3857 2 17.3857 21 21.3857 26 c 1
 33.3857 26 81.3857 31 84.3857 42 c 0
 89.3857 58 89.3857 86 89.3857 116 c 2
 89.3857 558 l 2
 89.3857 572 89.3857 598 84.3857 610 c 0
 78.3857 624 51.3857 628 23.3857 628 c 1
 22.3857 628 20.3857 653 24.3857 654 c 1
 74.3857 659 124.386 675 166.386 694 c 1
 171.386 694 177.386 685 177.386 678 c 1
 177.386 678 166.386 646 166.386 591 c 2
 166.386 235 l 1
 183.386 241 214.386 267 248.386 296 c 0
 300.386 340 340.386 369 340.386 379 c 0
 340.386 394 301.386 395 292.386 396 c 1
 287.386 403 289.386 423 294.386 425 c 1
 323.386 422 358.386 420 390.386 420 c 0
 424.386 420 456.386 422 478.386 425 c 1
 482.386 419 481.386 400 478.386 396 c 1
 464.386 396 422.386 388 401.386 373 c 0
 390.386 365 298.386 299 239.386 249 c 1
 314.386 168 395.386 73 419.386 53 c 0
 445.386 32 485.386 25 511.386 26 c 1
 513.386 23 515.386 7 512.386 2 c 1
 505.386 -1 474.386 -4 447.386 -4 c 0
 388.386 -4 339.386 24 324.386 40 c 2
 324.386 40 238.386 133 181.386 195 c 0
 177.386 200 166.386 204 166.386 204 c 1
 166.386 116 l 2
EndSplineSet
Substitution2: "'smcp' Lowercase to Small Capitals lookup 2-1" k.sc
EndChar

StartChar: l
Encoding: 108 108 75
Width: 255
Flags: W
HStem: -3 29<18.7894 83.6755 172.096 236.982> 628 26<22.2843 80.2139> 674 20G<145.386 168.886>
VStem: 89.3857 77.0003<32.4189 621.593>
LayerCount: 2
Fore
SplineSet
89.3857 558 m 2
 89.3857 572 89.3857 598 84.3857 610 c 0
 78.3857 624 51.3857 628 23.3857 628 c 1
 22.3857 628 20.3857 653 24.3857 654 c 1
 74.3857 659 124.386 675 166.386 694 c 1
 171.386 694 177.386 685 177.386 678 c 1
 177.386 678 166.386 646 166.386 591 c 2
 166.386 116 l 2
 166.386 86 166.386 58 171.386 42 c 0
 174.386 31 222.386 26 234.386 26 c 1
 238.386 21 239.386 2 234.386 -3 c 1
 193.386 -1 166.386 2 127.386 2 c 0
 88.3857 2 62.3857 -1 21.3857 -3 c 1
 16.3857 2 17.3857 21 21.3857 26 c 1
 33.3857 26 81.3857 31 84.3857 42 c 0
 89.3857 58 89.3857 86 89.3857 116 c 2
 89.3857 558 l 2
EndSplineSet
Substitution2: "'smcp' Lowercase to Small Capitals lookup 2-1" l.sc
EndChar

StartChar: m
Encoding: 109 109 76
Width: 790
Flags: W
HStem: -3 29<33.7133 98.5994 187.02 251.906 297.714 362.6 451.02 515.906 561.714 626.6 715.02 779.906> 372 26<32.4908 93.7581> 380 58<249.024 337.707 512.858 600.7>
VStem: 104.31 77<32.4189 351.536> 368.31 77<32.4189 347.073> 632.31 77<32.4189 348.119>
LayerCount: 2
Fore
SplineSet
319.31 438 m 0xbc
 378.31 438 417.31 415 433.31 355 c 1
 477.31 395 532.31 438 580.31 438 c 0
 688.31 438 709.31 371 709.31 226 c 2
 709.31 116 l 2
 709.31 86 709.31 58 714.31 42 c 0
 717.31 31 765.31 26 777.31 26 c 1
 781.31 21 782.31 2 777.31 -3 c 1
 736.31 -1 709.31 2 670.31 2 c 0
 631.31 2 605.31 -1 564.31 -3 c 1
 559.31 2 560.31 21 564.31 26 c 1
 576.31 26 624.31 31 627.31 42 c 0
 632.31 58 632.31 86 632.31 116 c 2
 632.31 223 l 2
 632.31 322 619.31 380 538.31 380 c 0
 489.31 380 440.31 330 440.31 323 c 0
 440.31 322 441.31 312 441.31 310 c 0
 444.31 291 445.31 257 445.31 239 c 2
 445.31 116 l 2
 445.31 86 445.31 58 450.31 42 c 0
 453.31 31 501.31 26 513.31 26 c 1
 517.31 21 518.31 2 513.31 -3 c 1
 472.31 -1 445.31 2 406.31 2 c 0
 367.31 2 341.31 -1 300.31 -3 c 1
 295.31 2 296.31 21 300.31 26 c 1
 312.31 26 360.31 31 363.31 42 c 0
 368.31 58 368.31 86 368.31 116 c 2
 368.31 218 l 2
 368.31 340 346.31 380 274.31 380 c 0xbc
 229.31 380 181.31 338 181.31 325 c 2
 181.31 116 l 2
 181.31 86 181.31 58 186.31 42 c 0
 189.31 31 237.31 26 249.31 26 c 1
 253.31 21 254.31 2 249.31 -3 c 1
 208.31 -1 181.31 2 142.31 2 c 0
 103.31 2 77.3096 -1 36.3096 -3 c 1
 31.3096 2 32.3096 21 36.3096 26 c 1
 48.3096 26 96.3096 31 99.3096 42 c 0
 104.31 58 104.31 86 104.31 116 c 2
 104.31 298 l 2
 104.31 311 104.309570312 342 99.3095703125 354 c 0
 92.3095703125 371 41.3095703125 372 34.3095703125 372 c 1
 32.3095703125 374 30.3095703125 393 34.3095703125 398 c 1
 85.3095703125 405 137.309570312 419 177.309570312 440 c 1
 182.309570312 440 188.309570312 429 188.309570312 424 c 1
 187.309570312 417 182.31 380 182.31 372 c 0xdc
 182.31 371 182.31 368 184.31 368 c 0
 185.31 368 186.31 369 187.31 370 c 0
 212.31 391 265.31 438 319.31 438 c 0xbc
EndSplineSet
Substitution2: "'smcp' Lowercase to Small Capitals lookup 2-1" m.sc
EndChar

StartChar: n
Encoding: 110 110 77
Width: 532
Flags: W
HStem: -3 29<33.7133 98.5994 187.02 251.906 303.714 368.6 457.02 521.906> 372 26<32.4908 93.7581> 380 58<256.071 342.494>
VStem: 104.31 77<32.4189 347.537> 374.31 77<32.4189 346.845>
LayerCount: 2
Fore
SplineSet
322.31 438 m 0xb8
 430.31 438 451.31 371 451.31 226 c 2
 451.31 116 l 2
 451.31 86 451.31 58 456.31 42 c 0
 459.31 31 507.31 26 519.31 26 c 1
 523.31 21 524.31 2 519.31 -3 c 1
 478.31 -1 451.31 2 412.31 2 c 0
 373.31 2 347.31 -1 306.31 -3 c 1
 301.31 2 302.31 21 306.31 26 c 1
 318.31 26 366.31 31 369.31 42 c 0
 374.31 58 374.31 86 374.31 116 c 2
 374.31 216 l 2
 374.31 340 354.31 380 276.31 380 c 0xb8
 239.31 380 181.31 334 181.31 325 c 2
 181.31 116 l 2
 181.31 86 181.31 58 186.31 42 c 0
 189.31 31 237.31 26 249.31 26 c 1
 253.31 21 254.31 2 249.31 -3 c 1
 208.31 -1 181.31 2 142.31 2 c 0
 103.31 2 77.3096 -1 36.3096 -3 c 1
 31.3096 2 32.3096 21 36.3096 26 c 1
 48.3096 26 96.3096 31 99.3096 42 c 0
 104.31 58 104.31 86 104.31 116 c 2
 104.31 298 l 2
 104.31 311 104.309570312 342 99.3095703125 354 c 0
 92.3095703125 371 41.3095703125 372 34.3095703125 372 c 1
 32.3095703125 374 30.3095703125 393 34.3095703125 398 c 1xd8
 85.3095703125 405 137.309570312 419 177.309570312 440 c 1
 182.309570312 440 188.309570312 429 188.309570312 424 c 1
 187.309570312 417 182.31 375 182.31 367 c 0
 182.31 366 182.31 363 184.31 363 c 0
 185.31 363 186.31 364 187.31 365 c 0
 207.31 387 274.31 438 322.31 438 c 0xb8
EndSplineSet
Substitution2: "'smcp' Lowercase to Small Capitals lookup 2-1" n.sc
EndChar

StartChar: o
Encoding: 111 111 78
Width: 509
Flags: W
HStem: -7 33<213.699 320.24> 406 33<189.214 295.584>
VStem: 41 86<120.834 313.837> 382 86<116.337 309.213>
LayerCount: 2
Fore
SplineSet
243 406 m 0
 158 406 127 319 127 233 c 0
 127 136 176 26 266 26 c 0
 351 26 382 113 382 198 c 0
 382 295 332 406 243 406 c 0
254 439 m 0
 386 439 468 346 468 221 c 0
 468 92 377 -7 256 -7 c 0
 124 -7 41 88 41 213 c 0
 41 342 133 439 254 439 c 0
EndSplineSet
Substitution2: "'smcp' Lowercase to Small Capitals lookup 2-1" o.sc
EndChar

StartChar: p
Encoding: 112 112 79
Width: 510
Flags: W
HStem: -226 29<15.7133 80.5994 169.02 233.906> -8 35<196.482 313.031> 372 26<14.4908 75.7581> 379 59<221.09 317.28>
VStem: 86.3096 77.0004<-190.581 2.99635 52.6571 362.458> 387.31 84<139.167 301.166>
LayerCount: 2
Fore
SplineSet
290.31 438 m 0xdc
 414.31 438 471.31 318 471.31 232 c 0
 471.31 103 350.31 -8 237.31 -8 c 0
 211.31 -8 183.31 -2 167.31 3 c 1
 167.31 3 163.31 -2 163.31 -10 c 2
 163.31 -107 l 2
 163.31 -137 163.31 -165 168.31 -181 c 0
 171.31 -192 219.31 -197 231.31 -197 c 1
 235.31 -202 236.31 -221 231.31 -226 c 1
 190.31 -224 163.31 -221 124.31 -221 c 0
 85.3096 -221 59.3096 -224 18.3096 -226 c 1
 13.3096 -221 14.3096 -202 18.3096 -197 c 1
 30.3096 -197 78.3096 -192 81.3096 -181 c 0
 86.3096 -165 86 -137 86.3096 -107 c 2
 86.3095703125 302 l 2
 86.3095703125 315 86.3095703125 342 81.3095703125 354 c 0
 74.3095703125 371 23.3095703125 372 16.3095703125 372 c 1
 14.3095703125 374 12.3095703125 393 16.3095703125 398 c 1xec
 67.3095703125 405 119.309570312 419 159.309570312 440 c 1
 164.309570312 440 170.309570312 429 170.309570312 424 c 1
 169.309570312 417 163.31 391 163.31 383 c 0
 163.31 382 163.31 379 165.31 379 c 0
 166.31 379 167.31 380 168.31 381 c 0
 193.31 402 250.31 438 290.31 438 c 0xdc
247.31 379 m 0xdc
 206.31 379 163.31 354 163.31 340 c 2
 163.31 100 l 2
 163.31 48 221.31 27 256.31 27 c 0
 339.31 27 387.31 114 387.31 195 c 0
 387.31 314 323.31 379 247.31 379 c 0xdc
EndSplineSet
Substitution2: "'smcp' Lowercase to Small Capitals lookup 2-1" p.sc
EndChar

StartChar: q
Encoding: 113 113 80
Width: 497
Flags: W
HStem: -227 29<278.404 343.29 431.71 496.596> -7 60<194.146 287.669> 402 36<206.474 316.856>
VStem: 39 84<129.217 289.501> 349 77<-191.581 50.178 68.9193 376.812>
LayerCount: 2
Fore
SplineSet
256 402 m 0
 162 402 123 296 123 235 c 0
 123 117 186 53 269 53 c 0
 309 53 349 78 349 93 c 2
 349 332 l 2
 349 375 300 402 256 402 c 0
286 438 m 0
 316 438 372 413 405 413 c 0
 411 413 419 414 425 416 c 1
 431 416 438 399 438 394 c 1
 429 374 426 340 426 320 c 2
 426 -108 l 2
 426 -138 426 -166 431 -182 c 0
 434 -193 482 -198 494 -198 c 1
 498 -203 499 -222 494 -227 c 1
 453 -225 426 -222 387 -222 c 0
 348 -222 322 -225 281 -227 c 1
 276 -222 277 -203 281 -198 c 1
 293 -198 341 -193 344 -182 c 0
 349 -166 349 -138 349 -108 c 2
 349 40 l 2
 349 45 347 54 342 50 c 0
 327 37 260 -7 217 -7 c 0
 102 -7 39 110 39 199 c 0
 39 336 179 438 286 438 c 0
EndSplineSet
Substitution2: "'smcp' Lowercase to Small Capitals lookup 2-1" q.sc
EndChar

StartChar: r
Encoding: 114 114 81
Width: 383
Flags: W
HStem: -3 29<33.7133 98.5994 187.167 274.906> 360 77<252.358 312.934> 372 26<32.4908 93.7581>
VStem: 104.31 77<33.7634 321.777 329.94 365.708>
LayerCount: 2
Fore
SplineSet
303.31 437 m 0xd0
 329.31 437 355.31 424 364.31 408 c 1
 366.31 402 368.31 392 368.31 381 c 0
 368.31 344 345.31 329 335.31 329 c 0
 321.31 329 309.31 341 298.31 348 c 0
 289.31 354 279.31 360 261.31 360 c 0xd0
 218.31 360 181.31 293 181.31 270 c 2
 181.31 116 l 2
 181.31 86 181.31 58 186.31 42 c 0
 189.31 31 260.31 26 272.31 26 c 1
 276.31 21 277.31 2 272.31 -3 c 1
 231.31 -1 187.31 2 148.31 2 c 0
 109.31 2 77.3096 -1 36.3096 -3 c 1
 31.3096 2 32.3096 21 36.3096 26 c 1
 48.3096 26 96.3096 31 99.3096 42 c 0
 104.31 58 104 86 104.31 116 c 2
 104.309570312 302 l 2
 104.309570312 315 104.309570312 342 99.3095703125 354 c 0
 92.3095703125 371 41.3095703125 372 34.3095703125 372 c 1
 32.3095703125 374 30.3095703125 393 34.3095703125 398 c 1xb0
 85.3095703125 405 137.309570312 419 177.309570312 440 c 1
 182.309570312 440 188.309570312 429 188.309570312 424 c 1
 187.309570312 417 181.31 343 181.31 332 c 0
 181.31 328 184.721 328.714 185.31 330 c 0
 205 373 258.31 437 303.31 437 c 0xd0
EndSplineSet
Substitution2: "'smcp' Lowercase to Small Capitals lookup 2-1" r.sc
EndChar

StartChar: s
Encoding: 115 115 82
Width: 369
Flags: W
HStem: -11 32<127.723 223.223> 406 31<147.772 235.89>
VStem: 41 27<85.9752 117.421> 50 77<291.129 381.207> 248 81<55.287 144.678> 282 27<309.164 347.416>
LayerCount: 2
Fore
SplineSet
195 437 m 0xd8
 234 437 253 429 297 424 c 1
 304 393 308 350 309 314 c 0
 309 310 304 309 299 309 c 0
 294 309 287 310 282 314 c 1
 272 351 241 406 198 406 c 0
 150 406 127 379 127 343 c 0xd4
 127 291 169 276 214 249 c 0
 259 222 329 190 329 127 c 0
 329 46 256 -11 175 -11 c 0
 129 -11 102 0 58 8 c 1
 50 29 41 86 41 112 c 1
 45 115 54 118 59 118 c 0
 62 118 65 118 68 116 c 1xe8
 80 74 123 21 176 21 c 0
 217 21 248 47 248 93 c 0
 248 154 184 174 126 208 c 0
 86 231 50 262 50 315 c 0
 50 389 121 437 195 437 c 0xd8
EndSplineSet
Substitution2: "'smcp' Lowercase to Small Capitals lookup 2-1" s.sc
EndChar

StartChar: t
Encoding: 116 116 83
Width: 311
Flags: W
HStem: -7 54<176.456 252.292> 391 41<27.9629 83 160 292.375>
VStem: 83 77<62.1149 391 432 519.684>
LayerCount: 2
Fore
SplineSet
160 432 m 1
 289 432 l 2
 294 432 294 427 294 421 c 0
 294 412 289 400 280 391 c 1
 160 391 l 1
 160 129 l 2
 160 76 182 47 226 47 c 0
 256 47 284 65 291 70 c 1
 293 69 294 66 294 63 c 0
 294 57 291 49 290 48 c 0
 276 32 236 -7 187 -7 c 0
 136 -7 83 15 83 101 c 2
 83 391 l 1
 25 391 l 2
 22 391 20 397 20 400 c 0
 20 404 45 431 46 432 c 1
 62 432 72 432 83 432 c 1
 83 443 83 487 83 495 c 1
 102 517 142 559 144 562 c 1
 149 567 160 567 160 563 c 2
 160 432 l 1
EndSplineSet
Substitution2: "'smcp' Lowercase to Small Capitals lookup 2-1" t.sc
EndChar

StartChar: u
Encoding: 117 117 84
Width: 515
Flags: W
HStem: -7 56<195.596 285.924> 20 27<437.359 495.219> 394 26<14.4375 66.0595 283.438 335.06> 420 20G<135.639 156.139 404.639 425.139>
VStem: 80.6387 77.0003<92.1211 386.167> 349.639 77<73.0835 386.167>
LayerCount: 2
Fore
SplineSet
349.638671875 320 m 2x9c
 349.638671875 333 349.638671875 359 341.638671875 374 c 0
 331.638671875 392 298.638671875 394 285.638671875 394 c 1
 282.638671875 397 281.638671875 415 285.638671875 420 c 1xac
 336.638671875 422 386.638671875 429 422.638671875 440 c 1
 427.638671875 440 433.639 421 433.639 416 c 1
 429.639 408 426.639 380 426.639 351 c 2
 426.639 305 l 0
 426.639 141 l 2
 426.639 130 427.639 93 433.639 65 c 0
 438.639 46 489.639 48 492.639 47 c 0
 494.639 46 495.639 39 495.639 36 c 0
 495.639 34 492.639 20 487.639 20 c 0x5c
 435.639 17 358.639 -8 357.639 -8 c 0
 352.639 -8 349.639 1 349.639 8 c 2
 349.639 54 l 2
 349.639 59 347.639 59 347.639 59 c 1
 319.639 29 256.639 -7 205.639 -7 c 0
 99.6387 -7 81 108 80.6387 192 c 2
 80.638671875 320 l 2
 80.638671875 333 80.638671875 359 72.638671875 374 c 0
 62.638671875 392 29.638671875 394 16.638671875 394 c 1
 13.638671875 397 12.638671875 415 16.638671875 420 c 1xac
 67.638671875 422 117.638671875 429 153.638671875 440 c 1
 158.638671875 440 164.638671875 425 164.638671875 420 c 1
 160.638671875 412 157.639 380 157.639 351 c 2
 157.639 308 l 0
 157.639 204 l 2
 157.639 98 187.639 49 257.639 49 c 0
 301.639 49 350 80 349.639 104 c 2
 349.638671875 320 l 2x9c
EndSplineSet
Substitution2: "'smcp' Lowercase to Small Capitals lookup 2-1" u.sc
EndChar

StartChar: v
Encoding: 118 118 85
Width: 473
Flags: W
HStem: -11 21G<227.31 232.31> 401 29<0.617675 53.2605 149.783 202.197 294.498 347.371 422.467 471.957>
LayerCount: 2
Fore
SplineSet
102.31 425 m 0
 140.31 425 162.31 428 202.31 430 c 1
 204.31 424 203.31 401 198.31 401 c 1
 191.31 401 149.31 399 149.31 384 c 0
 149.31 383 149.31 382 150.31 380 c 0
 260.31 110 l 1
 260.31 110 311.31 243 349.31 337 c 0
 354.31 349 355.31 362 355.31 369 c 0
 355.31 389 331.31 401 297.31 401 c 1
 292.31 401 292.31 425 297.31 430 c 1
 328.31 428 337.31 425 378.31 425 c 0
 416.31 425 431.31 428 471.31 430 c 1
 475.31 424 472.31 401 468.31 401 c 1
 460.31 401 417.31 395 405.31 367 c 0
 346.31 226 313.31 148 255.31 6 c 0
 252.31 -2 235.31 -11 229.31 -11 c 0
 225.31 -11 221.31 -9 220.31 -7 c 0
 155.31 147 112.31 268 57.3096 381 c 0
 47.3096 402 14.3096 401 2.30957 401 c 1
 0.30957 406 -1.69043 420 2.30957 430 c 1
 43.3096 428 61.3096 425 102.31 425 c 0
EndSplineSet
Substitution2: "'smcp' Lowercase to Small Capitals lookup 2-1" v.sc
EndChar

StartChar: w
Encoding: 119 119 86
Width: 721
Flags: W
HStem: -11 21G<225.25 232.75 480.25 486.25> 401 29<0.494385 51.1544 152.036 201.966 267.324 310.307 419.603 466.557 538.479 593.604 668.728 720.507>
VStem: 338.25 76<305.432 379.109>
LayerCount: 2
Fore
SplineSet
101.25 425 m 0
 139.25 425 161.25 428 201.25 430 c 1
 203.25 424 203.25 403 199.25 401 c 1
 191.25 401 149.25 399 149.25 378 c 0
 149.25 376.53 150.882 371.53 154.12 363 c 0
 166.294 330.922 201.163 248.922 257.25 117 c 1
 308.25 246 338.25 318 338.25 327 c 0
 338.25 334 327.25 363 314.25 382 c 0
 303.25 398 282.25 401 270.25 401 c 1
 265.25 404 265.25 425 270.25 430 c 1
 311.25 428 320.25 425 361.25 425 c 0
 399.25 425 425.25 428 465.25 430 c 1
 467.25 424 468.25 405 464.25 401 c 1
 433.25 401 414.25 393 414.25 369 c 0
 414.25 366 415.013 363.264 416.584 358 c 0
 424.53 331.376 453.145 261.938 508.25 120 c 1
 547.473 217.272 581 302 595.617 344 c 0
 599.574 355.369 601.25 363.689 601.25 368 c 0
 601.25 397 564.25 399 541.25 401 c 1
 537.25 404 536.25 425 541.25 430 c 1
 582.25 428 587.25 425 628.25 425 c 0
 666.25 425 680.25 428 720.25 430 c 1
 721.25 427 723.25 406 717.25 401 c 1
 709.25 401 661.25 395 649.25 365 c 0
 594.25 226 562.25 145 504.25 6 c 0
 501.25 -2 489.25 -11 483.25 -11 c 0
 477.25 -11 472.25 -9 471.25 -7 c 2
 360.25 282 l 1
 252.25 8 l 2
 251.25 5 238.25 -11 227.25 -11 c 0
 223.25 -11 219.25 -9 218.25 -7 c 0
 156.25 148 122.25 230 56.25 379 c 0
 47.25 400 14.25 401 2.25 401 c 1
 -0.75 407 -0.75 424 2.25 430 c 1
 43.25 428 60.25 425 101.25 425 c 0
EndSplineSet
Substitution2: "'smcp' Lowercase to Small Capitals lookup 2-1" w.sc
EndChar

StartChar: x
Encoding: 120 120 87
Width: 476
Flags: W
HStem: -3 29<10.9231 76.3115 148.227 202.165 260.674 304.091 413.065 468.815> 401 29<22.32 82.2592 182.313 224.675 266.501 322.799 380.283 449.041>
LayerCount: 2
Fore
SplineSet
123.04 425 m 0
 164.04 425 202 428 224.04 430 c 1
 225.04 426 227 407 222.04 401 c 1
 206.04 401 182.04 399 182.04 384 c 0
 182.04 381 184.04 377 187.04 372 c 2
 253.04 267 l 1
 280.041 309 324.041 362 324.041 382 c 0
 324.041 402 274 400 268.041 401 c 1
 266.041 402 265.041 426 268.041 430 c 1
 309.041 428 328.041 425 369.041 425 c 0
 405.041 425 435 428 449.041 430 c 1
 450.041 425 450.041 401 448.041 401 c 1
 429 400 384.041 396 371.041 379 c 0
 335.041 329 280.041 251 271.041 240 c 1
 281.041 225 391.041 62 391.041 62 c 2
 411.041 33 439.041 26 468.041 26 c 1
 470.041 26 470.041 1 467.041 -3 c 1
 430.041 -1 410.041 2 373.041 2 c 0
 330.041 2 305.041 -1 262.041 -3 c 1
 259.041 4 260.041 26 263.041 26 c 1
 277.041 27 305.041 32 305.041 44 c 0
 305.041 46 304.041 48 303.041 50 c 2
 303.041 50 251.04 135 224.04 175 c 1
 205.04 146 180.04 111 152.04 67 c 0
 147.04 59 146.04 53 146.04 48 c 0
 146.04 29 178.04 28 201.04 26 c 1
 203.04 26 204.04 2 200.04 -3 c 1
 161.04 -1 144.04 2 105.04 2 c 0
 67.04 2 49.04 -1 11.04 -3 c 1
 9.04004 5 10.04 21 13.04 26 c 1
 45.04 31 85.04 34 108.04 65 c 2
 108.04 65 201.04 199 206.04 206 c 1
 198.04 218 90.04 379 90.04 379 c 2
 78.7529 395.834 43.04 401 23.04 401 c 1
 21.04 401 21 424 24.04 430 c 1
 57 427 84.04 425 123.04 425 c 0
EndSplineSet
Substitution2: "'smcp' Lowercase to Small Capitals lookup 2-1" x.sc
EndChar

StartChar: y
Encoding: 121 121 88
Width: 469
Flags: W
HStem: -228 72<44.1873 134.001> 401 29<0.247559 52.4509 148.973 201.387 289.688 342.561 417.657 467.147>
LayerCount: 2
Fore
SplineSet
101.5 425 m 0
 139.5 425 184.5 428 201.5 430 c 1
 203.5 424 202.5 401 197.5 401 c 1
 190.5 401 148.5 399 148.5 384 c 0
 148.5 383 148.5 382 149.5 380 c 0
 255.5 110 l 1
 255.5 110 306.5 243 344.5 337 c 0
 349.5 349 350.5 362 350.5 369 c 0
 350.5 389 326.5 401 292.5 401 c 1
 287.5 401 287.5 425 292.5 430 c 1
 307.5 428 341.5 425 382.5 425 c 0
 420.5 425 446.5 428 466.5 430 c 1
 470.5 424 467.5 401 463.5 401 c 1
 455.5 401 412.5 395 400.5 367 c 0
 341.5 226 308.5 148 250.5 6 c 0
 225.5 -55 207.139 -118.577 171 -172 c 0
 148 -206 117 -228 84 -228 c 0
 65 -228 40.5 -221 40.5 -185 c 0
 40.5 -173 47.5 -162 52.5 -156 c 1
 99.5 -156 125 -153 165.5 -99 c 0
 181.249 -78.001 210.5 -9 213.5 2 c 1
 157.5 145 115.5 253 56.5 381 c 0
 46.5 402 13.5 401 1.5 401 c 1
 -0.5 401 -0.5 428 1.5 430 c 1
 20.5 428 60.5 425 101.5 425 c 0
EndSplineSet
Substitution2: "'smcp' Lowercase to Small Capitals lookup 2-1" y.sc
EndChar

StartChar: z
Encoding: 122 122 89
Width: 447
Flags: W
HStem: 0 35<136 334.447> 397 34<106.374 290.509> 419 20G<57.5 148 377.5 400.5>
VStem: 386 33<89.5612 128.954>
LayerCount: 2
Fore
SplineSet
148 431 m 2xd0
 276 431 l 2xd0
 330 431 357 434 398 439 c 1xb0
 403 431 401 420 401 415 c 1
 401 415 136 38 136 35 c 1
 276 35 l 2
 337 35 374 82 386 125 c 0
 387 130 389 131 393 131 c 0
 401 131 414 125 419 119 c 1
 419 119 389 46 374 0 c 1
 316 0 180 0 49 0 c 1
 42 2 34 12 34 20 c 0
 34 21 34 26 35 27 c 2
 292 396 l 1
 152 397 l 2xd0
 95 397 84 345 76 327 c 0
 74 323 64 318 54 318 c 0
 48 318 43 319 43 321 c 1
 47 336 56 386 59 439 c 1xb0
 59 439 112 431 148 431 c 2xd0
EndSplineSet
Substitution2: "'smcp' Lowercase to Small Capitals lookup 2-1" z.sc
EndChar

StartChar: braceleft
Encoding: 123 123 90
Width: 222
Flags: W
VStem: 58.25 44<-56.6142 70.4159 505.584 632.614> 104.25 46<119.735 242.755 333.245 456.265>
LayerCount: 2
Fore
SplineSet
104.25 383 m 0
 104.25 409 92.25 433 81.25 458 c 0
 69.25 484 58.25 510 58.25 541 c 0
 58.25 638 122.25 703 165.25 720 c 1
 173.25 720 181.25 710 181.25 701 c 1
 154.25 688 102.25 640 102.25 589 c 0
 102.25 551 115.25 526 127.25 498 c 0
 139.25 473 150.25 445 150.25 405 c 0
 150.25 340 103.25 298 77.25 288 c 1
 103.25 278 150.25 236 150.25 171 c 0
 150.25 131 139.25 103 127.25 78 c 0
 115.25 50 102.25 25 102.25 -13 c 0
 102.25 -64 154.25 -112 181.25 -125 c 1
 181.25 -134 173.25 -144 165.25 -144 c 1
 122.25 -127 58.25 -62 58.25 35 c 0
 58.25 66 69.25 92 81.25 118 c 0
 92.25 143 104.25 167 104.25 193 c 0
 104.25 246 67.25 267 28.25 277 c 1
 26.75 279.5 26 283.75 26 288 c 0
 26 292.25 26.75 296.5 28.25 299 c 1
 67.25 309 104.25 330 104.25 383 c 0
EndSplineSet
Substitution2: "'smcp' Lowercase to Small Capitals lookup 2-1" braceleft.sc
EndChar

StartChar: bar
Encoding: 124 124 91
Width: 205
Flags: W
VStem: 77.2646 51.0004<-117.404 764.903>
LayerCount: 2
Fore
SplineSet
128.265 -106 m 2
 128.265 -114 84.2646 -123 82.2646 -123 c 0
 75.2646 -123 77.2646 -119 77.2646 -115 c 2
 77.2646 757 l 1
 77.2646 757 76.2646 763 82.2646 765 c 0
 99.2646 770 116.265 772 119.265 772 c 0
 128.265 772 127.265 766 127.265 766 c 1
 128.265 -106 l 2
EndSplineSet
Substitution2: "'smcp' Lowercase to Small Capitals lookup 2-1" bar.sc
EndChar

StartChar: braceright
Encoding: 125 125 92
Width: 223
Flags: W
VStem: 72 46<119.735 242.755 333.245 456.265> 120 44<-56.6142 70.4159 505.584 632.614>
LayerCount: 2
Fore
SplineSet
57 720 m 1
 100 703 164 638 164 541 c 0
 164 510 153 484 141 458 c 0
 130 433 118 409 118 383 c 0
 118 330 155 309 194 299 c 1
 195.382 296.696 196 292 196 288 c 0
 196 283.426 195.618 279.696 194 277 c 1
 155 267 118 246 118 193 c 0
 118 167 130 143 141 118 c 0
 153 92 164 66 164 35 c 0
 164 -62 100 -127 57 -144 c 1
 49 -144 41 -134 41 -125 c 1
 68 -112 120 -64 120 -13 c 0
 120 25 107 50 95 78 c 0
 83 103 72 131 72 171 c 0
 72 236 119 278 145 288 c 1
 119 298 72 340 72 405 c 0
 72 445 83 473 95 498 c 0
 107 526 120 551 120 589 c 0
 120 640 68 688 41 701 c 1
 41 710 49 720 57 720 c 1
EndSplineSet
Substitution2: "'smcp' Lowercase to Small Capitals lookup 2-1" braceright.sc
EndChar

StartChar: asciitilde
Encoding: 126 126 93
Width: 570
Flags: W
HStem: 250 51<314.795 473.297> 303 51<106.163 260.768>
LayerCount: 2
Fore
SplineSet
271 277 m 0
 236 290 201 303 156 303 c 0
 117 303 89 281 65 259 c 1
 59 262 56 268 56 276 c 0
 56 313 133 354 186 354 c 0
 233 354 269 340 305 327 c 0
 340 314 375 301 422 301 c 0
 461 301 483 322 512 345 c 1
 518 342 521 336 521 328 c 0
 521 295 455 250 393 250 c 0
 344 250 308 263 271 277 c 0
EndSplineSet
Substitution2: "'smcp' Lowercase to Small Capitals lookup 2-1" asciitilde.sc
EndChar

StartChar: exclamdown
Encoding: 161 161 95
Width: 215
Flags: W
HStem: 320 110<64.4629 150.77>
VStem: 53 110<331.463 417.77> 59 94<-213.2 91.9102>
LayerCount: 2
Fore
SplineSet
53 374 m 0xc0
 53 404 77 430 107 430 c 0
 137 430 163 404 163 374 c 0
 163 344 137 320 107 320 c 0
 77 320 53 344 53 374 c 0xc0
103 -223 m 0
 72 -223 59 -191 59 -165 c 0
 59 -137 72 -3 93 247 c 1
 97 255 100 259 109 260 c 1
 114 258 120 255 123 249 c 1
 137 88 153 -114 153 -165 c 0xa0
 153 -193 135 -223 103 -223 c 0
EndSplineSet
Substitution2: "'smcp' Lowercase to Small Capitals lookup 2-1" exclamdown.sc
EndChar

StartChar: cent
Encoding: 162 162 96
Width: 446
Flags: W
HStem: -8 66<197.945 327.563> 394 44<199.28 296.075>
VStem: 45 78<132.251 288.818> 189 28<-43.416 -0.869301> 272 28<427.956 470.975>
LayerCount: 2
Fore
SplineSet
272 472 m 17
 280 472 300 473 300 466 c 1
 217 -45 l 1
 208 -45 189 -45 189 -38 c 9
 272 472 l 17
EndSplineSet
Refer: 66 99 N 1 0 0 1 6 0 2
EndChar

StartChar: sterling
Encoding: 163 163 97
Width: 477
UnlinkRmOvrlpSave: 1
Flags: W
HStem: -8 66<237.736 360.199> 49 56<99.375 178.889> 306 36<67.469 378.738> 590 46<236.671 331.5>
VStem: 125 77<344.61 509.144> 148 75<188.868 347.673> 427 13<127.679 134.817>
LayerCount: 2
Fore
SplineSet
314 636 m 0x7a
 349 636 362 628 386 612 c 1
 390 608 396 594 396 584 c 0
 396 548 375 536 358 536 c 1
 336 536 320 559 305 573 c 0
 290 587 283 590 270 590 c 0
 218 590 202 528 202 459 c 0x7a
 202 385 223 328 223 272 c 0
 223 197 159 120 134 97 c 1
 148 104 158 105 169 105 c 0x76
 224 105 238 58 327 58 c 0
 382 58 418 121 427 139 c 1
 428 139 440 131 440 123 c 0
 440 119 439 114 437 108 c 0
 426 76 369 -8 291 -8 c 0xb6
 206 -8 168 49 116 49 c 0
 85 49 77 10 60 -6 c 1
 52 -6 44 7 44 16 c 0
 44 45 79 79 94 94 c 0
 122 122 148 182 148 231 c 0x76
 148 252 126 367 125 399 c 0
 121 535 220 636 314 636 c 0x7a
78 342 m 1
 94 342 370 342 381 342 c 1
 395 331 378 310 372 306 c 1
 55 306 l 17
 49 312 69 342 78 342 c 1
EndSplineSet
EndChar

StartChar: currency
Encoding: 164 164 98
Width: 574
Flags: W
HStem: 120 32<245.525 340.572> 463 33<230.384 325.636>
VStem: 102 73<224.803 397.542> 395 72<218.015 391.134>
LayerCount: 2
Fore
SplineSet
294 152 m 0
 355 152 395 219 395 294 c 0
 395 386 340 463 277 463 c 0
 216 463 175 394 175 319 c 0
 175 227 231 152 294 152 c 0
398 455 m 1
 457 510 l 2
 465 518 491 490 498 466 c 1
 438 410 l 1
 456 380 467 344 467 307 c 0
 467 267 455 230 434 199 c 1
 488 141 l 2
 496 133 468 107 444 100 c 1
 392 155 l 1
 362 133 326 120 286 120 c 0
 243 120 203 135 172 160 c 1
 119 110 l 2
 111 102 85 130 78 154 c 1
 132 205 l 1
 113 235 102 270 102 307 c 0
 102 351 116 391 140 423 c 1
 88 479 l 2
 80 487 108 513 132 520 c 1
 184 465 l 1
 213 485 248 496 286 496 c 0
 329 496 367 481 398 455 c 1
EndSplineSet
EndChar

StartChar: yen
Encoding: 165 165 99
Width: 672
UnlinkRmOvrlpSave: 1
Flags: W
HStem: -3 29<224.154 295.002 393.498 464.346> 138 37<213.43 481.681> 218 37<213.43 481.681> 611 29<26.9375 82.4514 229.931 283.911 429.478 496.136 580.972 643.225>
VStem: 300.75 87<32.7426 298.855>
LayerCount: 2
Fore
SplineSet
222.75 175 m 1
 238.75 175 473.75 175 484.75 175 c 1
 498.75 164 480.75 142 474.75 138 c 1
 202.75 138 l 17
 196.75 144 213.75 175 222.75 175 c 1
222.75 255 m 1
 238.75 255 473.75 255 484.75 255 c 1
 498.75 244 480.75 222 474.75 218 c 1
 202.75 218 l 17
 196.75 224 213.75 255 222.75 255 c 1
300.75 116 m 2
 300.75 245 l 0
 300.75 252 299 263 293.75 273 c 16
 235.75 378 210.75 420 151.75 526 c 0
 130.75 563 113.75 579 85.75 595 c 0
 68.75 605 41.75 611 29.75 611 c 0
 24.75 611 24.75 635 29.75 640 c 1
 78.75 638 105.75 635 154.75 635 c 0
 203.75 635 242.75 638 282.75 640 c 1
 284.75 634 285.75 611 280.75 611 c 0
 266.75 611 220.75 605 220.75 579 c 0
 220.75 571 225 562 232.75 549 c 2
 372 311 l 1
 421 399 490 536 503.75 570 c 0
 504.936 572.932 506.75 579 506.75 585 c 0
 506.75 591 487.75 610 431.75 610 c 1
 428.75 610 427.75 636 429.75 639 c 1
 466.75 637 495.75 634 532.75 634 c 0
 584.75 634 602.75 637 642.75 639 c 1
 645 633 643.75 610 640.75 610 c 1
 632.75 610 574.75 610 551.75 570 c 0
 513.75 503 436.75 359 393.75 279 c 8
 388 268 388.75 257 388.75 248 c 0
 388.75 188 387.75 116 387.75 116 c 2
 387.75 86 387.75 58 392.75 42 c 0
 395.75 31 449.75 26 461.75 26 c 1
 465.75 21 466.75 2 461.75 -3 c 1
 420.75 -1 383.75 2 344.75 2 c 0
 305.75 2 267.75 -1 226.75 -3 c 1
 221.75 2 222.75 21 226.75 26 c 1
 238.75 26 292.75 31 295.75 42 c 0
 300.75 58 300.75 86 300.75 116 c 2
EndSplineSet
EndChar

StartChar: brokenbar
Encoding: 166 166 100
Width: 214
Flags: W
VStem: 82.2646 51.0004<-118.458 256.903 389.542 764.903>
LayerCount: 2
Fore
SplineSet
133.265 400 m 2
 133 392 89.2646 385 87.2646 385 c 0
 80.2646 385 82.2646 389 82.2646 393 c 2
 82.2646 757 l 1
 82.2646 757 81.2646 763 87.2646 765 c 0
 104.265 770 122.265 770 125.265 770 c 0
 134.265 770 133.265 764 133.265 764 c 1
 133.265 400 l 2
82.2646 -115 m 2
 82.2646 249 l 1
 82.2646 249 81.2646 255 87.2646 257 c 0
 104.265 262 122.265 262 125.265 262 c 0
 134.265 262 133.265 256 133.265 256 c 1
 133.265 -108 l 2
 133 -116 89.2646 -123 87.2646 -123 c 0
 80.2646 -123 82.2646 -119 82.2646 -115 c 2
EndSplineSet
EndChar

StartChar: section
Encoding: 167 167 101
Width: 441
UnlinkRmOvrlpSave: 1
Flags: W
HStem: -78 50<112.723 238.609> 603 50<203.391 329.277>
VStem: 38 54<353.266 469.951> 120 46<493.45 550.473> 276 46<24.5271 81.55> 350 54<105.049 221.734>
LayerCount: 2
Fore
SplineSet
304 653 m 0
 192 653 120 587 120 507 c 0
 120 435 190 379 238 335 c 0
 292 285 350 218 350 135 c 0
 350 91 332 71 310 33 c 0
 310 33 286 14 276 -3 c 24
 270 -14 272 -23 270 -35 c 17
 308 -9 404 105 404 179 c 0
 404 265 340 335 288 383 c 0
 241 426 166 503 166 549 c 0
 166 587 216 603 247 603 c 0
 262 603 271 599 279 595 c 0
 289 590 298 583 315 583 c 0
 331 583 351 605 351 619 c 0
 351 625 350 635 345 645 c 1
 331 651 318 653 304 653 c 0
138 -78 m 0
 250 -78 322 -12 322 68 c 0
 322 140 252 196 204 240 c 0
 150 290 92 357 92 440 c 0
 92 484 110 504 132 542 c 0
 132 542 156 561 166 578 c 24
 172 589 170 598 172 610 c 17
 134 584 38 470 38 396 c 0
 38 310 102 240 154 192 c 0
 201 149 276 72 276 26 c 0
 276 -12 226 -28 195 -28 c 0
 180 -28 171 -24 163 -20 c 0
 153 -15 144 -8 127 -8 c 0
 111 -8 91 -30 91 -44 c 0
 91 -50 92 -60 97 -70 c 1
 111 -76 124 -78 138 -78 c 0
EndSplineSet
EndChar

StartChar: copyright
Encoding: 169 169 103
Width: 659
Flags: W
HStem: 69 31<247.455 411.652> 195 32<296.319 416.675> 449 34<289.437 404.899> 584 31<247.455 411.652>
VStem: 56 33<256.704 427.296> 187 57<271.691 409.392> 572 31<259.894 424.106>
LayerCount: 2
Fore
SplineSet
456 276 m 1
 456 273 443 217 436 214 c 0
 404 201 372 195 330 195 c 0
 249 195 187 257 187 336 c 0
 187 416 245 483 328 483 c 0
 358 483 406 477 440 464 c 1
 440 464 456 407 456 403 c 0
 456 398 447 394 440 394 c 0
 437 394 435 395 433 396 c 1
 430 409 411 449 340 449 c 0
 286 449 244 400 244 345 c 0
 244 264 303 227 349 227 c 0
 379 227 408 234 421 246 c 0
 433 257 434 279 436 279 c 0
 439 279 455 278 456 276 c 1
89 342 m 0
 89 209 197 100 330 100 c 0
 463 100 572 209 572 342 c 0
 572 475 463 584 330 584 c 0
 197 584 89 475 89 342 c 0
56 342 m 0
 56 493 178 615 329 615 c 0
 480 615 603 493 603 342 c 0
 603 191 480 69 329 69 c 0
 178 69 56 191 56 342 c 0
EndSplineSet
EndChar

StartChar: ordfeminine
Encoding: 170 170 104
Width: 345
Flags: W
HStem: 249 37<115.046 173.137 245 294.603> 526 30<126.074 190.272>
VStem: 47 57<293.972 374.217> 57 56<455.248 499.854> 211 53<299.663 405 422.392 513.145>
LayerCount: 2
Fore
SplineSet
151 286 m 0xe8
 175 286 211 313 211 320 c 2
 211 405 l 17
 192 399 159 390 147 385 c 0
 122 375 104 361 104 335 c 0
 104 309 125 286 151 286 c 0xe8
188 556 m 0
 227 556 264 515 264 462 c 2
 264 319 l 2
 264 300 269 286 285 286 c 0
 297 286 306 294 308 295 c 1
 310 295 311 292 311 290 c 0
 311 286 309 280 307 277 c 1
 299 269 270 250 255 250 c 0
 235 250 217 274 213 295 c 1
 205 287 152 249 128 249 c 0
 82 249 47 284 47 329 c 0xe8
 47 357 67 378 82 384 c 0
 121 398 183 419 203 428 c 0
 210 431 211 433 211 445 c 2
 211 464 l 2
 211 495 190 526 152 526 c 0
 128 526 118 514 113 487 c 0
 109 463 98 454 81 454 c 0
 66 454 57 469 57 483 c 0xd8
 57 486 59 497 62 500 c 1
 83 520 137 556 188 556 c 0
EndSplineSet
EndChar

StartChar: guillemotleft
Encoding: 171 171 105
Width: 482
Flags: W
LayerCount: 2
Fore
SplineSet
207 246 m 0
 207 256 208 255 212 264 c 1
 343 343 420 422 421 423 c 1
 437 418 441 414 443 411 c 1
 437 390 341 288 295 247 c 1
 341 206 437 104 443 83 c 1
 441 80 437 76 421 71 c 1
 420 72 343 151 212 230 c 1
 210 233 207 240 207 246 c 0
27 246 m 0
 27 256 28 255 32 264 c 1
 163 343 240 422 241 423 c 1
 257 418 261 414 263 411 c 1
 257 390 161 288 115 247 c 1
 161 206 257 104 263 83 c 1
 261 80 257 76 241 71 c 1
 240 72 163 151 32 230 c 1
 30 233 27 240 27 246 c 0
EndSplineSet
EndChar

StartChar: logicalnot
Encoding: 172 172 106
Width: 587
Flags: W
HStem: 364 56<48.988 456>
VStem: 456 60<159.121 364>
LayerCount: 2
Fore
SplineSet
516 420 m 17
 516 169 l 17
 515 168 489 154 469 154 c 0
 469 154 459 155 456 161 c 1
 456 183 456 285 456 364 c 9
 51 364 l 1
 51 364 45 364 45 374 c 1
 45 374 50 420 60 420 c 2
 516 420 l 17
EndSplineSet
EndChar

StartChar: registered
Encoding: 174 174 107
Width: 659
Flags: W
HStem: 133 32<247.455 411.652> 272.612 14.266<204.088 234.623 285.8 316.336 449.412 478.477> 402.612 18.111<283.61 313.902> 535.801 16.803<204.418 234.623 285.814 341.257> 648 32<247.455 411.652>
VStem: 56 33<321.65 492.235> 236.813 46.797<293.966 402.612 420.723 531.328> 365.43 47.912<431.522 526.474> 572 31<324.848 489.045>
LayerCount: 2
Fore
SplineSet
322.752 552.604 m 0
 361.239 552.604 413.342 527.65 413.342 479.434 c 0
 413.342 448.982 387.183 420.573 358 410 c 1
 380.416 372.78 402 344 429.915 310.254 c 0
 442.801 294.676 454.446 288.569 477.709 286.878 c 1
 479.822 284.763 477.709 273.458 477.285 272.612 c 1
 448.947 272.612 417.915 274.728 409.455 277.688 c 0
 403.535 279.803 392.114 283.186 381.964 296.297 c 0
 375.62 304.757 338.36 356.087 311.715 397.537 c 0
 309.178 401.343 304.948 402.612 299.026 402.612 c 0
 299.026 402.612 287.417 402.612 283.61 402.612 c 1
 283.61 324.942 l 1
 283.61 312.254 283.61 300.412 285.725 293.645 c 0
 286.994 288.993 309.833 286.878 314.908 286.878 c 1
 316.6 284.763 317.023 274.728 314.908 272.612 c 1
 297.567 273.458 277.918 274.728 261.423 274.728 c 0
 244.929 274.728 222.856 273.458 205.516 272.612 c 1
 203.4 274.728 203.824 284.763 205.516 286.878 c 1
 210.591 286.878 233.43 288.993 234.698 293.645 c 0
 236.813 300.412 237 312 236.813 324.942 c 2
 236.813 501.543 l 2
 237 514 236.813 526.074 234.698 532.841 c 0
 233.43 537.493 210.591 539.607 205.516 539.607 c 1
 203.824 541.723 203.4 551.758 205.516 553.873 c 1
 222.856 553.028 246.197 551.758 262.692 551.758 c 0
 279.188 551.758 297.797 552.604 322.752 552.604 c 0
365.43 469.283 m 0
 365.43 506.926 353.819 535.801 306.873 535.801 c 0
 301.797 535.801 287.417 535.379 285.725 531.572 c 0
 283.61 526.497 284 513 283.61 499.851 c 2
 283.61 420.723 l 1
 283.61 420.723 295 421 302.449 420.723 c 16
 338.4 420.723 365.43 436.717 365.43 469.283 c 0
89 407 m 0
 89 274 197 165 330 165 c 0
 463 165 572 274 572 407 c 0
 572 540 463 648 330 648 c 0
 197 648 89 540 89 407 c 0
56 407 m 0
 56 558 178 680 329 680 c 0
 480 680 603 558 603 407 c 0
 603 256 480 133 329 133 c 0
 178 133 56 256 56 407 c 0
EndSplineSet
EndChar

StartChar: degree
Encoding: 176 176 109
Width: 274
Flags: W
HStem: 437 37<93.8121 179.842> 597 37<93.8121 179.842>
VStem: 38 37<492.812 578.842> 198 37<492.812 578.842>
LayerCount: 2
Fore
SplineSet
75 536 m 0
 75 502 103 474 137 474 c 0
 171 474 198 502 198 536 c 0
 198 570 171 597 137 597 c 0
 103 597 75 570 75 536 c 0
38 536 m 0
 38 590 83 634 137 634 c 0
 191 634 235 590 235 536 c 0
 235 482 191 437 137 437 c 0
 83 437 38 482 38 536 c 0
EndSplineSet
EndChar

StartChar: plusminus
Encoding: 177 177 110
Width: 548
Flags: W
HStem: 6 56<38.4861 510.076> 305 56<38.4861 245 301 510.076>
VStem: 245 56<94.125 305 361 567.966>
LayerCount: 2
Fore
SplineSet
49 62 m 1
 129.168 62 458 62 505 62 c 0
 509 62 514 58 514 50 c 0
 514 33.7207 506 14 498 6 c 1
 40 6 l 1
 40 6 34 6 34 16 c 0
 34 20 39 54 49 62 c 1
49 361 m 1
 245 361 l 9
 245 361 245 542 245 561 c 1
 261 567 281 572 288 572 c 0
 298 572 301 566 301 566 c 1
 301 361 l 25
 381 361 425 361 505 361 c 16
 509 361 514 357 514 349 c 0
 514 332.721 506 313 498 305 c 1
 301 305 l 25
 301 305 301 180 301 103 c 1
 289 94 268 92 258 92 c 0
 251 92 245 97 245 101 c 2
 245 305 l 25
 40 305 l 1
 40 305 34 305 34 315 c 0
 34 319 39 353 49 361 c 1
EndSplineSet
EndChar

StartChar: uni00B2
Encoding: 178 178 111
Width: 358
Flags: W
HStem: 254 55<121.312 283.312> 602 45<108.802 210.694>
VStem: 227.312 65<472.152 585.997>
LayerCount: 2
Fore
SplineSet
320.312 360 m 1
 309.312 331 297.312 287 283.312 254 c 1
 51.3135 254 l 1
 45.3135 254 37.3135 262 39.3135 266 c 1
 79.7432 309.998 138.556 363.188 179.6 418 c 0
 207.588 455.378 227.312 493.511 227.312 530 c 0
 227.312 572 203.312 602 161.312 602 c 0
 116.312 602 92.3135 575 74.3135 553 c 1
 70.3135 549 56.3135 565 57.3135 570 c 1
 80.3135 610 127.312 647 173.312 647 c 0
 243.312 647 292.312 603 292.312 540 c 0
 292.312 507 276.312 475 246.312 439 c 0
 219.312 407 169.312 358 121.312 309 c 1
 241.312 309 l 2
 282.312 309 295.312 353 301.312 363 c 0
 302.312 365 303.312 365 306.312 366 c 0
 309.312 366 317.312 364 320.312 360 c 1
EndSplineSet
EndChar

StartChar: uni00B3
Encoding: 179 179 112
Width: 318
Flags: W
HStem: 249 28<107.743 187.501> 607 39<102.602 180.209>
VStem: 193 56<513.694 596.981> 217 64<312.363 429.422>
LayerCount: 2
Fore
SplineSet
162 646 m 0xe0
 204 646 249 620 249 569 c 0xe0
 249 525 213 496 191 486 c 1
 217 486 281 452 281 386 c 0
 281 298 205 249 118 249 c 0
 96 249 61 255 51 264 c 1
 51 264 39 275 39 288 c 0
 39 308 54 321 70 321 c 0
 87 321 94 304 106 292 c 0
 116 282 130 277 145 277 c 0
 187 277 217 307 217 368 c 0xd0
 217 417 182 454 145 454 c 0
 127 454 110 447 105 446 c 1
 102.858 448.141 101.004 452.575 100.05 457 c 0
 99.2207 460.841 99.0703 464.677 100 467 c 1
 149 477 193 507 193 556 c 0
 193 582 168 607 142 607 c 0
 105 607 78 576 72 570 c 1
 67 572 62 585 63 586 c 1
 77 607 109 646 162 646 c 0xe0
EndSplineSet
EndChar

StartChar: uni00B5
Encoding: 181 181 114
Width: 541
Flags: W
HStem: -227 21G<126 137> -9 73<167.372 250.249 410.184 469.783> 417 20G<113 124 355 366>
VStem: 95 77<250.141 422.656> 95 43<108.623 298.513> 337 77<250.141 422.656>
LayerCount: 2
Fore
SplineSet
144 223 m 0xf4
 144 144 159 64 195 64 c 0
 262 64 312 155 337 227 c 1
 337 251 337 275 337 298 c 0
 337 311 338 379 337 417 c 1
 342 425 349 437 361 437 c 0
 371 437 414 413 414 400 c 0
 414 382 405 335 391 246 c 0
 389 236 381 195 381 195 c 1
 381 124 405 66 451 66 c 0
 477 66 495 87 502 96 c 1
 505 96 508 92 511 87 c 0
 513 83 514 79 514 76 c 0
 501 32 461 -4 421 -4 c 0
 373 -3 358 115 356 142 c 1
 326 72 271 -9 201 -9 c 0
 159 -9 143 71 138 101 c 1xec
 140 76 133 -89 155 -207 c 1
 150 -215 143 -227 131 -227 c 0
 121 -227 78 -203 78 -190 c 0
 78 -172 87 100 99 204 c 1
 99 228 95 275 95 298 c 0
 95 311 96 379 95 417 c 1
 100 425 107 437 119 437 c 0
 129 437 172 413 172 400 c 0
 172 382 168 335 149 246 c 0
 148 240 144 223 144 223 c 0xf4
EndSplineSet
EndChar

StartChar: paragraph
Encoding: 182 182 115
Width: 484
Flags: W
HStem: -4 27<156.918 214.942 372.084 432.289> 2 34<268.061 318.941> 288 40<265 321> 299 40<362 391.484> 611 37<265.286 321.805> 624 29<370.14 425.455>
VStem: 34 231<391.968 555.804> 226 39<42.7588 287> 322 40<42.7588 292 339 610.302>
LayerCount: 2
Fore
SplineSet
322 333 m 1x2980
 322 369 322 593 322 606 c 1
 318 610 303 611 293 611 c 0
 283 611 271 611 265 605 c 9
 265 605 265 430 265 328 c 1
 271 328 318 330 322 333 c 1x2980
321 292 m 17
 307 291 281 289 265 288 c 9
 265 221 265 183 265 116 c 16
 265 86 265 58 268 42 c 0
 269 35 289 36 293 36 c 0x6180
 300 36 318 36 319 42 c 0
 322 58 322 86 322 116 c 2
 321 292 l 17
361 299 m 1x1680
 361 228 361 187 361 116 c 16
 361 86 361 58 366 42 c 0
 369 31 419 23 431 23 c 1
 433 23 433 -2 431 -4 c 1x9680
 368 -2 360 2 297 2 c 0x4280
 251 2 198 -2 158 -4 c 1
 156 2 155 19 160 23 c 1
 168 23 218 31 221 42 c 0
 226 58 226 86 226 116 c 2
 226 287 l 17x8180
 98 287 34 399 34 469 c 0
 34 578 123 652 205 652 c 0
 264 652 243 648 302 648 c 0x8a80
 369 648 423 653 423 653 c 1
 428 648 427 627 422 624 c 1
 407 624 370 616 365 604 c 0
 363 597 362 591 362 540 c 0
 362 479 362 358 362 339 c 1
 367 338 411 352 411 352 c 1
 416 352 421 350 421 346 c 0
 420 336 399 312 392 309 c 0
 381 304 369 300 361 299 c 1x1680
EndSplineSet
EndChar

StartChar: periodcentered
Encoding: 183 183 116
Width: 224
Flags: W
HStem: 205 117<67.2549 156.745>
VStem: 54 116<217.764 309.619>
LayerCount: 2
Fore
SplineSet
54 264 m 0
 54 296 80 322 112 322 c 0
 144 322 170 296 170 264 c 0
 170 232 144 205 112 205 c 0
 80 205 54 232 54 264 c 0
EndSplineSet
EndChar

StartChar: uni00B9
Encoding: 185 185 118
Width: 292
Flags: W
HStem: 253 25<57.7773 115.633 207.768 258.819>
VStem: 123 74<293.746 568.147>
LayerCount: 2
Fore
SplineSet
123 518 m 2
 123 564 115 569 104 569 c 0
 92 569 68 560 48 553 c 1
 42 556 39 564 39 570 c 0
 39 573 40 577 42 578 c 0
 148 622 189 652 192 652 c 2
 194 652 l 2
 200 652 205 632 206 629 c 1
 206 629 197 587 197 548 c 2
 197 340 l 2
 197 320 198 309 205 293 c 0
 208 286 249 279 257 279 c 1
 260 279 260 257 257 253 c 1
 218 254 200 256 161 256 c 0
 122 256 100 254 61 253 c 1
 56 256 56 278 61 278 c 0
 73 278 114 285 117 292 c 0
 122 305 123 328 123 338 c 2
 123 518 l 2
EndSplineSet
EndChar

StartChar: ordmasculine
Encoding: 186 186 119
Width: 388
Flags: W
HStem: 247 24<163.771 239.041> 530 24<149.201 227.228>
VStem: 38 69<322.561 478.564> 281 69<323.778 480.457>
LayerCount: 2
Fore
SplineSet
187 530 m 0
 129 530 107 467 107 411 c 0
 107 345 138 271 204 271 c 0
 259 271 281 336 281 391 c 0
 281 456 252 530 187 530 c 0
196 554 m 0
 283 554 350 486 350 403 c 0
 350 320 283 247 196 247 c 0
 109 247 38 316 38 399 c 0
 38 484 107 554 196 554 c 0
EndSplineSet
EndChar

StartChar: guillemotright
Encoding: 187 187 120
Width: 482
Flags: W
LayerCount: 2
Fore
SplineSet
277 246 m 0
 277 240 274 233 272 230 c 1
 141 151 64 72 63 71 c 1
 47 76 43 80 41 83 c 1
 47 104 143 206 189 247 c 1
 143 288 47 390 41 411 c 1
 43 414 47 418 63 423 c 1
 64 422 141 343 272 264 c 1
 276 255 277 256 277 246 c 0
457 246 m 0
 457 240 454 233 452 230 c 1
 321 151 244 72 243 71 c 1
 227 76 223 80 221 83 c 1
 227 104 323 206 369 247 c 1
 323 288 227 390 221 411 c 1
 223 414 227 418 243 423 c 1
 244 422 321 343 452 264 c 1
 456 255 457 256 457 246 c 0
EndSplineSet
EndChar

StartChar: onequarter
Encoding: 188 188 121
Width: 699
Flags: W
HStem: 106 45<442 556 618 652.032> 251 22<51.0603 98.6719 184.454 233.491>
VStem: 112 62<288.617 554.988> 556 59<-2.87818 106 151 305>
LayerCount: 2
Fore
SplineSet
606 407 m 0
 612 407 615 400 615 395 c 8
 615 298 615 238 615 146 c 1
 622 146 640 146 650 146 c 1
 659 138 664 120 656 106 c 1
 642 106 624 106 618 106 c 9
 618 0 l 1
 616.442 -1.55844 602.47 -3.11688 588 -3.13327 c 0
 574.616 -3.14843 560.805 -1.84417 556 2 c 9
 556 106 l 1
 391 106 l 1
 386 107 382 111 381 122 c 1
 586 395 l 2
 590 400 598 407 606 407 c 0
556 151 m 9
 556 151 556 296 556 305 c 1
 515 253 487 209 442 151 c 1
 449 151 548 151 556 151 c 9
174 534 m 2
 174 336 l 2
 174 316 176 302 181 287 c 0
 183 280 223 273 231 273 c 1
 236 268 233 253 232 251 c 1
 193 252 185 254 146 254 c 0
 107 254 93 252 54 251 c 1
 49 254 50 269 54 273 c 1
 66 273 101 281 104 288 c 0
 109 301 112 324 112 334 c 2
 112 520 l 2
 112 539 105 555 95 555 c 0
 84 555 67 547 47 540 c 1
 41 543 36 552 34 558 c 1
 53 570 84 588 169 638 c 1
 176 636 182 629 182 622 c 1
 182 622 174 573 174 534 c 2
186.25 -12.6621 m 0
 175.587 -10.5215 174.694 -3.91699 174.694 -3.91699 c 1
 524.32 636.398 l 1
 525.562 638.903 538.35 647.353 555.41 643.928 c 0
 561.097 642.787 562.876 636.922 563.057 634.132 c 1
 218.046 2.06934 l 2
 214.673 -3.67969 202.599 -15.9424 186.25 -12.6621 c 0
EndSplineSet
EndChar

StartChar: onehalf
Encoding: 189 189 122
Width: 750
Flags: W
HStem: -1 55<517 679> 251 22<54.0603 101.672 187.454 236.491> 347 45<504.49 606.382>
VStem: 115 62<288.617 554.988> 623 65<217.197 330.997>
LayerCount: 2
Fore
SplineSet
569 392 m 0
 639 392 688 348 688 285 c 0
 688 252 672 220 642 184 c 0
 615 152 565 103 517 54 c 1
 637 54 l 2
 678 54 691 98 697 108 c 0
 698 110 699 110 702 111 c 0
 705 111 713 109 716 105 c 1
 705 76 693 32 679 -1 c 1
 447 -1 l 1
 441 -1 433 7 435 11 c 1
 472.72 52.0479 526.44 101.096 566.803 152 c 0
 599.205 192.864 623 234.923 623 275 c 0
 623 317 599 347 557 347 c 0
 512 347 488 320 470 298 c 1
 466 294 452 310 453 315 c 1
 476 355 523 392 569 392 c 0
177 534 m 2
 177 336 l 2
 177 316 179 302 184 287 c 0
 186 280 226 273 234 273 c 1
 239 268 236 253 235 251 c 1
 196 252 188 254 149 254 c 0
 110 254 96 252 57 251 c 1
 52 254 53 269 57 273 c 1
 69 273 104 281 107 288 c 0
 112 301 115 324 115 334 c 2
 115 520 l 2
 115 539 108 555 98 555 c 0
 87 555 70 547 50 540 c 1
 44 543 39 552 37 558 c 1
 56 570 87 588 172 638 c 1
 179 636 185 629 185 622 c 1
 185 622 177 573 177 534 c 2
564.057 634.132 m 1
 219.046 2.06934 l 2
 215.673 -3.67969 203.599 -15.9424 187.25 -12.6621 c 0
 176.587 -10.5215 175.694 -3.91699 175.694 -3.91699 c 1
 525.32 636.398 l 1
 526.562 638.903 539.35 647.354 556.41 643.928 c 0
 562.097 642.787 563.876 636.922 564.057 634.132 c 1
EndSplineSet
EndChar

StartChar: threequarters
Encoding: 190 190 123
Width: 700
Flags: W
HStem: 106 45<443 557 619 653.032> 249 28<103.743 183.501> 607 39<98.6021 176.209>
VStem: 189 56<513.694 596.981> 213 64<312.363 429.422> 557 59<-2.87793 106 151 305>
LayerCount: 2
Fore
SplineSet
607 407 m 0xe4
 613 407 616 400 616 395 c 8
 616 298 616 238 616 146 c 1
 623 146 641 146 651 146 c 1
 660 138 665 120 657 106 c 1
 643 106 625 106 619 106 c 9
 619 0 l 1
 617.442 -1.55859 603.47 -3.11719 589 -3.13281 c 0
 575.616 -3.14844 561.805 -1.84375 557 2 c 9
 557 106 l 1
 392 106 l 1
 387 107 383 111 382 122 c 1
 587 395 l 2
 591 400 599 407 607 407 c 0xe4
557 151 m 9
 557 151 557 296 557 305 c 1
 516 253 488 209 443 151 c 1
 450 151 549 151 557 151 c 9
158 646 m 0
 200 646 245 620 245 569 c 0xf4
 245 525 209 496 187 486 c 1
 213 486 277 452 277 386 c 0
 277 298 201 249 114 249 c 0
 92 249 57 255 47 264 c 1
 47 264 35 275 35 288 c 0
 35 308 50 321 66 321 c 0
 83 321 90 304 102 292 c 0
 112 282 126 277 141 277 c 0
 183 277 213 307 213 368 c 0xec
 213 417 178 454 141 454 c 0
 123 454 106 447 101 446 c 1
 98.6973 448.303 96.7256 453.257 95.8496 458 c 0
 95.2031 461.496 95.1514 464.878 96 467 c 1
 145 477 189 507 189 556 c 0xf4
 189 582 164 607 138 607 c 0
 101 607 74 576 68 570 c 1
 63 572 58 585 59 586 c 1
 73 607 105 646 158 646 c 0
569.057 634.132 m 1
 224.046 2.06934 l 2
 220.673 -3.67969 208.599 -15.9424 192.25 -12.6621 c 0
 181.587 -10.5215 180.694 -3.91699 180.694 -3.91699 c 1
 530.32 636.398 l 1
 531.562 638.903 544.35 647.354 561.41 643.928 c 0
 567.097 642.787 568.876 636.922 569.057 634.132 c 1
EndSplineSet
EndChar

StartChar: questiondown
Encoding: 191 191 124
Width: 345
Flags: W
HStem: -223 94<167.451 286.234> -223 73<158.434 267.661> 320 110<189.463 275.77>
VStem: 41 50<-116.531 -13.6233> 178 110<331.463 417.77> 226 29<177.761 259.712>
LayerCount: 2
Fore
SplineSet
288 374 m 0x38
 288 344 262 320 232 320 c 0
 202 320 178 344 178 374 c 0
 178 404 202 430 232 430 c 0
 262 430 288 404 288 374 c 0x38
255 249 m 1xb4
 260 228 263 185 263 158 c 0
 263 84 215 58 178 34 c 0
 129 3 91 -20 91 -68 c 0
 91 -120 127 -150 165 -150 c 0x78
 218 -150 225 -129 251 -129 c 0
 265 -129 295 -146 295 -179 c 0
 295 -194 291 -209 286 -216 c 1
 276 -221 259 -223 238 -223 c 0
 172 -223 41 -155 41 -38 c 0
 41 30 67 72 142 115 c 0
 169 131 214 166 220 177 c 0
 229 193 226 224 226 247 c 1
 230 255 233 259 242 260 c 1
 247 258 252 255 255 249 c 1xb4
EndSplineSet
Substitution2: "'smcp' Lowercase to Small Capitals lookup 2-1" questiondown.sc
EndChar

StartChar: AE
Encoding: 198 198 131
Width: 897
Flags: W
HStem: -3 29<-15.4375 34.7074 127.31 187.446 355.373 412.516> 0 34<521.612 744.606> 257 38<266.249 430> 312 37<515 692.451> 408 20G<732.5 739.5> 624 33<356.663 401.672 518.712 742.774>
VStem: 430 85<44.2663 255 297 310.528 349.429 565.971> 721 32<230.002 289.298 372.014 427.976> 791 32<523.07 571.016>
LayerCount: 2
Fore
SplineSet
473 0 m 0x7f80
 406 0 357.25 -3 357.25 -3 c 1
 353 2 355.25 26 357.25 26 c 1
 369.25 26 418.25 37 423.25 49 c 1
 429.25 72 430 118 430.25 135 c 10
 430.25 255 l 17
 412 256 366.25 257 341.25 257 c 0
 300.25 257 285.25 255 239.25 252 c 0
 237.25 252 234.25 249 234.25 249 c 1
 234.25 249 192.25 178 161.25 129 c 0
 141.25 98 121.25 65 121.25 52 c 0
 121.25 28 177.25 26 185.25 26 c 1
 188.25 23 189.25 3 187.25 -3 c 1
 147.25 -1 134.25 2 90.25 2 c 0
 44.25 2 32.25 -1 -13.75 -3 c 1
 -16.75 0 -16.75 19 -13.75 26 c 1xbf80
 -1.75 26 29.25 36 43.25 45 c 0
 68.25 61 98.25 104 118.25 137 c 2
 395.25 584 l 2
 398.25 589 402.25 597 402.25 604 c 0
 402.25 622 369.25 629 357.25 629 c 1
 352 635 355.25 656 357.25 658 c 1
 357.25 658 406.25 657 473.25 657 c 0
 567.25 657 685 664 794 664 c 1
 801 614 814 573 823 528 c 1
 820 525 812 523 805 523 c 0
 798 523 792 525 791 530 c 0
 769 610 728 624 675 624 c 2
 589 624 l 0
 577 624 523 623 520 613 c 0
 515 597 514.614 569 515 542 c 2
 515 355 l 2
 514.614 350 536 349 558 349 c 2
 611 349 l 2
 707 349 704 355 721 421 c 0
 722 426 729 428 736 428 c 0
 743 428 750 426 753 423 c 1
 753 234 l 1
 751 232 744 230 737 230 c 0
 730 230 723 233 721 238 c 0
 706 295 702 298 693 304 c 0
 682 311 625 312 587 312 c 0
 559 312 514.614 312 515 303 c 2
 515 113 l 2
 514.614 98 515 49 521 44 c 0
 534 34 550 34 592 34 c 2
 640 34 l 2
 687 34 738 44 766 61 c 0
 798 80 813 119 829 162 c 0
 830 166 836 168 843 168 c 0
 853 168 865 165 868 162 c 1
 849 108 821 40 814 -4 c 1
 705 -4 606 0 473 0 c 0x7f80
430 297 m 9
 430 566 l 17
 409 533 266.25 300 266.25 300 c 1
 266.25 300 265.25 296 267.25 296 c 0
 293.25 295 323.25 295 346.25 295 c 0
 377.25 295 411 296 430 297 c 9
EndSplineSet
EndChar

StartChar: Eth
Encoding: 208 208 141
Width: 710
Flags: W
HStem: -3 32<43.4719 115.057 213.782 390.76> 311 37<47.3379 366.829> 626 32<45.3857 116.036 211.098 377.064>
VStem: 119.386 88<43.3146 622.145> 560.386 99<197.497 448.749>
LayerCount: 2
Fore
SplineSet
365.001 311 m 1
 336.001 311 63.001 311 49.001 311 c 1
 45.001 311 44.001 339 50.001 348 c 1
 79.001 348 351.001 348 365.001 348 c 1
 369.001 348 369.001 320 365.001 311 c 1
EndSplineSet
Refer: 35 68 N 1 0 0 1 0 0 3
EndChar

StartChar: multiply
Encoding: 215 215 148
Width: 464
Flags: W
HStem: 409 20G<74.5 80.5 384.5 390.5>
LayerCount: 2
Fore
SplineSet
199 247 m 1
 55 391 l 1
 55 405 70 429 79 429 c 0
 82 429 83.9668 428.965 86 427 c 2
 86 427 233 285 235 283 c 9
 380 427 l 2
 381.003 427.997 383 429 386 429 c 0
 395 429 408 399 408 389 c 1
 408 389 271 253 268 250 c 1
 269 249 408 105 408 105 c 1
 408 90 397 65 386 65 c 0
 384 65 380.5 65.5 379 67 c 2
 379 67 233 213 232 214 c 1
 230 212 83 66 83 66 c 2
 81.4971 64.5068 79 64 77 64 c 0
 68 64 55 95 55 105 c 1
 55 105 195 243 199 247 c 1
EndSplineSet
Substitution2: "'smcp' Lowercase to Small Capitals lookup 2-1" multiply.sc
EndChar

StartChar: Oslash
Encoding: 216 216 149
Width: 748
Flags: W
HStem: -10 34<312.807 466.307> 633 34<280.332 437.715> 647 20G<552.275 569.5>
VStem: 49 99<213.913 447.61> 600 99<209.584 443.622>
LayerCount: 2
Fore
SplineSet
565 667 m 17xb8
 574 665 598 651 594 645 c 9
 176 -13 l 17
 167 -10 143 4 147 10 c 9
 565 667 l 17xb8
EndSplineSet
Refer: 46 79 N 1 0 0 1 0 0 3
EndChar

StartChar: Thorn
Encoding: 222 222 155
Width: 548
Flags: W
HStem: -3 29<42.7894 113.638 212.134 282.982> 128 28<251.776 345.657> 470 39<224.783 359.937> 633 29<42.7894 113.638 212.134 282.982>
VStem: 119.386 87<32.7426 439.463 480 626.257> 426 92<233.77 405.78>
LayerCount: 2
Fore
SplineSet
163.386 657 m 0
 202.386 657 239.386 660 280.386 662 c 1
 285.386 657 284.386 638 280.386 633 c 1
 268.386 633 214.386 628 211.386 617 c 0
 206.386 601 206 573 206.386 543 c 2
 206.386 480 l 17
 243 506 308 509 325 509 c 0
 406 509 518 445 518 329 c 0
 518 207 429 128 298 128 c 0
 287 128 265 131 255 136 c 0
 252 138 241 146 241 158 c 0
 241 160 242 164 246 163 c 1
 257 160 269 156 284 156 c 0
 364 156 426 212 426 312 c 0
 426 411 370 470 288 470 c 0
 276 470 229 464 214 440 c 0
 207.11 428.976 206.386 390 206.386 360 c 0
 206.386 116 l 2
 206 86 206.386 58 211.386 42 c 0
 214.386 31 268.386 26 280.386 26 c 1
 284.386 21 285.386 2 280.386 -3 c 1
 239.386 -1 202.386 2 163.386 2 c 0
 124.386 2 86.3857 -1 45.3857 -3 c 1
 40.3857 2 41.3857 21 45.3857 26 c 1
 57.3857 26 111.386 31 114.386 42 c 0
 119.386 58 119.386 86 119.386 116 c 2
 119.386 543 l 2
 119.386 573 119.386 601 114.386 617 c 0
 111.386 628 57.3857 633 45.3857 633 c 1
 41.3857 638 40.3857 657 45.3857 662 c 1
 86.3857 660 124.386 657 163.386 657 c 0
EndSplineSet
EndChar

StartChar: germandbls
Encoding: 223 223 156
Width: 537
Flags: W
HStem: -10 31<28.3857 85.2274 185.81 245.386 346.643 419.513> 391 41<41.3486 96.3857> 660 33<221.057 326.103>
VStem: 96.3857 77.0003<32.7426 391 432 545.797> 247.386 58<314.848 376.33> 368.386 75<488.66 624.746> 443.386 68<55.8919 152.096>
LayerCount: 2
Fore
SplineSet
267.386 693 m 0xfc
 361.386 693 443.386 655 443.386 561 c 0xfc
 443.386 510.359 415.173 475.255 384.26 447 c 0
 346.805 412.765 305.386 388.584 305.386 359 c 0
 305.386 318 356.386 290 403.386 265 c 0
 450.386 240 511.386 206 511.386 137 c 0
 511.386 58 455.386 -10 379.386 -10 c 0
 318.386 -10 271.386 16 261.386 33 c 1
 261.386 37.4961 261.516 41.8438 261.809 46 c 0
 263.665 72.3486 272.064 91 295.386 91 c 0
 314.002 91 322.753 68.7236 336 49.3047 c 0
 346.235 34.2998 359.155 21 381.386 21 c 0
 417.386 21 443.386 52 443.386 102 c 0xfa
 443.386 147.283 403.194 169.6 359.213 193 c 0
 306.066 221.275 247.386 251.132 247.386 325 c 0
 247.386 367.45 287.205 392.131 321.157 430 c 0
 346.392 458.145 368.386 493.575 368.386 549 c 0
 368.386 614 334.386 660 270.386 660 c 0
 181.386 660 173.386 557 173.386 475 c 0
 173.386 116 l 2
 173.386 86 173.386 58 178.386 42 c 0
 181.386 31 233.386 26 245.386 26 c 1
 249.386 21 250.386 2 245.386 -3 c 1
 204.386 -1 173.386 2 134.386 2 c 0
 95.3857 2 69.3857 -1 28.3857 -3 c 1
 23.3857 2 24.3857 21 28.3857 26 c 1
 40.3857 26 88.3857 31 91.3857 42 c 0
 96.3857 58 96.3857 86 96.3857 116 c 2
 96.3857 391 l 1
 38.3857 391 l 2
 35.3857 391 33.3857 397 33.3857 400 c 0
 33.3857 404 58.3857 431 59.3857 432 c 1
 75.3857 432 85.3857 432 96.3857 432 c 1
 96.3857 433 96.3857 434 96.3857 438 c 0
 96.3857 560 187.386 693 267.386 693 c 0xfc
EndSplineSet
Substitution2: "'smcp' Lowercase to Small Capitals lookup 2-1" germandbls.sc
EndChar

StartChar: ae
Encoding: 230 230 163
Width: 653
Flags: W
HStem: -8 64<414.721 544.098> -8 54<138.481 211.032> 248 37<339 524.487> 402 36<165.987 260.5 392.842 487.878>
VStem: 37 83<64.4927 167.195> 52 81<294.428 353.807> 265 69<142.672 220> 525 85<285.847 368.285>
LayerCount: 2
Fore
SplineSet
181 194 m 0x7b
 145 181 120 154 120 116 c 0
 120 79 149 46 187 46 c 0
 223 46 279 74 279 104 c 1
 270.902 121.667 263.889 162.637 260.751 193 c 0
 259.627 203.883 259 213.404 259 220 c 1
 233 211 198 200 181 194 c 0x7b
443 402 m 0
 359 402 337 285 339 285 c 1
 348 285 492 285 502 285 c 0
 514 285 524 290 525 308 c 0
 526 332 504 402 443 402 c 0
460 438 m 0
 580 438 610 342 610 302 c 0
 610 273 605 256 586 255 c 0
 555 253 346 248 334 248 c 1
 331 120 409 56 497 56 c 0
 552 56 594 94 607 109 c 1
 608 109 615 103 615 95 c 0
 615 90 612 82 609 77 c 0
 591 48 541 -8 463 -8 c 0xb7
 402 -8 332 20 298 77 c 1
 274 52 189 -8 154 -8 c 0
 88 -8 37 42 37 107 c 0x7b
 37 148 60 174 83 186 c 0
 131 210 220 243 249 256 c 0
 259 260 261 262 263 270 c 0
 265 279 265 290 265 302 c 0
 265 347 237 398 188 398 c 0
 153 398 140 374 133 335 c 0
 127 301 111 288 86 288 c 0
 65 288 52 310 52 330 c 0x77
 52 338 56 350 59 354 c 1
 83 377 166 436 239 436 c 0
 282 436 315 406 332 374 c 1
 356 400 403 438 460 438 c 0
EndSplineSet
Substitution2: "'smcp' Lowercase to Small Capitals lookup 2-1" ae.sc
EndChar

StartChar: eth
Encoding: 240 240 173
Width: 517
UnlinkRmOvrlpSave: 1
Flags: W
HStem: -7 33<207.397 313.579> 406 33<182.49 300.167> 664 24<86.2432 106.22>
VStem: 40 86<116.483 316.648> 375 87<128.32 331.716>
LayerCount: 2
Fore
SplineSet
346 699 m 17
 354 694 371 674 364 668 c 9
 128 509 l 17
 121 514 104 535 111 541 c 9
 346 699 l 17
234 406 m 0
 154 406 126 319 126 227 c 0
 126 129 178 26 259 26 c 0
 338 26 375 104 375 202 c 0
 375 257 366 308 355 329 c 0
 327 382 288 406 234 406 c 0
247 439 m 0
 276 439 312 435 332 423 c 1
 309 482 267 588 81 664 c 1
 81 671 87 688 95 688 c 1
 182.377 668.072 276.282 607.935 347.229 526 c 0
 415.128 447.585 462 349.206 462 247 c 3
 462 85 361 -7 256 -7 c 0
 120 -7 40 91 40 211 c 0
 40 319 108 439 247 439 c 0
EndSplineSet
Substitution2: "'smcp' Lowercase to Small Capitals lookup 2-1" eth.sc
EndChar

StartChar: divide
Encoding: 247 247 180
Width: 599
Flags: W
HStem: 5 100<260.438 343.562> 219 56<65.2197 536.076> 388 100<260.438 343.562>
VStem: 252 100<13.4375 96.5625 396.438 479.562>
LayerCount: 2
Fore
SplineSet
66 219 m 17
 66 219 60 219 60 229 c 0
 60 233 66 267 77 275 c 9
 254 275 354 275 531 275 c 16
 535 275 540 271 540 263 c 0
 540 247 532 227 524 219 c 1
 66 219 l 17
EndSplineSet
Refer: 339 775 N 1 0 0 1 557 -493 2
Refer: 339 775 N 1 0 0 1 557 -110 2
Substitution2: "'smcp' Lowercase to Small Capitals lookup 2-1" divide.sc
EndChar

StartChar: oslash
Encoding: 248 248 181
Width: 509
Flags: W
HStem: -8 21G<125 141.706> -7 33<214.699 321.24> 406 33<190.214 296.584> 417 20G<359.264 375.5>
VStem: 42 86<120.834 313.837> 383 86<116.337 309.213>
LayerCount: 2
Fore
SplineSet
129 -8 m 17x9c
 121 -4 99 7 102 13 c 9
 372 437 l 17
 379 434 402 423 399 417 c 9
 129 -8 l 17x9c
EndSplineSet
Refer: 78 111 N 1 0 0 1 1 0 3
Substitution2: "'smcp' Lowercase to Small Capitals lookup 2-1" oslash.sc
EndChar

StartChar: thorn
Encoding: 254 254 187
Width: 495
Flags: W
HStem: -226 29<0.789397 65.6755 154.096 218.982> -8 35<181.558 298.107> 379 59<206.166 302.356> 628 26<4.28433 62.2139> 674 20G<127.386 150.886>
VStem: 71.3857 77.0003<-190.581 2.99635 52.6571 362.458 379.003 621.593> 372.386 84<139.167 301.166>
LayerCount: 2
Fore
SplineSet
275.386 438 m 0
 399.386 438 456.386 318 456.386 232 c 0
 456.386 103 335.386 -8 222.386 -8 c 0
 196.386 -8 168.386 -2 152.386 3 c 1
 152.386 3 148.386 -2 148.386 -10 c 2
 148.386 -107 l 2
 148.386 -137 148.386 -165 153.386 -181 c 0
 156.386 -192 204.386 -197 216.386 -197 c 1
 220.386 -202 221.386 -221 216.386 -226 c 1
 175.386 -224 148.386 -221 109.386 -221 c 0
 70.3857 -221 44.3857 -224 3.38574 -226 c 1
 -1.61426 -221 -0.614258 -202 3.38574 -197 c 1
 15.3857 -197 63.3857 -192 66.3857 -181 c 0
 71.3857 -165 71.3857 -137 71.3857 -107 c 2
 71.3857 558 l 2
 71.3857 572 71.3857 598 66.3857 610 c 0
 60.3857 624 33.3857 628 5.38574 628 c 1
 4.38574 628 2.38574 653 6.38574 654 c 1
 56.3857 659 106.386 675 148.386 694 c 1
 153.386 694 159.386 685 159.386 678 c 1
 159.386 678 148.386 646 148.386 591 c 2
 148.386 591 148.386 392 148.386 384 c 0
 148.386 383 148.386 379 150.386 379 c 0
 151.386 379 152.386 380 153.386 381 c 0
 178.386 402 235.386 438 275.386 438 c 0
232.386 379 m 0
 191.386 379 148.386 354 148.386 340 c 2
 148.386 100 l 2
 148.386 48 206.386 27 241.386 27 c 0
 324.386 27 372.386 114 372.386 195 c 0
 372.386 314 308.386 379 232.386 379 c 0
EndSplineSet
Substitution2: "'smcp' Lowercase to Small Capitals lookup 2-1" thorn.sc
EndChar

StartChar: Aogonek
Encoding: 260 260 193
Width: 627
Flags: W
HStem: -223 59<460.755 534.225> -3 29<-13.6875 43.2822 130.247 192.446 403.025 461.809 582.411 631.812> 253 39<199.25 379.249> 643 20G<321.75 327.75>
VStem: 402.25 54<-160.236 -83.4554>
LayerCount: 2
Fore
SplineSet
631.25 -3 m 1
 603.019 -1.63867 583.277 0.186523 558.927 1.21289 c 1
 515.057 -25.0576 456.25 -77.4395 456.25 -121 c 0
 456.25 -136 463.25 -164 497.25 -164 c 0
 548.25 -164 572.25 -126 578.25 -126 c 0
 579.25 -126 583.25 -131 583.25 -139 c 0
 583.25 -144 581.25 -153 578.25 -157 c 0
 556.25 -186 518.25 -223 473.25 -223 c 0
 417.25 -223 402.25 -173 402.25 -146 c 0
 402.25 -91.0127 460.223 -32.0283 514.212 1.97559 c 1
 513.469 1.9707 512.732 1.96484 512 1.95801 c 0
 471.822 1.58984 447.066 -1.13867 405.25 -3 c 1
 400.25 2 401.25 21 406.25 26 c 1
 418.25 26 453.25 31 462.25 39 c 0
 465.25 42 466.25 47 466.25 53 c 0
 466.25 83 398.25 248 398.25 248 c 1
 398.25 248 395.25 252 392.25 252 c 0
 366.25 254 318.25 253 293.25 253 c 0
 252.25 253 230.25 253 185.25 250 c 0
 183.25 250 180.25 247 180.25 247 c 1
 180.25 247 152 173 135.25 125 c 16
 123.25 90 121.25 67 121.25 54 c 0
 122.25 30 182.25 26 190.25 26 c 1
 193.25 23 194.25 3 192.25 -3 c 1
 152.25 -1 138.25 2 95.25 2 c 0
 49.25 2 34 -1 -12 -3 c 1
 -15 0 -15 19 -12 26 c 1
 0 26 38.25 32 48.25 45 c 0
 68.25 71 81.25 103 95.25 139 c 2
 95.25 139 227.25 478 288.25 634 c 1
 293 644 317.25 663 326.25 663 c 0
 329.25 663 329.25 661 332.25 660 c 1
 535.545 126 l 0
 549.91 88.5957 559.512 63.8613 561.25 60 c 0
 571.25 36 621.25 26 629.25 26 c 1
 634.25 19 632.25 0 631.25 -3 c 1
291 542 m 1
 199.25 298 l 1
 199.25 298 199.25 294 201.25 294 c 0
 227.25 293 269.25 292 292.25 292 c 0
 323.25 292 345.25 293 376.25 295 c 0
 378.25 295 379.25 300 379.25 300 c 1
 291 542 l 1
EndSplineSet
EndChar

StartChar: aogonek
Encoding: 261 261 194
Width: 431
Flags: W
HStem: -223 59<268.505 341.975> -8 54<138.481 211.996> 398 38<158.777 269.5>
VStem: 37 83<64.4927 166.568> 52 81<294.824 353.758> 210 54<-160.236 -87.1945> 274 76<67.9015 223 245.918 361.958>
LayerCount: 2
Fore
SplineSet
187 46 m 0xf6
 222 46 274 77 274 87 c 2
 274 223 l 17
 247 215 199 201 181 194 c 0
 145 180 120 154 120 116 c 0
 120 79 149 46 187 46 c 0xf6
277 59 m 1
 265 47 189 -8 154 -8 c 0
 88 -8 37 42 37 107 c 0xf6
 37 148 65 179 87 187 c 0
 143 207 233 237 262 250 c 0
 272 254 274 257 274 275 c 2
 274 302 l 2
 274 347 237 398 188 398 c 0
 153 398 140 375 133 336 c 0
 127 302 111 288 86 288 c 0
 65 288 52 310 52 330 c 0xee
 52 334 55 349 59 354 c 1
 90 383 168 436 241 436 c 0
 298 436 350 376 350 299 c 2
 350 93 l 2
 350 66 358 46 381 46 c 0
 399 46 411 57 414 59 c 1
 417 59 418 54 418 51 c 0
 418 45 416 37 413 32 c 1
 403 25 389 15 377 7 c 0
 339 -20 264 -67 264 -121 c 0
 264 -136 271 -164 305 -164 c 0
 356 -164 380 -126 386 -126 c 0
 387 -126 391 -131 391 -139 c 0
 391 -144 389 -153 386 -157 c 0
 364 -186 326 -223 281 -223 c 0
 225 -223 210 -173 210 -146 c 0
 210 -102 265 -37 313 1 c 1
 296 11 279 35 277 59 c 1
EndSplineSet
Substitution2: "'smcp' Lowercase to Small Capitals lookup 2-1" aogonek.sc
EndChar

StartChar: dcroat
Encoding: 273 273 206
Width: 515
Flags: W
HStem: -8 62<192.397 289.897> 20 27<438.72 496.784> 396 42<196.789 327.598> 525 35<213.529 489.01> 628 26<283.899 341.828> 674 20<407 430.5>
VStem: 39 84<130.201 291.813> 351 77<70.6579 374.572 428.007 621.593>
LayerCount: 2
Fore
SplineSet
219 560 m 1x3f
 248 560 470 560 484 560 c 0
 488 560 490 556 490 552 c 3
 490 547 488 533 484 525 c 1
 455 525 232 525 218 525 c 0
 214 525 213 533 213 537 c 3
 213 542 215 553 219 560 c 1x3f
EndSplineSet
Refer: 67 100 N 1 0 0 1 0 0 3
Substitution2: "'smcp' Lowercase to Small Capitals lookup 2-1" dcroat.sc
EndChar

StartChar: Eogonek
Encoding: 280 280 213
Width: 587
Flags: W
HStem: -224 59<384.505 457.975> -3 29<42.7894 113.638> 0 34<212.998 428.904> 312 37<206.386 383.837> 408 20G<423.886 430.886> 624 33<210.098 434.16> 633 29<42.9344 113.638>
VStem: 119.386 87<44.2663 310.528 349.429 620.395> 326 54<-161.236 -85.651> 412.386 32<230.002 289.298 372.014 427.976> 482.386 32<523.07 571.016>
LayerCount: 2
Fore
SplineSet
163.386 657 m 0x9de0
 257.386 657 376.386 664 485.386 664 c 1
 492.386 614 505.386 573 514.386 528 c 1
 511.386 525 503.386 523 496.386 523 c 0
 489.386 523 483.386 525 482.386 530 c 0
 460.386 610 419.386 624 366.386 624 c 2
 280.386 624 l 0
 268.386 624 214.386 623 211.386 613 c 0
 206.386 597 206 569 206.386 542 c 2
 206.386 355 l 2
 206 350 227.386 349 249.386 349 c 2
 302.386 349 l 2
 398.386 349 395.386 355 412.386 421 c 0
 413.386 426 420.386 428 427.386 428 c 0
 434.386 428 441.386 426 444.386 423 c 1
 444.386 234 l 1
 442.386 232 435.386 230 428.386 230 c 0
 421.386 230 414.386 233 412.386 238 c 0
 397.386 295 393.386 298 384.386 304 c 0
 373.386 311 316.386 312 278.386 312 c 0
 250.386 312 206 312 206.386 303 c 2
 206.386 113 l 2
 206 98 206.386 49 212.386 44 c 0
 225.386 34 241.386 34 283.386 34 c 2
 331.386 34 l 2
 378.386 34 429.386 44 457.386 61 c 0
 489.386 80 504.386 119 520.386 162 c 0
 521.386 166 527.386 168 534.386 168 c 0
 544.386 168 556.386 165 559.386 162 c 1
 540.386 108 512.386 40 505.386 -4 c 1
 446.386 -4 380 -79 380 -122 c 0
 380 -137 387 -165 421 -165 c 0
 472 -165 496 -127 502 -127 c 0
 503 -127 506 -132 506 -140 c 0
 506 -145 505 -154 502 -158 c 0
 480 -187 442 -224 397 -224 c 0
 341 -224 326 -174 326 -147 c 0
 326 -95.709 379.51 -38.5811 429.911 -3.44531 c 1
 348.168 -2.34668 297.386 0 164.386 0 c 0xbde0
 117.386 0 84.3857 -3 45.3857 -3 c 1
 40.3857 2 41.3857 21 45.3857 26 c 1
 57.3857 26 111.386 31 114.386 42 c 0
 119.386 58 119.386 86 119.386 116 c 2
 119.386 543 l 2
 119.386 573 119.386 601 114.386 617 c 0
 111.386 628 57.3857 633 45.3857 633 c 1
 41.3857 638 40.3857 657 45.3857 662 c 1xdbe0
 86.3857 660 124.386 657 163.386 657 c 0x9de0
EndSplineSet
EndChar

StartChar: eogonek
Encoding: 281 281 214
Width: 431
Flags: W
HStem: -224 59<244.505 317.975> -8 64<192.798 298.688> 248 37<116 301.487> 402 36<172.002 264.878>
VStem: 40 71<142.672 248> 186 54<-161.236 -81.0086> 302 85<285.847 368.285>
LayerCount: 2
Fore
SplineSet
337.998 25.4531 m 0
 288 -17 240 -64.1191 240 -122 c 0
 240 -137 247 -165 281 -165 c 0
 332 -165 356 -127 362 -127 c 0
 363 -127 366 -132 366 -140 c 0
 366 -145 365 -154 362 -158 c 0
 340 -187 302 -224 257 -224 c 0
 201 -224 186 -174 186 -147 c 0
 186 -107.405 224.214 -46.2529 263.785 -6.22168 c 1
 256.173 -7.375 248.243 -8 240 -8 c 0
 122 -8 40 82 40 200 c 0
 40 334 149 438 237 438 c 0
 357 438 387 342 387 302 c 0
 387 273 382 256 363 255 c 0
 332 253 123 248 111 248 c 1
 108 120 186 56 274 56 c 0
 329 56 371 94 384 109 c 0
 385 109 392 103 392 95 c 0
 392 90 389 82 386 77 c 0
 377.309 62.998 359.073 43.3486 337.998 25.4531 c 0
116 285 m 0
 125 285 269 285 279 285 c 0
 291 285 301 290 302 308 c 0
 303 332 281 402 220 402 c 0
 136 402 114 285 116 285 c 0
EndSplineSet
Substitution2: "'smcp' Lowercase to Small Capitals lookup 2-1" eogonek.sc
EndChar

StartChar: Hbar
Encoding: 294 294 227
Width: 726
Flags: W
HStem: -3 32<42.8894 114.385 211.387 282.882 443.89 515.385 612.387 683.882> 325 34<207.582 520.386> 470 38<81.157 643.843> 630 32<42.8894 114.385 211.387 282.882 443.89 515.385 612.387 683.882>
VStem: 119.386 87<35.7426 318.953 362.001 623.257> 520.386 87<35.7426 320.999 362.001 623.257>
LayerCount: 2
Fore
SplineSet
86 470 m 0
 82 470 81 478 81 483 c 3
 81 489 81 499 87 508 c 1
 639 508 l 0
 643 508 644 500 644 495 c 3
 644 489 644 479 638 470 c 1
 609 470 100 470 86 470 c 0
EndSplineSet
Refer: 39 72 N 1 0 0 1 0 0 3
EndChar

StartChar: hbar
Encoding: 295 295 228
Width: 516
Flags: W
HStem: -3 29<18.7894 83.6755 172.096 236.982 288.79 353.676 442.096 506.982> 380 58<241.147 327.57> 525 35<23.5298 299.011> 628 26<22.2843 80.2139> 674 20<145.386 168.886>
VStem: 89.3857 77.0003<32.4189 347.537 363.001 621.593> 359.386 77<32.4189 346.845>
LayerCount: 2
Fore
SplineSet
29.001 560 m 1
 58.001 560 280.001 560 294.001 560 c 0
 298.001 560 300.001 556 300.001 552 c 3
 300.001 547 298.001 533 294.001 525 c 1
 265.001 525 42.001 525 28.001 525 c 0
 24.001 525 23.001 533 23.001 537 c 3
 23.001 542 25.001 553 29.001 560 c 1
EndSplineSet
Refer: 71 104 N 1 0 0 1 0 0 3
Substitution2: "'smcp' Lowercase to Small Capitals lookup 2-1" hbar.sc
EndChar

StartChar: Iogonek
Encoding: 302 302 235
Width: 328
Flags: W
HStem: -224 59<126.505 199.975> -3 29<42.0058 106.855 229.752 283.997> 633 29<42.0511 105.079 223.221 283.993>
VStem: 68 54<-161.236 -86.8884> 120 87<36.9151 621.28>
LayerCount: 2
Fore
SplineSet
166 657 m 0xe8
 210 657 242 660 282 662 c 1
 283 659 284 652 284 647 c 0
 284 641 283 633 280 633 c 0
 272 633 219 623 216 612 c 0
 209 585 207 555 207 519 c 2
 207 139 l 2xe8
 207 103 209 73 216 46 c 0
 219 35 272 26 280 26 c 0
 283 26 284 17 284 11 c 0
 284 6 283 0 282 -3 c 1
 264 -2 245 -1 229 0 c 1
 185 -26 122 -78 122 -122 c 0
 122 -137 129 -165 163 -165 c 0
 214 -165 238 -127 244 -127 c 0
 245 -127 248 -132 248 -140 c 0
 248 -145 247 -154 244 -158 c 0
 222 -187 184 -224 139 -224 c 0
 83 -224 68 -174 68 -147 c 0xf0
 68 -93 131 -33 184 2 c 1
 178 2 173 2 166 2 c 0
 120 2 92 -1 46 -3 c 1
 44 -1 42 6 42 12 c 0
 42 18 44 26 46 26 c 0
 58 26 108 34 113 46 c 1
 119 69 120 117 120 135 c 2
 120 523 l 2
 120 541 119 589 113 612 c 1
 108 624 58 633 46 633 c 0
 44 633 42 640 42 646 c 0
 42 652 44 660 46 662 c 1
 92 660 120 657 166 657 c 0xe8
EndSplineSet
EndChar

StartChar: dotlessi
Encoding: 305 305 238
Width: 270
Flags: W
HStem: -3 29<33.7133 98.5994 187.02 251.906> 372 26<32.4908 93.7581> 420 20G<157.31 179.81>
VStem: 104.31 77<32.4189 365.708>
LayerCount: 2
Fore
SplineSet
181.31 325 m 0
 181.31 116 l 2
 181.31 86 181.31 58 186.31 42 c 0
 189.31 31 237.31 26 249.31 26 c 1
 253.31 21 254.31 2 249.31 -3 c 1
 208.31 -1 181.31 2 142.31 2 c 0
 103.31 2 77.3096 -1 36.3096 -3 c 1
 31.3096 2 32.3096 21 36.3096 26 c 1
 48.3096 26 96.3096 31 99.3096 42 c 0
 104.31 58 104 86 104.31 116 c 2
 104.309570312 302 l 2
 104.309570312 315 104.309570312 342 99.3095703125 354 c 0
 92.3095703125 371 41.3095703125 372 34.3095703125 372 c 1
 32.3095703125 374 30.3095703125 393 34.3095703125 398 c 1
 85.3095703125 405 137.309570312 419 177.309570312 440 c 1
 182.309570312 440 188.309570312 429 188.309570312 424 c 1
 187.309570312 417 181.31 368 181.31 358 c 2
 181.31 325 l 0
EndSplineSet
Substitution2: "'smcp' Lowercase to Small Capitals lookup 2-1" dotlessi.sc
EndChar

StartChar: kgreenlandic
Encoding: 312 312 245
Width: 533
Flags: W
HStem: -3 29<33.7133 98.5994 187.02 251.906 456.809 527.815> 372 26<32.4908 93.7581> 396 29<305.498 354.87 432.593 495.375> 420 20G<157.31 179.81>
VStem: 104.31 77.0004<32.4189 204 235 365.708>
LayerCount: 2
Fore
SplineSet
181.31 358 m 2xd8
 181.31 235 l 1
 198.31 241 229.31 267 263.31 296 c 0
 315.31 340 355.31 369 355.31 379 c 0
 355.31 394 316.31 395 307.31 396 c 1
 302.31 403 304.31 423 309.31 425 c 1xa8
 338.31 422 373.31 420 405.31 420 c 0x98
 439.31 420 471.31 422 493.31 425 c 1
 497.31 419 496.31 400 493.31 396 c 1xa8
 479.31 396 437.31 388 416.31 373 c 0
 405.31 365 313.31 299 254.31 249 c 1
 329.31 168 410.31 73 434.31 53 c 0
 460.31 32 500.31 25 526.31 26 c 1
 528.31 23 530.31 7 527.31 2 c 1
 520.31 -1 489.31 -4 462.31 -4 c 0
 403.31 -4 354.31 24 339.31 40 c 2
 339.31 40 253.31 133 196.31 195 c 0
 192.31 200 181.31 204 181.31 204 c 1
 181.31 116 l 2
 181.31 86 181.31 58 186.31 42 c 0
 189.31 31 237.31 26 249.31 26 c 1
 253.31 21 254.31 2 249.31 -3 c 1
 208.31 -1 181.31 2 142.31 2 c 0
 103.31 2 77.3096 -1 36.3096 -3 c 1
 31.3096 2 32.3096 21 36.3096 26 c 1
 48.3096 26 96.3096 31 99.3096 42 c 0
 104.31 58 104 86 104.31 116 c 2
 104.309570312 302 l 2
 104.309570312 315 104.309570312 342 99.3095703125 354 c 0
 92.3095703125 371 41.3095703125 372 34.3095703125 372 c 1
 32.3095703125 374 30.3095703125 393 34.3095703125 398 c 1
 85.3095703125 405 137.309570312 419 177.309570312 440 c 1
 182.309570312 440 188.309570312 429 188.309570312 424 c 1
 187.309570312 417 181.31 368 181.31 358 c 2xd8
EndSplineSet
Substitution2: "'smcp' Lowercase to Small Capitals lookup 2-1" kgreenlandic.sc
EndChar

StartChar: Lslash
Encoding: 321 321 254
Width: 564
Flags: W
HStem: -3 29<42.7894 113.638> 0 34<212.998 437.778> 633 29<42.7894 113.638 212.134 282.982>
VStem: 119.386 87<44.2685 626.257>
LayerCount: 2
Fore
SplineSet
383.669 447 m 1x30
 388.669 442 405.669 419 401.669 416 c 9
 50.6689 178 l 1
 44.6689 184 29.6689 204 33.6689 207 c 9
 383.669 447 l 1x30
EndSplineSet
Refer: 43 76 N 1 0 0 1 0 0 3
EndChar

StartChar: lslash
Encoding: 322 322 255
Width: 255
Flags: W
HStem: -3 29<18.7894 83.6755 172.096 236.982> 628 26<22.2843 80.2139> 674 20<145.386 168.886>
VStem: 89.3857 77.0003<32.4189 621.593>
LayerCount: 2
Fore
SplineSet
34.751 260 m 1
 28.751 266 15.751 284 19.751 288 c 9
 216.751 423 l 1
 221.751 418 236.751 400 232.751 396 c 9
 34.751 260 l 1
EndSplineSet
Refer: 75 108 N 1 0 0 1 0 0 3
Substitution2: "'smcp' Lowercase to Small Capitals lookup 2-1" lslash.sc
EndChar

StartChar: Eng
Encoding: 330 330 262
Width: 776
Flags: W
HStem: -227 47<415.5 522.353> -3 29<38.8152 111.331 192.824 262.854> 634 29<39.3351 115.012 522.238 593.175 674.761 747.015>
VStem: 129.046 46<46.7508 568.502> 611.046 46<166 613.249>
LayerCount: 2
Fore
SplineSet
595.486 37.6645 m 1
 175.046 569 l 1
 175.046 115 l 2
 175.046 79 175.046 62 185.046 46 c 0
 191.046 36 244.046 26 260.046 26 c 1
 265.046 19 264.046 3 262.046 -3 c 1
 222.046 -1 192.046 2 148.046 2 c 0
 102.046 2 87.0459 -1 41.0459 -3 c 1
 38.0459 2 36.0459 15 41.0459 26 c 1
 53.0459 26 112.046 34 119.046 46 c 0
 128.046 61 129.046 76 129.046 114 c 2
 129.046 548 l 2
 129.046 586 128.046 601 119.046 616 c 0
 112.046 628 53.0459 636 41.0459 636 c 1
 36.0459 647 38.0459 660 41.0459 665 c 1
 87.0459 663 110.046 660 143.046 660 c 0
 173.046 660 205.046 661 219.046 662 c 1
 270.046 582 500.046 321 611.046 166 c 1
 611.046 224 l 1
 611.046 545 l 2
 611.046 581 611.046 598 601.046 614 c 0
 595.046 624 541.046 634 525.046 634 c 1
 520.046 641 521.046 657 523.046 663 c 1
 563.046 661 594.046 658 638.046 658 c 0
 684.046 658 699.046 661 745.046 663 c 1
 748.046 658 750.046 645 745.046 634 c 1
 733.046 634 674.046 626 667.046 614 c 0
 658.046 599 657.046 584 657.046 546 c 2
 657.046 121 l 2
 657 -129 558 -227 423 -227 c 0
 408 -227 372 -218 360 -209 c 1
 355 -204 352 -193 352 -186 c 0
 352 -155 368 -130 400 -130 c 0
 418 -130 434.236 -146.487 448 -159 c 0
 459 -169 476 -180 493 -180 c 0
 530.023 -180 583.364 -138.04 595.486 37.6645 c 1
EndSplineSet
EndChar

StartChar: eng
Encoding: 331 331 263
Width: 521
Flags: W
HStem: -3 29<33.7133 98.5994 187.02 251.906> 372 26<32.4908 93.7581> 380 58<256.071 342.451>
VStem: 104.31 77<32.4189 347.387> 374.31 76.69<-68.53 346.845>
LayerCount: 2
Fore
SplineSet
374.31 46 m 2xb8
 374.31 216 l 2
 374 340 354.31 380 276.31 380 c 0xb8
 239.31 380 181.31 334 181.31 325 c 2
 181.31 116 l 2
 181.31 86 181.31 58 186.31 42 c 0
 189.31 31 237.31 26 249.31 26 c 1
 253.31 21 254.31 2 249.31 -3 c 1
 208.31 -1 181.31 2 142.31 2 c 0
 103.31 2 77.3096 -1 36.3096 -3 c 1
 31.3096 2 32.3096 21 36.3096 26 c 1
 48.3096 26 96.3096 31 99.3096 42 c 0
 104.31 58 104 86 104.31 116 c 2
 104.309570312 302 l 2
 104.309570312 315 104.309570312 342 99.3095703125 354 c 0
 92.3095703125 371 41.3095703125 372 34.3095703125 372 c 1
 32.3095703125 374 30.3095703125 393 34.3095703125 398 c 1xd8
 85.3095703125 405 137.309570312 419 177.309570312 440 c 1
 182.309570312 440 188.309570312 429 188.309570312 424 c 1
 187.309570312 417 182.31 375 182.31 367 c 0
 182.31 366 182.31 363 184.31 363 c 0
 185.31 363 186.31 364 187.31 365 c 0
 207.31 387 274.31 438 322.31 438 c 0
 430.31 438 451.31 371 451.31 226 c 1
 451 68 l 1
 451 -124 346 -203 278 -231 c 1
 273 -228 267 -221 265 -216 c 0
 264 -214 264 -210 265 -209 c 1
 322 -168 374 -120 374.31 46 c 2xb8
EndSplineSet
Substitution2: "'smcp' Lowercase to Small Capitals lookup 2-1" eng.sc
EndChar

StartChar: OE
Encoding: 338 338 270
Width: 1017
Flags: W
HStem: -7 31<314.584 496.044> 0 34<642.612 865.606> 312 37<636 813.451> 408 20G<853.5 860.5> 624 33<639.712 863.774> 633 34<283.538 478.729>
VStem: 49 99<212.318 447.61> 549 87<66.3698 310.528 349.429 576.923> 842 32<230.002 289.298 372.014 427.976> 912 32<523.07 571.016>
LayerCount: 2
Back
SplineSet
358 633 m 0
 208 633 148 484 148 350 c 0
 148 195 234 24 389 24 c 0
373 -10 m 0
 197 -10 49 130 49 328 c 0
 49 515 197 667 373 667 c 0
EndSplineSet
Fore
SplineSet
594 0 m 8x7bc0
 548 0 505 -1 476 -3 c 0
 461 -4 388 -7 363 -7 c 0
 187 -7 49 141 49 328 c 0
 49 515 199 667 368 667 c 0xb7c0
 393 667 528 656 593 657 c 0
 687 657 806 664 915 664 c 1
 922 614 935 573 944 528 c 1
 941 525 933 523 926 523 c 0
 919 523 913 525 912 530 c 0
 890 610 849 624 796 624 c 2
 710 624 l 0
 698 624 644 623 641 613 c 0
 636 597 635.614 569 636 542 c 2
 636 355 l 2
 635.614 350 657 349 679 349 c 2
 732 349 l 2
 828 349 825 355 842 421 c 0
 843 426 850 428 857 428 c 0
 864 428 871 426 874 423 c 1
 874 234 l 1
 872 232 865 230 858 230 c 0
 851 230 844 233 842 238 c 0
 827 295 823 298 814 304 c 0
 803 311 746 312 708 312 c 0
 680 312 635.614 312 636 303 c 2
 636 113 l 2
 635.614 98 636 49 642 44 c 0
 655 34 671 34 713 34 c 2
 761 34 l 2
 808 34 859 44 887 61 c 0
 919 80 934 119 950 162 c 0
 951 166 957 168 964 168 c 0
 974 168 986 165 989 162 c 1
 970 108 942 40 935 -4 c 1
 826 -4 727 0 594 0 c 8x7bc0
357 633 m 0
 212 633 148 484 148 350 c 0
 148 195 233 24 388 24 c 0
 443 24 502 28 525 63 c 0
 549 99 549 133 549 187 c 2
 549 495 l 2
 549 530 542.657 562.606 514 593 c 0
 481 628 427 633 357 633 c 0
EndSplineSet
EndChar

StartChar: oe
Encoding: 339 339 271
Width: 778
Flags: W
HStem: -8 64<539.292 669.098> -7 33<213.699 320.27> 248 37<464 649.487> 406 33<189.214 296.88 526.136 606.574>
VStem: 41 86<120.834 313.837> 382 77<142.863 244.017> 650 85<285.847 368.285>
LayerCount: 2
Fore
SplineSet
568 402 m 0x3e
 484 402 462 285 464 285 c 0
 473 285 617 285 627 285 c 0
 639 285 649 290 650 308 c 0
 651 332 629 402 568 402 c 0x3e
243 406 m 0
 158 406 127 319 127 233 c 0
 127 136 176 26 266 26 c 0x7e
 351 26 382 113 382 198 c 0
 382 295 332 406 243 406 c 0
622 56 m 0xbe
 677 56 719 94 732 109 c 0
 733 109 740 103 740 95 c 0
 740 90 737 82 734 77 c 0
 716 48 666 -8 588 -8 c 0xbe
 516 -8 458 25 423 78 c 1
 385 26 325 -7 256 -7 c 0x7e
 124 -7 41 88 41 213 c 0
 41 342 133 439 254 439 c 0
 336 439 399 403 435 346 c 1
 475 403 533 438 585 438 c 0
 705 438 735 342 735 302 c 0
 735 273 730 256 711 255 c 0
 683 254 499 249 459 248 c 1
 459 101 550 56 622 56 c 0xbe
EndSplineSet
Substitution2: "'smcp' Lowercase to Small Capitals lookup 2-1" oe.sc
EndChar

StartChar: Tbar
Encoding: 358 358 290
Width: 626
Flags: W
HStem: -3 29<193.404 264.252 362.748 433.596> 311 37<155.337 474.828> 626 35<95.8184 270 357 528.71>
VStem: 12 33<499.771 557.091> 270 87<32.7426 626> 580 33<499.771 557.091>
LayerCount: 2
Fore
SplineSet
473 311 m 1
 444 311 171 311 157 311 c 1
 153 311 152 339 158 348 c 1
 187 348 459 348 473 348 c 1
 477 348 477 320 473 311 c 1
EndSplineSet
Refer: 51 84 N 1 0 0 1 0 0 3
EndChar

StartChar: tbar
Encoding: 359 359 291
Width: 311
Flags: W
HStem: -7 54<176.456 252.292> 268 40<22.1905 293.084> 391 41<27.9629 83 160 292.375>
VStem: 22 272 83 77<62.1149 391 432 519.684>
LayerCount: 2
Fore
SplineSet
28 308 m 1xf0
 57 308 274 308 288 308 c 0
 292 308 294 303 294 298 c 3
 294 292 292 277 288 268 c 1
 259 268 41 268 27 268 c 0
 23 268 22 276 22 281 c 3
 22 287 22 299 28 308 c 1xf0
EndSplineSet
Refer: 83 116 N 1 0 0 1 0 0 3
Substitution2: "'smcp' Lowercase to Small Capitals lookup 2-1" tbar.sc
EndChar

StartChar: Uogonek
Encoding: 370 370 302
Width: 723
Flags: W
HStem: -224 59<368.505 441.133> -4 58<281.404 448.306> 633 29<26.7894 97.6372 196.134 266.982 485.795 554.648 632.149 706.374>
VStem: 103.386 87<158.243 626.257> 310 54<-161.236 -83.1714> 570.386 46<156.61 613.249>
LayerCount: 2
Fore
SplineSet
147.386 657 m 0
 186.386 657 223.386 660 264.386 662 c 1
 269.386 657 268.386 638 264.386 633 c 1
 252.386 633 198.386 628 195.386 617 c 0
 190.386 601 190.386 573 190.386 543 c 2
 190.386 296 l 2
 190.386 212.72 207.198 151.858 239.282 112 c 0
 270.766 72.8877 316.953 54 376.386 54 c 0
 479.386 54 567.386 102 570.386 274 c 1
 570.386 545 l 2
 570.386 581 570.386 598 560.386 614 c 0
 554.386 624 504.386 634 488.386 634 c 1
 483.386 641 484.386 657 486.386 663 c 1
 526.386 661 553.386 658 597.386 658 c 0
 643.386 658 658.386 661 704.386 663 c 1
 707.386 658 709.386 645 704.386 634 c 1
 692.386 634 633.386 626 626.386 614 c 0
 617.386 599 616.386 584 616.386 546 c 2
 616.386 276 l 2
 616.386 147.176 578 87 501 29 c 0
 473.055 7.95056 364 -68 364 -122 c 0
 364 -137 371 -165 405 -165 c 0
 456 -165 480 -127 486 -127 c 0
 487 -127 491 -132 491 -140 c 0
 491 -145 489 -153 486 -157 c 0
 464 -186 426 -224 381 -224 c 0
 325 -224 310 -174 310 -147 c 0
 310 -92.6896 366 -31 419 2 c 1
 403 -3 373.173 -4 355.386 -4 c 0
 283.356 -4 221.411 19.53 176.962 62 c 0
 130.697 106.206 103.386 170.929 103.386 251 c 2
 103.386 543 l 2
 103.386 573 103.386 601 98.3857 617 c 0
 95.3857 628 41.3857 633 29.3857 633 c 1
 25.3857 638 24.3857 657 29.3857 662 c 1
 70.3857 660 108.386 657 147.386 657 c 0
EndSplineSet
EndChar

StartChar: uogonek
Encoding: 371 371 303
Width: 507
Flags: W
HStem: -227 59<343.505 416.975> -7 61<194.445 278.477> 20 27<432.536 485.58> 414 20G<159.5 163 417.5 421>
VStem: 83 76<93.494 366.601> 285 54<-164.236 -87.7532> 341 76<82.3558 366.601>
LayerCount: 2
Fore
SplineSet
417 341 m 2xde
 417 141 l 2
 417 130 418 93 424 65 c 0
 429 46 480 48 483 47 c 0
 485 46 486 39 486 36 c 0
 486 34 483 20 478 20 c 0xbe
 471 20 465 19 458 18 c 0
 419 12 339 -73 339 -125 c 0
 339 -140 346 -168 380 -168 c 0
 431 -168 455 -130 461 -130 c 0
 462 -130 466 -135 466 -143 c 0
 466 -148 464 -157 461 -161 c 0
 439 -190 401 -227 356 -227 c 0
 300 -227 285 -177 285 -150 c 0
 285 -107 341 -28 385 2 c 1
 368 -3 349 -8 349 -8 c 0
 344 -8 341 1 341 8 c 2
 341 59 l 2
 341 64 339 64 339 64 c 1
 311 34 259 -7 208 -7 c 0
 102 -7 83 109 83 179 c 2
 83 305 l 2
 83 313 82 345 69 359 c 1
 47 386 11 376 11 382 c 0
 11 383 12 406 17 407 c 0
 62 414 118 422 155 433 c 0
 156 433 159 434 160 434 c 0
 166 434 166 418 165 413 c 0
 161 381 159 373 159 339 c 2
 159 204 l 2
 159 103 187 54 257 54 c 0
 301 54 341 98 341 118 c 2
 341 305 l 2
 341 313 340 345 327 359 c 1
 305 386 269 376 269 382 c 0
 269 383 270 406 275 407 c 0
 320 414 376 422 413 433 c 0
 414 433 417 434 418 434 c 0
 424 434 424 418 423 413 c 0
 419 381 417 375 417 341 c 2xde
EndSplineSet
Substitution2: "'smcp' Lowercase to Small Capitals lookup 2-1" uogonek.sc
EndChar

StartChar: uni021A
Encoding: 538 538 318
Width: 627
Flags: W
HStem: -227 181<301.63 369.63> -3 29<194.404 265.252 363.748 434.596> 626 35<96.8184 271 358 529.71>
VStem: 13 33<499.771 557.091> 271 87<32.7426 626> 327.63 64<-171.345 -91> 581 33<499.771 557.091>
LayerCount: 2
Fore
SplineSet
290.63 -101 m 0xf6
 290.63 -76 309.63 -46 369.63 -46 c 1
 381.63 -56 391.63 -83 391.63 -99 c 0
 391.63 -168 339.63 -208 309.63 -225 c 0
 308.63 -226 305.63 -227 301.63 -227 c 0
 288.63 -227 281.63 -223 281.63 -220 c 0
 281.63 -215 327.63 -185 327.63 -161 c 0
 327.63 -134 290.63 -131 290.63 -101 c 0xf6
EndSplineSet
Refer: 51 84 N 1 0 0 1 1 0 2
EndChar

StartChar: uni021B
Encoding: 539 539 319
Width: 312
Flags: W
HStem: -227 181<130 198> -7 54<177.456 253.292> 391 41<28.9629 84 161 293.375>
VStem: 84 77<62.1149 391 432 519.684> 156 64<-171.345 -91>
LayerCount: 2
Fore
SplineSet
119 -101 m 0xe8
 119 -76 138 -46 198 -46 c 1
 210 -56 220 -83 220 -99 c 0
 220 -168 168 -208 138 -225 c 0
 137 -226 134 -227 130 -227 c 0
 117 -227 110 -223 110 -220 c 0
 110 -215 156 -185 156 -161 c 0
 156 -134 119 -131 119 -101 c 0xe8
EndSplineSet
Refer: 83 116 N 1 0 0 1 1 0 2
Substitution2: "'smcp' Lowercase to Small Capitals lookup 2-1" uni021B.sc
EndChar

StartChar: uni0237
Encoding: 567 567 320
Width: 239
Flags: W
HStem: 372 26<19.9312 81.1985> 420 20G<144.75 167.25>
VStem: 91.75 77<-68.5639 365.708>
LayerCount: 2
Fore
SplineSet
91.75 45 m 2
 91.75 302 l 2
 91.75 315 91.75 342 86.75 354 c 0
 79.75 371 28.75 372 21.75 372 c 1
 19.75 374 17.75 393 21.75 398 c 1
 72.75 405 124.75 419 164.75 440 c 1
 169.75 440 175.75 429 175.75 424 c 1
 174.75 417 168.75 371 168.75 358 c 2
 168.75 324 l 0
 168.75 68 l 1
 168.75 -124 63.75 -203 -4.25 -231 c 1
 -9.25 -228 -15.25 -221 -17.25 -216 c 0
 -18.25 -214 -18.25 -210 -17.25 -209 c 1
 39.75 -168 92 -121 91.75 45 c 2
EndSplineSet
EndChar

StartChar: gravecomb
Encoding: 768 768 332
Width: 0
GlyphClass: 4
Flags: W
HStem: 498 160
VStem: -350 160
LayerCount: 2
Fore
SplineSet
-314 658 m 0
 -300 658 -287.883789062 651.103515625 -287 650 c 0
 -255 610 -190 517 -190 511 c 0
 -190 505 -192 498 -199 498 c 0
 -209 498 -350 597 -350 629 c 0
 -350 634 -349 658 -314 658 c 0
EndSplineSet
EndChar

StartChar: acutecomb
Encoding: 769 769 333
Width: 0
GlyphClass: 4
Flags: W
HStem: 498 160
VStem: -320 160
LayerCount: 2
Fore
SplineSet
-196 658 m 0
 -161 658 -160 634 -160 629 c 0
 -160 597 -301 498 -311 498 c 0
 -318 498 -320 505 -320 511 c 0
 -320 517 -255 610 -223 650 c 0
 -222.116210938 651.103515625 -210 658 -196 658 c 0
EndSplineSet
EndChar

StartChar: uni0302
Encoding: 770 770 334
Width: 0
GlyphClass: 4
Flags: W
HStem: 497 154
VStem: -365 210
LayerCount: 2
Fore
SplineSet
-260 651 m 0
 -256 651 -252 647 -249 642 c 0
 -215 587 -194 561 -155 510 c 1
 -155 503 -161 497 -166 497 c 1
 -204 528 -260 573 -260 573 c 25
 -260 573 -319 525 -354 497 c 1
 -359 497 -365 503 -365 510 c 1
 -326 561 -305 587 -271 642 c 0
 -268 647 -264 651 -260 651 c 0
EndSplineSet
EndChar

StartChar: tildecomb
Encoding: 771 771 335
Width: 0
GlyphClass: 4
Flags: W
HStem: 498 45<-237.358 -146.566> 545 45<-351.215 -260.562>
VStem: -375 255
LayerCount: 2
Fore
SplineSet
-301 590 m 0
 -276 590 -258 578 -240 567 c 0
 -221 555 -196 543 -182 543 c 0
 -146 543 -133 578 -126 582 c 1
 -120 582 -120 577 -120 573 c 0
 -120 560 -128 544 -134 535 c 0
 -151 512 -172 498 -196 498 c 0
 -221 498 -238 509 -256 520 c 0
 -275 532 -297 545 -315 545 c 0
 -351 545 -360 510 -367 506 c 1
 -373 506 -375 513 -375 517 c 0
 -375 530 -369 545 -363 554 c 0
 -346 577 -325 590 -301 590 c 0
EndSplineSet
EndChar

StartChar: uni0304
Encoding: 772 772 336
Width: 0
GlyphClass: 4
Flags: W
HStem: 498 42<-374.462 -146.479>
LayerCount: 2
Fore
SplineSet
-151 498 m 1
 -197 498 -300 498 -375 498 c 1
 -385 502 -378 534 -369 540 c 9
 -282 540 -232 540 -145 540 c 1
 -138 535 -141 509 -151 498 c 1
EndSplineSet
EndChar

StartChar: uni0305
Encoding: 773 773 337
Width: 0
GlyphClass: 4
Flags: W
HStem: 739 63<-591.44 -1.09664>
LayerCount: 2
Fore
SplineSet
-595 749 m 0
 -595 751 -592 802 -581 802 c 2
 1 802 l 2
 3 802 7 801 7 793 c 0
 7 775 0 750 -1 746 c 0
 -3 740 -9 739 -9 739 c 1
 -589 739 l 1
 -589 739 -595 739 -595 749 c 0
EndSplineSet
EndChar

StartChar: uni0306
Encoding: 774 774 338
Width: 0
GlyphClass: 4
Flags: W
HStem: 497 46<-316.932 -201.068>
VStem: -368 22<598.095 615.805> -172 22<597.096 615.805>
LayerCount: 2
Fore
SplineSet
-259 543 m 0
 -217 543 -182 572 -172 615 c 0
 -172 617 -170 618 -168 618 c 0
 -162 618 -150 610 -150 605 c 0
 -150 604 -151 599 -151 597 c 0
 -160 544 -205 497 -259 497 c 0
 -313 497 -358 541 -367 598 c 0
 -367 600 -368 604 -368 605 c 0
 -368 610 -356 618 -350 618 c 0
 -348 618 -346 617 -346 615 c 0
 -336 572 -301 543 -259 543 c 0
EndSplineSet
EndChar

StartChar: uni0307
Encoding: 775 775 339
Width: 0
GlyphClass: 4
Flags: W
HStem: 498 100<-296.562 -213.438>
VStem: -305 100<506.438 589.562>
LayerCount: 2
Fore
SplineSet
-305 548 m 0
 -305 576 -283 598 -255 598 c 0
 -227 598 -205 576 -205 548 c 0
 -205 520 -227 498 -255 498 c 0
 -283 498 -305 520 -305 548 c 0
EndSplineSet
EndChar

StartChar: uni0308
Encoding: 776 776 340
Width: 0
GlyphClass: 4
Flags: W
HStem: 498 92<-381.358 -302.642 -198.358 -119.642>
VStem: -389 94<505.646 582.037> -206 94<505.646 582.037>
LayerCount: 2
Fore
SplineSet
-158 590 m 0
 -133 590 -112 568 -112 543 c 0
 -112 518 -134 498 -159 498 c 0
 -184 498 -206 519 -206 544 c 0
 -206 569 -183 590 -158 590 c 0
-341 590 m 0
 -316 590 -295 568 -295 543 c 0
 -295 518 -317 498 -342 498 c 0
 -367 498 -389 519 -389 544 c 0
 -389 569 -366 590 -341 590 c 0
EndSplineSet
EndChar

StartChar: hookabovecomb
Encoding: 777 777 341
Width: 0
GlyphClass: 4
Flags: W
HStem: 643 29<-270.742 -219.775>
VStem: -321 46<587.661 639.444> -291 42<507.096 553.298> -215 41<580.096 641.757>
LayerCount: 2
Fore
SplineSet
-228 672 m 0xd0
 -193 672 -174 651 -174 621 c 0
 -174 588 -202 565 -225 555 c 0
 -243 547 -249 542 -249 530 c 0
 -249 522 -244 514 -241 511 c 1
 -241 506 -252 497 -257 497 c 1
 -263 499 -291 510 -291 530 c 0xb0
 -291 555 -261 567 -246 574 c 0
 -226 583 -215 594 -215 611 c 0
 -215 627 -225 643 -243 643 c 0
 -263 643 -275 634 -275 607 c 0
 -275 592 -293 587 -305 587 c 0
 -312 587 -321 591 -321 596 c 0
 -321 630 -271 672 -228 672 c 0xd0
EndSplineSet
EndChar

StartChar: uni030A
Encoding: 778 778 342
Width: 0
GlyphClass: 4
Flags: W
HStem: 498 34<-293.32 -217.027> 643 34<-294.737 -216.575>
VStem: -343 33<548.832 626.822> -201 33<548.832 626.822>
LayerCount: 2
Fore
SplineSet
-310 588 m 0
 -310 557 -285 532 -255 532 c 0
 -225 532 -201 557 -201 588 c 0
 -201 619 -225 643 -255 643 c 0
 -285 643 -310 619 -310 588 c 0
-343 588 m 0
 -343 637 -303 677 -255 677 c 0
 -207 677 -168 637 -168 588 c 0
 -168 539 -207 498 -255 498 c 0
 -303 498 -343 539 -343 588 c 0
EndSplineSet
EndChar

StartChar: uni030C
Encoding: 780 780 344
Width: 0
GlyphClass: 4
Flags: W
HStem: 497 154
VStem: -360 210
LayerCount: 2
Fore
SplineSet
-255 497 m 0
 -259 497 -263 501 -266 506 c 0
 -300 561 -321 587 -360 638 c 1
 -360 645 -354 651 -349 651 c 1
 -310 617 -255 568 -255 568 c 25
 -255 568 -200 617 -161 651 c 1
 -156 651 -150 645 -150 638 c 1
 -189 587 -210 561 -244 506 c 0
 -247 501 -251 497 -255 497 c 0
EndSplineSet
EndChar

StartChar: uni0312
Encoding: 786 786 345
Width: 0
GlyphClass: 4
Flags: W
HStem: 498 181<-285 -217>
VStem: -307 64<543 622.267>
LayerCount: 2
Fore
SplineSet
-206 553 m 0
 -206 528 -225 498 -285 498 c 1
 -297 508 -307 535 -307 551 c 0
 -307 620 -250 664 -225 677 c 0
 -224 678 -221 679 -217 679 c 0
 -204 679 -197 675 -197 672 c 0
 -197 667 -243 637 -243 613 c 0
 -243 586 -206 583 -206 553 c 0
EndSplineSet
EndChar

StartChar: uni0315
Encoding: 789 789 346
Width: 0
GlyphClass: 4
Flags: W
HStem: 461 213
VStem: -245 58<529.479 628.5>
LayerCount: 2
Fore
SplineSet
-223 674 m 0
 -216 674 -207 671 -201 668 c 1
 -195 658 -187 645 -187 612 c 0
 -187 562 -217 505 -257 461 c 1
 -263 461 -276 467 -276 472 c 1
 -258 495 -245 523 -245 553 c 0
 -245 600 -273 598 -273 632 c 0
 -273 650 -254 674 -223 674 c 0
EndSplineSet
EndChar

StartChar: uni0326
Encoding: 806 806 348
Width: 0
GlyphClass: 4
Flags: W
HStem: -229 183
VStem: -272 63<-164.919 -88.5>
LayerCount: 2
Fore
SplineSet
-251 -46 m 0
 -239 -46 -227 -50 -219 -55 c 1
 -213 -64 -209 -81 -209 -96 c 0
 -209 -155 -257 -207 -308 -229 c 1
 -316 -227 -324 -218 -324 -214 c 1
 -310 -207 -272 -178 -272 -148 c 0
 -272 -127 -307 -131 -307 -90 c 0
 -307 -81 -296 -46 -251 -46 c 0
EndSplineSet
EndChar

StartChar: uni0327
Encoding: 807 807 349
Width: 0
GlyphClass: 4
Flags: W
HStem: -152 24<-296.951 -232.613> -61 34<-255 -227.586>
VStem: -223 37<-122.34 -64.0801>
LayerCount: 2
Fore
SplineSet
-255 -27 m 1
 -230 -27 l 2
 -204 -27 -186 -50 -186 -76 c 0
 -186 -123 -228 -152 -280 -152 c 0
 -292 -152 -308 -147 -314 -143 c 1
 -315 -138 -317 -135 -317 -129 c 0
 -317 -122 -309 -115 -303 -115 c 0
 -291 -115 -282 -128 -266 -128 c 0
 -238 -128 -223 -112 -223 -95 c 0
 -223 -71 -241 -61 -254 -61 c 0
 -265 -61 -270 -64 -280 -68 c 0
 -282 -68 -292 -59 -290 -55 c 0
 -281 -40 -266 -18 -258 -4 c 1
 -237 -4 l 1
 -255 -27 l 1
EndSplineSet
EndChar

StartChar: uni0328
Encoding: 808 808 350
Width: 0
GlyphClass: 4
Flags: W
HStem: -218 59<-276.495 -203.867>
VStem: -335 54<-155.236 -80.9335>
LayerCount: 2
Fore
SplineSet
-181 42 m 0
 -164 42 -140 37 -152 25 c 0
 -175 3 -281 -52 -281 -116 c 0
 -281 -131 -274 -159 -240 -159 c 0
 -189 -159 -165 -121 -159 -121 c 0
 -158 -121 -154 -126 -154 -134 c 0
 -154 -139 -156 -147 -159 -151 c 0
 -181 -180 -219 -218 -264 -218 c 0
 -320 -218 -335 -168 -335 -141 c 0
 -335 -75 -210 42 -181 42 c 0
EndSplineSet
EndChar

StartChar: alpha
Encoding: 945 945 351
Width: 503
Flags: W
HStem: -9 39<116.242 191.019> -3 75<350.063 438.184> 369 68<186.335 268.912>
VStem: 41 60<54.7024 241.37> 296 34<279 339.3> 385 56<376.453 403.439>
LayerCount: 2
Fore
SplineSet
330 133 m 1xbc
 340 78 360 72 385 72 c 0
 419 72 458 106 463 117 c 1
 471 114 476 99 476 94 c 1
 476 86 447 -3 397 -3 c 0x7c
 355 -3 313 54 308 103 c 1
 262 37 234 -9 171 -9 c 0
 92 -9 41 48 41 163 c 0
 41 235 89 437 217 437 c 0
 267 437 326 372 326 279 c 1
 353 345 374 407 385 436 c 1
 402 436 441 410 441 382 c 0
 441 355 420 302 403 266 c 0
 379 216 330 133 330 133 c 1xbc
235 369 m 0
 157 369 101 219 101 115 c 0
 101 53 124 30 145 30 c 0xbc
 215 30 296 186 296 219 c 1
 296 298 289 369 235 369 c 0
EndSplineSet
EndChar

StartChar: beta
Encoding: 946 946 352
Width: 473
Flags: W
HStem: -228 21G<129 137> -6 64<211.224 332.719> 302 66<200.281 245.412> 638 55<188.82 304.288>
VStem: 72 63<-209.944 230.458> 72 51<155.054 544.913> 327 41<461.397 612.525> 380 53<108.812 283.217>
LayerCount: 2
Fore
SplineSet
166 94 m 1xf7
 173 88 210 58 262 58 c 0
 328 58 380 98 380 206 c 0
 380 272 335 332 302 339 c 0
 298.087 339.83 294 336 290 334 c 1
 264 311 241 304 228 302 c 1
 222 305 210 312 202 322 c 24
 195 331 191 338 191 350 c 0
 191 357 197 363 207 368 c 0
 289 406 327 472 327 552 c 0
 327 602 299 638 251 638 c 0
 153 638 123 520 123 376 c 0xf7
 123 330 134 59 135 0 c 0
 136 -70 149 -190 157 -211 c 1
 150 -221 142 -228 132 -228 c 0
 126 -228 72 -207 72 -192 c 2xfb
 72 401 l 2
 72 602 135 693 237 693 c 0
 340 693 368 592 368 510 c 0
 368 461 350 405 321 368 c 1
 383 342 433 282 433 178 c 0
 433 72 372 -6 281 -6 c 0
 213 -6 172 49 163 69 c 1
 161 76 162 89 166 94 c 1xf7
EndSplineSet
EndChar

StartChar: gamma
Encoding: 947 947 353
Width: 452
Flags: W
HStem: -226 21G<195.5 209.5> 362 71<37.9092 137.543>
VStem: 152 81<-204.556 -71.7344> 212 26<83 185.877> 363 51<310.92 416.603>
LayerCount: 2
Fore
SplineSet
0 353 m 1xd8
 13 397 53 433 93 433 c 0
 182 432 221 292 235 155 c 0
 236.325 142.029 238 88 238 83 c 1xd8
 274 156 306.485 212.457 334 290 c 0
 356 352 363 408 363 422 c 0
 363 428 372 436 374 436 c 0
 388 436 414 373 414 355 c 0
 414 333 407 292 379 226 c 0
 343 142 270 20 248 -16 c 1
 245 -34 242 -138 233 -197 c 0
 230 -215 216 -226 203 -226 c 0
 188 -226 152 -183 152 -164 c 0xe8
 152 -146 183 -34 212 40 c 1
 212 44 210 103 207 132 c 0
 185.417 340.632 122 362 78 362 c 0
 52 362 19 343 12 334 c 1
 6 334 0 347 0 353 c 1xd8
EndSplineSet
EndChar

StartChar: delta
Encoding: 948 948 354
Width: 423
Flags: W
HStem: -6 53<127.422 256.932>
VStem: 41 52<93.2023 264.795> 88 65<570.973 659> 322 62<116.729 278.304>
LayerCount: 2
Fore
SplineSet
88 650 m 0xb0
 88 668 114 696 159 690 c 0
 228 681 337 573 357 541 c 0
 367 525 374 504 374 493 c 0
 374 489 366 479 364 482 c 1
 339 518 226 624 170 624 c 0
 157 624 153 617 153 607 c 0xb0
 153 565 178 524 250 438 c 0
 306 372 384 289 384 178 c 0
 384 82 324 -6 211 -6 c 0
 76 -6 41 126 41 200 c 0xd0
 41 340 103 392 164 422 c 1
 185 420 213 419 232 408 c 1
 163 492 88 569 88 650 c 0xb0
253 376 m 1
 176 376 93 277 93 169 c 0xd0
 93 99 121 47 191 47 c 0
 256 47 322 103 322 217 c 0
 322 284 292 335 253 376 c 1
EndSplineSet
EndChar

StartChar: epsilon
Encoding: 949 949 355
Width: 349
Flags: W
HStem: -5 59<95.3569 258.776> 198 62<144.99 236.855> 374 61<126.179 264.271>
VStem: 43 38<69.4015 149.858> 51 46<250.815 345.274>
LayerCount: 2
Fore
SplineSet
293 363 m 1xe8
 278 369 257 374 231 374 c 0
 156 374 97 357 97 295 c 0xe8
 97 265 127 239 144 238 c 1
 165 247 194 260 219 260 c 0
 225 260 234 258 237 256 c 1
 248 246 260 231 260 215 c 0
 260 212 260 198 252 198 c 0
 181 198 81 170 81 109 c 0
 81 67 120 54 155 54 c 0
 223 54 281 83 319 110 c 1
 323 110 325 106 325 102 c 0
 325 95 323 84 321 77 c 1
 305 42 257 -5 179 -5 c 0
 99 -5 43 42 43 112 c 0xf0
 43 162 77 199 110 218 c 1
 75 232 51 273 51 308 c 0
 51 384 111 435 178 435 c 0
 236 435 279 407 294 390 c 1
 296 384 297 368 293 363 c 1xe8
EndSplineSet
EndChar

StartChar: zeta
Encoding: 950 950 356
Width: 382
VWidth: 295
Flags: W
HStem: -3 71<101.527 299.059> 12 74<162.559 329.036> 673 20G<343 363.5> 674 10<172.74 179.488>
VStem: 47 38<88.6727 252.782> 78 60<571.813 651.768> 330 47<-45.845 42>
LayerCount: 2
Fore
SplineSet
301 -104 m 1x4a
 297 -104 280 -103 280 -93 c 1
 298 -83 330 -53 330 -14 c 0
 330 6 312 12 293 12 c 3x4a
 275.393 12 253.226 7.97754 229 4.09863 c 0
 206.446 0.486328 182.107 -3 158 -3 c 3
 72 -3 47 52 47 132 c 1x8a
 47 254 110 396 193 536 c 1
 193 536 78 544 78 606 c 0
 78 662 156 681 166 684 c 1
 176 684 180 679 180 674 c 1
 161 664 138 629 138 608 c 0x96
 138 567 188 559 209 559 c 1
 260 629 329 693 357 693 c 0
 370 693 387 656 387 645 c 0
 387 630 385 622 366 608 c 0
 350 596 307 566 281 546 c 0
 213 492 85 282 85 153 c 0
 85 72 131 68 165 68 c 3xaa
 186.02 68 210.72 72.7314 236 77.3428 c 0
 260.029 81.7256 284.583 86 307 86 c 3
 357 86 377 56 377 28 c 0
 377 -34 329 -86 301 -104 c 1x4a
EndSplineSet
EndChar

StartChar: eta
Encoding: 951 951 357
Width: 488
Flags: W
HStem: -227 21G<410.5 419.5> -6 21G<162 173> 362 71<51.1115 131.056 276.434 363.365>
VStem: 111 80<9.07266 167.851> 151 40<160.187 240.245> 379 38<81.9445 344.041>
LayerCount: 2
Fore
SplineSet
26 332 m 1xec
 21 332 13 345 13 353 c 1
 26 397 66 433 106 433 c 0
 154 432 167 365 176 301 c 1
 206 371 250 440 316 440 c 0
 374 440 410 379 417 290 c 0
 426 171 418 -130 440 -209 c 1
 435 -217 424 -227 415 -227 c 0
 406 -227 351 -198 352 -182 c 0
 356 -110 379 87 379 266 c 0
 379 324 361 363 326 363 c 0
 269 363 217 272 191 190 c 1xec
 191 166 191 159 191 136 c 0
 191 123 190 52 191 14 c 1
 186 6 179 -6 167 -6 c 0
 157 -6 111 18 111 31 c 0xf4
 111 49 118 99 137 188 c 0
 138 194 151 247 151 247 c 1
 151 328 129 362 83 362 c 0
 57 362 33 341 26 332 c 1xec
EndSplineSet
EndChar

StartChar: theta
Encoding: 952 952 358
Width: 468
VWidth: 390
Flags: W
HStem: -5 39<178.265 262.696> 329 40<124.965 350.905> 656 39<211.941 294.703>
VStem: 47 74<176.48 325.203 371.207 491.204> 352 71<185.215 325.203 373.063 511.521>
LayerCount: 2
Fore
SplineSet
234 369 m 0
 268 369 325 372 353 375 c 1
 350 491 335 656 253 656 c 0
 186 656 136 519 124 373 c 1
 144 370 202 369 234 369 c 0
237 695 m 0
 345 695 423 531 423 354 c 0
 423 161 345 -5 237 -5 c 0
 129 -5 47 147 47 340 c 0
 47 533 129 695 237 695 c 0
352 323 m 1
 329 326 283 329 234 329 c 0
 187 329 145 327 121 322 c 1
 121 320 121 319 121 317 c 0
 121 201 138 34 219 34 c 0
 292 34 344 162 352 323 c 1
EndSplineSet
EndChar

StartChar: iota
Encoding: 953 953 359
Width: 227
Flags: W
HStem: -3 60<107.5 182.536> 413 20G<87 95>
VStem: 67 78<146.829 416.534> 67 59<62.6073 332.588>
LayerCount: 2
Fore
SplineSet
126 -3 m 3xd0
 89 -3 67 28 67 89 c 0xd0
 67 112 67 288 67 416 c 17
 74 426 82 433 92 433 c 0
 98 433 145 407 145 392 c 1xe0
 137 280 126 206.02 126 106 c 0
 126 59 162 57 174 57 c 0
 186 57 195 58 202 62 c 1
 207 58 209 53 209 48 c 1
 205 38 169 -3 126 -3 c 3xd0
EndSplineSet
EndChar

StartChar: kappa
Encoding: 954 954 360
Width: 474
Flags: W
HStem: -4 66<330.059 421.19> 362 71<53.1115 126.219> 386 50<341.41 421.762>
VStem: 96 87<15.4237 139.57>
LayerCount: 2
Fore
SplineSet
446 49 m 1xb0
 436 32 412 -4 358 -4 c 0
 284 -4 212 137 189 195 c 1
 188 193 184 182 184 180 c 0
 184 172 183 171 183 148 c 0
 183 98 177 44 173 14 c 1
 168 6 161 -6 149 -6 c 0
 139 -6 96 18 96 31 c 0
 96 49 108 104 129 180 c 0
 131 186 143 241 143 241 c 1
 143 322 131 362 85 362 c 0
 59 362 35 341 28 332 c 1
 23 332 15 346 15 353 c 1
 28 397 68 433 108 433 c 0xd0
 156 432 159 342 168 278 c 1
 198 348 278 436 348 436 c 0
 364 436 436 416 436 399 c 0
 436 396 436 388 435 386 c 1
 323 386 247 301 209 228 c 1
 237 159 326 62 393 62 c 0
 423 62 440 74 445 77 c 1
 450 73 449 58 446 49 c 1xb0
EndSplineSet
EndChar

StartChar: lambda
Encoding: 955 955 361
Width: 482
VWidth: 255
Flags: W
HStem: -3 61<382.611 456.131> 618 78<119.805 178.603>
VStem: 82 13<599.201 602.391>
LayerCount: 2
Fore
SplineSet
95 595 m 1
 90 595 82 608 82 616 c 1
 95 660 135 696 175 696 c 0
 251 696 276 492 294 354 c 0
 309 237 331 162 346 129 c 0
 381 54 433 58 446 58 c 0
 457 58 466 64 470 68 c 1
 474 68 478 54 478 46 c 1
 473 38 448 -3 405 -3 c 0
 306 -3 282 207 265 302 c 1
 234 239 135 72 103 30 c 0
 84.3301 5.49609 75 -4 48 -4 c 0
 29 -4 3 14 0 32 c 1
 51 52 169 273 245 424 c 1
 234 540 181 618 135 618 c 0
 113 618 102 604 95 595 c 1
EndSplineSet
EndChar

StartChar: mu
Encoding: 956 956 362
Width: 493
Flags: W
HStem: -227 21G<103 114> -4 70<143.214 220.762 374.495 441.925> 417 20G<90 101 321 332>
VStem: 72 77<250.141 422.656> 72 43<108.623 298.513> 303 77<250.141 422.656>
LayerCount: 2
Fore
SplineSet
468 96 m 1xf4
 473 96 480 82 480 76 c 1
 467 32 427 -4 387 -4 c 0
 339 -3 324 115 322 142 c 1
 292 72 255 -9 178 -9 c 0
 136 -9 120 71 115 101 c 1xec
 117 76 110 -89 132 -207 c 1
 127 -215 120 -227 108 -227 c 0
 98 -227 55 -203 55 -190 c 0
 55 -172 64 100 76 204 c 1
 76 228 72 275 72 298 c 0
 72 311 73 379 72 417 c 1
 77 425 84 437 96 437 c 0
 106 437 149 413 149 400 c 0
 149 382 145 335 126 246 c 0
 125 240 121 223 121 223 c 0
 121 144 136 64 172 64 c 0
 226 64 278 155 303 227 c 1
 303 251 303 275 303 298 c 0
 303 311 304 379 303 417 c 1
 308 425 315 437 327 437 c 0
 337 437 380 413 380 400 c 0
 380 382 371 335 357 246 c 0
 355 236 347 195 347 195 c 1
 347 124 371 66 417 66 c 0
 443 66 461 87 468 96 c 1xf4
EndSplineSet
EndChar

StartChar: nu
Encoding: 957 957 363
Width: 416
Flags: W
HStem: -4 21G<177.526 220.026> 416 20G<364.026 368.026>
VStem: 163.526 33<109.955 208.803> 357.526 23<367.004 432.416>
LayerCount: 2
Fore
SplineSet
8.52637 346 m 1
 3.52637 346 -0.473633 366 1.52637 372 c 1
 21.5264 415 57.5264 444 98.5264 432 c 0
 169.526 411 195.526 286 195.526 188 c 0
 195.526 154 196.526 125 196.526 111 c 1
 196.526 110 199.526 109 200.526 110 c 1
 282.526 190 343.526 312 357.526 422 c 1
 358.526 427 362.526 436 365.526 436 c 1
 370.526 436 380.526 406 380.526 372 c 1
 380.526 268 260.526 -4 179.526 -4 c 0
 175.526 -4 163.526 3 163.526 10 c 1
 163.526 163 156.526 337 62.5264 364 c 0
 40.5264 370 16.5264 354 8.52637 346 c 1
EndSplineSet
EndChar

StartChar: xi
Encoding: 958 958 364
Width: 402
VWidth: 295
Flags: W
HStem: -4 69<87.7573 285.581> 12 74<133.244 315.559> 305 79<254.234 340.173> 672 20G<147 157>
VStem: 43 37<73.5154 178.39> 72 63<590.082 658.471> 72 50<344.755 458.988> 316 46<-46.5344 42.5>
LayerCount: 2
Fore
SplineSet
80 119 m 0xb9
 80 93 92 65 123 65 c 0xb9
 152 65 181 70 209 75 c 0
 239 81 268 86 293 86 c 0
 341 86 362 57 362 28 c 0
 362 -38 310 -89 288 -104 c 1
 282 -104 266 -100 266 -90 c 1
 280 -82 316 -56 316 -14 c 0
 316 5 301 12 280 12 c 0x79
 266 12 243 8 219 4 c 0
 193 0 165 -4 141 -4 c 0
 74 -4 43 46 43 112 c 0xb9
 43 187 89 263 147 301 c 1
 117 312 72 346 72 412 c 0xb3
 72 489 130 545 147 560 c 1
 147 560 72 562 72 610 c 0
 72 666 142 689 152 692 c 1
 162 692 169 686 169 681 c 1
 153 672 135 641 135 626 c 0xb5
 135 599 154 586 174 586 c 1
 241 640 292 673 331 673 c 0
 355 673 358 632 358 621 c 0
 358 601 294 569 248 557 c 1
 207 533 122 467 122 392 c 0xb3
 122 358 151 329 184 329 c 1
 227 353 294 384 325 384 c 0
 338 384 348 380 348 368 c 0
 348 341 337 313 327 305 c 1
 246 293 80 225 80 119 c 0xb9
EndSplineSet
EndChar

StartChar: omicron
Encoding: 959 959 365
Width: 465
Flags: W
HStem: -7 60<149.558 288.778> 375 62<175.965 309.699>
VStem: 41 55<113.863 285.496> 367 57<143.343 306.814>
LayerCount: 2
Fore
SplineSet
96 189 m 0
 96 93 153 53 213 53 c 0
 304 53 367 134 367 243 c 0
 367 327 319 375 249 375 c 0
 157 375 96 286 96 189 c 0
41 221 m 0
 41 352 114 437 225 437 c 0
 341 437 424 325 424 201 c 0
 424 86 351 -7 239 -7 c 0
 111 -7 41 107 41 221 c 0
EndSplineSet
EndChar

StartChar: pi
Encoding: 960 960 366
Width: 474
VWidth: 255
Flags: W
HStem: -3 63<377.772 437.903> 348 73<336 450.347> 362 72<73.5 172>
VStem: 305 31<166.272 350>
LayerCount: 2
Fore
SplineSet
172 362 m 1xb0
 89 362 63 342 46 306 c 1
 43 303 36 303 31 305 c 1
 29 310 27 326 27 336 c 3
 27 421 109 434 153 434 c 0xb0
 239 434 268 421 366 421 c 0
 423 421 456 433 468 444 c 1
 473 444 485 440 486 435 c 1
 486 428 469 348 386 348 c 0xd0
 374 348 361 348 336 350 c 1
 340 285 346 186 358 125 c 0
 368 74 401 60 423 60 c 0
 435 60 449 65 455 69 c 1
 459 66 462 57 462 52 c 1
 462 44 428 -3 391 -3 c 3
 344 -3 320 38 315 88 c 0
 306 175 304 290 305 353 c 1
 274 356 237 358 205 360 c 1
 199 290 169 32 147 0 c 1
 140 -2 132 -3 126 -3 c 0
 102 -3 73 29 73 37 c 1
 122 125 155 194 172 362 c 1xb0
EndSplineSet
EndChar

StartChar: rho
Encoding: 961 961 367
Width: 466
Flags: W
HStem: -228 21G<118.653 126.653> -6 62<170.282 292.191> 375 62<183.588 310.752>
VStem: 62.6533 51.9997<-154.738 67 87.7034 287.275> 368.653 57<140.948 312.658>
LayerCount: 2
Fore
SplineSet
146.653 -211 m 1
 139.653 -221 131.653 -228 121.653 -228 c 0
 115.653 -228 61.6533 -207 61.6533 -192 c 2
 61.6533 -192 59.6533 225 62.6533 252 c 0
 77.6533 376 144.653 437 222.653 437 c 0
 343.653 437 425.653 332 425.653 206 c 0
 425.653 83 352.653 -6 250.653 -6 c 0
 181.653 -6 133.653 39 115.653 67 c 1
 115.653 -40 138.653 -190 146.653 -211 c 1
224.653 56 m 0
 295.653 56 368.653 122 368.653 240 c 0
 368.653 352 298.653 375 250.653 375 c 0
 149.653 375 114.653 264 114.653 164 c 0
 114.653 150 116.018 121.749 118.653 116 c 0
 129.653 92 151.653 56 224.653 56 c 0
EndSplineSet
EndChar

StartChar: sigma1
Encoding: 962 962 368
Width: 409
VWidth: 295
Flags: W
HStem: -3 70<101.392 289.119> 14 74<159.135 323.02> 370 68<189.235 319.074>
VStem: 43 39<89.3609 247.773> 324 47<-46.8488 46.5>
LayerCount: 2
Fore
SplineSet
353 350 m 1xb8
 346 353 313 370 275 370 c 3
 175 370 82 290 82 147 c 0
 82 80 127 67 161 67 c 3xb8
 202 67 251 88 297 88 c 3
 347 88 371 64 371 29 c 0
 371 -39 323 -84 295 -104 c 1
 291 -104 274 -103 274 -93 c 1
 292 -83 324 -52 324 -13 c 0
 324 8 304 14 285 14 c 3x78
 251 14 203 -3 153 -3 c 3
 67 -3 43 54 43 159 c 0
 43 330 144 438 229 438 c 3
 313 438 348 395 358 380 c 1
 361 372 358 352 353 350 c 1xb8
EndSplineSet
EndChar

StartChar: sigma
Encoding: 963 963 369
Width: 490
Flags: W
HStem: -7 60<150.211 287.167> 348 73<321.201 492.347> 375 61<172.748 315.154>
VStem: 41 55<113.012 291.153> 357 57<133.462 296.015>
LayerCount: 2
Fore
SplineSet
428 348 m 0xd8
 413 348 377 350 353 355 c 1
 369 339 414 277 414 207 c 0
 414 76 350 -8 239 -7 c 0
 111 -7 41 107 41 221 c 0
 41 352 113 437 224 436 c 0xb8
 310 436 326 421 408 421 c 0
 465 421 498 433 510 444 c 1
 515 444 527 440 528 435 c 1
 528 428 511 348 428 348 c 0xd8
249 375 m 0
 157 375 96 299 96 190 c 0
 96 95 149 53 213 53 c 0
 305.005 53 357 132 357 241 c 0
 357 293 332 346 304 364 c 0
 295 370 275 375 249 375 c 0
EndSplineSet
EndChar

StartChar: tau
Encoding: 964 964 370
Width: 415
VWidth: 255
Flags: W
HStem: -3 63<205.5 281.205> 348 73<191.045 379.353> 362 72<64.7402 302.428>
VStem: 153 60<76.4725 257.781>
LayerCount: 2
Fore
SplineSet
164 362 m 0xb0
 83 362 55 342 38 306 c 1
 35 303 28 303 23 305 c 1
 21 310 19 326 19 336 c 0
 19 421 101 434 145 434 c 0xb0
 204 434 271 421 304 421 c 0
 361 421 385 433 397 444 c 1
 402 444 414 440 415 435 c 1
 415 428 398 348 315 348 c 0xd0
 293.188 348 267.519 352.865 232.693 356.859 c 1
 220.779 312.044 213 206.497 213 148 c 0
 213 78 249 60 271 60 c 0
 283 60 297 65 303 69 c 1
 307 66 309 59 309 54 c 0
 309 46 274 -3 225 -3 c 0
 186 -3 153 37.751 153 88 c 0
 153 168.913 183.184 295.588 197.434 360.421 c 1
 185.575 361.388 174.241 362 164 362 c 0xb0
EndSplineSet
EndChar

StartChar: upsilon
Encoding: 965 965 371
Width: 406
Flags: W
HStem: -6 64<114.798 230.313> 412 20G<34.5479 46.5479 257.048 264.047>
VStem: 33.0479 54<83.7065 229.925> 70.0479 71.0001<260.846 387.255> 310.047 55<151.423 357.773>
LayerCount: 2
Fore
SplineSet
35.0479 410 m 1xd8
 32.0479 413 32.0479 432 37.0479 432 c 1
 56.0479 432 141.048 406 141.048 322 c 0xd8
 141.048 288 87.0479 206 87.0479 141 c 0
 87.0479 87 115.048 58 169.048 58 c 3
 221.048 58 310.047 112 310.047 266 c 0
 310.047 343 272.521 402 252.048 424 c 1
 252.048 427 255.048 432 259.047 434 c 1
 269.047 434 318.208 401.11 325.047 391 c 0
 348.047 357 365.047 305 365.047 221 c 0
 365.047 80 294.047 -6 187.048 -6 c 3
 112.048 -6 33.0479 64 33.0479 180 c 3xe8
 33.0479 242 70.0479 304 70.0479 356 c 0
 70.0479 382 46.0479 403 35.0479 410 c 1xd8
EndSplineSet
EndChar

StartChar: phi
Encoding: 966 966 372
Width: 594
Flags: W
HStem: -228 21G<319 327> -10 66<173 262 325 382.153> 378 54<359.974 464.694> 393 39<229.298 246.551>
VStem: 38 45<109.977 259.871> 262 63<-209.998 -8.18457> 262 53<61.7783 315.671> 503 51<171.544 327.581>
LayerCount: 2
Fore
SplineSet
325 -11 m 1xed
 327 -82 339 -191 347 -211 c 1
 340 -221 332 -228 322 -228 c 0
 316 -228 262 -207 262 -192 c 2
 262 -10 l 1xed
 134 2 38 88 38 194 c 0
 38 326 152 432 206 432 c 0
 234 432 285 418 285 393 c 1
 218 386 83 296 83 178 c 0
 83 93 150 56 254 56 c 0
 257 56 259 56 262 56 c 1
 262 141 l 2xdb
 262 342 300 432 397 432 c 0
 476 432 554 340 554 226 c 0
 554 75 422 0 325 -11 c 1xed
319 60 m 1
 401 68 503 135 503 265 c 0
 503 334 472 378 408 378 c 0
 335 378 315 266 315 162 c 0xeb
 315 131.983 317 98 319 60 c 1
EndSplineSet
EndChar

StartChar: chi
Encoding: 967 967 373
Width: 445
VWidth: 255
Flags: W
HStem: -226 60<334.563 409.75> 364 70<61.5853 131.391>
VStem: 21 63<-212.023 -148.487> 363 48<365.523 418.564>
LayerCount: 2
Fore
SplineSet
432 -176 m 1
 427 -184 402 -226 359 -226 c 0
 266 -227 240 -35 223 54 c 1
 176 -11 96 -129 84 -225 c 1
 80 -226 77 -227 71 -227 c 0
 47 -227 21 -187 21 -179 c 1
 39 -74 153 72 207 138 c 1
 201 212 160 364 83 364 c 0
 61 364 41 344 37 339 c 1
 32 339 24 352 24 359 c 1
 36 396 77 434 117 434 c 0
 181 434 221 292 240 171 c 1
 305 269 342 360 363 428 c 1
 367 432 371 434 373 434 c 0
 378 434 411 397 411 366 c 0
 411 318 327 184 254 87 c 1
 268 -6 289 -73 303 -101 c 0
 338 -171 384 -166 397 -166 c 0
 411 -166 422 -160 426 -156 c 1
 430 -156 433 -170 432 -176 c 1
EndSplineSet
EndChar

StartChar: psi
Encoding: 968 968 374
Width: 571
Flags: W
HStem: -228 21G<312 320> -7 61<316 368.729> -7 53<172.294 254> 412 20G<50 61.5 409 416>
VStem: 45 62<112.757 247.94> 85 68<268.583 396.113> 239 78<275.972 523.326> 255 53<54 375.057> 478 54<170.623 329.067>
LayerCount: 2
Fore
SplineSet
153 345 m 0xb480
 153 280 107 220 107 164 c 0
 107 80 161 46 236 46 c 0
 243 46 248 46 255 47 c 1
 255 80 255 125 255 154 c 0xb980
 255 308 246 488 239 509 c 1
 254 522 276 532 292 532 c 0
 297 532 317 530 317 518 c 2xb280
 317 518 308 266 308 162 c 0
 308 131.983 309 92 311 54 c 1
 414 78 478 164 478 271 c 0
 478 348 421 401 402 424 c 1
 402 431 407 432 411 432 c 0
 421 432 451 416 463 402 c 0
 491 368 532 309 532 234 c 0
 532 92 419 4 316 -7 c 1xd180
 318 -78 332 -191 340 -211 c 1
 333 -221 325 -228 315 -228 c 0
 309 -228 255 -207 255 -192 c 2
 254 -7 l 1
 159 -4 45 83 45 196 c 0xb980
 45 251 85 295 85 356 c 0
 85 378 59 410 48 417 c 1
 46 420 48 430 52 432 c 1
 71 432 153 410 153 345 c 0xb480
EndSplineSet
EndChar

StartChar: omega
Encoding: 969 969 375
Width: 597
Flags: W
HStem: -6 59<108.987 215.355> -5 66<352.473 455.489> 425 9<381.039 386.843>
VStem: 41 41<82.1521 247.844> 260 59<103.472 278.795> 498 58<109.552 273.051>
LayerCount: 2
Fore
SplineSet
401 61 m 0x7c
 469 61 498 136 498 203 c 0
 498 320 412 406 381 425 c 1
 381 431 382 434 386 434 c 24
 404 433 421 428 430 422 c 1
 471 392 556 280 556 170 c 0
 556 51 487 -5 416 -5 c 0x7c
 353 -5 311 54 301 90 c 1
 277 28 238 -6 180 -6 c 0
 92 -6 41 78 41 174 c 0
 41 325 114 413 144 435 c 1
 153 435 166 428 174 422 c 0
 184 414 196 399 196 386 c 0
 196 382 188 377 181 371 c 0
 137 334 82 236 82 156 c 0
 82 101 105 53 158 53 c 0xbc
 234 53 260 133 260 204 c 0
 260 240 258 262 256 273 c 1
 260 282 266 288 273 288 c 0
 287 288 324 263 326 254 c 1
 326 234 319 170 319 141 c 0
 319 117 346 61 401 61 c 0x7c
EndSplineSet
EndChar

StartChar: phi1
Encoding: 981 981 378
Width: 591
Flags: W
HStem: -228 21G<319 327> 382 68<201.929 263> 673 20G<294 304.5>
VStem: 39 48<127.533 268.906> 249 77<455.419 684.326> 268 50<-181.453 -11.062 57 382 451.565 669.334> 514 38<173.079 316.677>
LayerCount: 2
Fore
SplineSet
324 -12 m 1xfa
 326 -83 339 -191 347 -211 c 1
 340 -221 332 -228 322 -228 c 0
 316 -228 262 -207 262 -192 c 2
 262 -12 l 1
 143 -5 39 99 39 219 c 0
 39 345 140 432 263 450 c 1
 259 566 253 657 249 670 c 1
 264 683 286 693 302 693 c 0
 307 693 326 691 326 679 c 2
 326 679 324 578 323 453 c 1
 477 440 552 353 552 221 c 0
 552 73 415 0 324 -12 c 1xfa
264 382 m 1
 147 362 87 260 87 187 c 0
 87 78 196 52 265 52 c 1
 267 111 268 147 268 222 c 0xf6
 268 277 266 322 264 382 c 1
321 387 m 1
 320 327 318 282 318 230 c 0
 318 150 319 123 321 57 c 1
 401 64 514 131 514 251 c 0
 514 350 426 387 321 387 c 1
EndSplineSet
EndChar

StartChar: uni2010
Encoding: 8208 8208 411
Width: 378
Flags: W
HStem: 199 62<60.6239 215.957> 210 63<169.043 317.493>
VStem: 59 261
LayerCount: 2
Fore
SplineSet
59 210 m 0x60
 59 258 68 261 71 261 c 2
 72 261 l 1xa0
 313 273 l 1
 314 273 l 2
 316 273 320 272 320 264 c 0
 320 215 307 210 307 210 c 1x60
 66 199 l 1xa0
 66 199 59 198 59 210 c 0x60
EndSplineSet
EndChar

StartChar: uni2011
Encoding: 8209 8209 412
Width: 378
Flags: W
HStem: 199 62<60.6239 215.957> 210 63<169.043 317.493>
VStem: 59 261
LayerCount: 2
Fore
SplineSet
59 210 m 0x60
 59 258 68 261 71 261 c 2
 72 261 l 1xa0
 313 273 l 1
 314 273 l 2
 316 273 320 272 320 264 c 0
 320 215 307 210 307 210 c 1x60
 66 199 l 1xa0
 66 199 59 198 59 210 c 0x60
EndSplineSet
EndChar

StartChar: figuredash
Encoding: 8210 8210 413
Width: 529
Flags: W
HStem: 200 62<61.5596 462.904>
LayerCount: 2
Fore
SplineSet
58 209 m 0
 58 211 61 262 72 262 c 2
 466 262 l 2
 468 262 471 261 471 255 c 0
 471 250 468 225 463 207 c 0
 461 201 456 200 456 200 c 1
 64 200 l 1
 64 200 58 199 58 209 c 0
EndSplineSet
EndChar

StartChar: endash
Encoding: 8211 8211 414
Width: 564
Flags: W
HStem: 200 62<63.5596 495.904>
LayerCount: 2
Fore
SplineSet
60 209 m 0
 60 211 63 262 74 262 c 2
 499 262 l 2
 501 262 505 261 505 253 c 0
 505 235 497 211 496 207 c 0
 494 201 489 200 489 200 c 1
 66 200 l 1
 66 200 60 199 60 209 c 0
EndSplineSet
EndChar

StartChar: emdash
Encoding: 8212 8212 415
Width: 856
Flags: W
HStem: 210 62<63.5596 787.903>
LayerCount: 2
Fore
SplineSet
60 219 m 0
 60 221 63 272 74 272 c 2
 790 272 l 2
 792 272 796 271 796 263 c 0
 796 245 789 221 788 217 c 0
 786 211 780 210 780 210 c 1
 66 210 l 1
 66 210 60 209 60 219 c 0
EndSplineSet
EndChar

StartChar: afii00208
Encoding: 8213 8213 416
Width: 1145
Flags: W
HStem: 210 62<63.5596 1075.9>
LayerCount: 2
Fore
SplineSet
60 219 m 0
 60 221 63 272 74 272 c 2
 1077 272 l 1
 1077 272 1085 272 1085 263 c 0
 1085 245 1077 221 1076 217 c 0
 1074 211 1069 210 1069 210 c 1
 66 210 l 1
 66 210 60 209 60 219 c 0
EndSplineSet
EndChar

StartChar: quoteleft
Encoding: 8216 8216 417
Width: 183
Flags: W
HStem: 482 224
VStem: 44 59<542.5 628.809>
LayerCount: 2
Fore
SplineSet
44 555 m 0
 44 649 145 706 154 706 c 0
 162 706 169 699 173 688 c 1
 113 652 103 606 103 597 c 0
 103 582 117 570 128 557 c 0
 137 547 144 537 144 525 c 0
 144 501 111 482 79 482 c 0
 72 482 66 483 59 485 c 1
 50 498 44 530 44 555 c 0
EndSplineSet
EndChar

StartChar: quoteright
Encoding: 8217 8217 418
Width: 192
Flags: W
HStem: 484 224
VStem: 106 58<561.191 647.5>
LayerCount: 2
Fore
SplineSet
164 635 m 0
 164 541 64 484 55 484 c 0
 47 484 39 491 35 502 c 1
 95 538 106 584 106 593 c 0
 106 607 93 619 82 632 c 0
 73 642 65 653 65 665 c 0
 65 689 98 708 130 708 c 0
 137 708 143 707 150 705 c 1
 159 692 164 660 164 635 c 0
EndSplineSet
EndChar

StartChar: quotesinglbase
Encoding: 8218 8218 419
Width: 198
Flags: W
HStem: -97 223
VStem: 87 58<-20.7027 65.5>
LayerCount: 2
Fore
SplineSet
145 53 m 0
 145 -41 45 -97 36 -97 c 0
 28 -97 20 -91 16 -80 c 1
 76 -44 87 2 87 11 c 0
 87 25 74 37 63 50 c 0
 54 60 46 71 46 83 c 0
 46 107 79 126 111 126 c 0
 118 126 124 125 131 123 c 1
 140 110 145 78 145 53 c 0
EndSplineSet
EndChar

StartChar: quotedblleft
Encoding: 8220 8220 420
Width: 327
Flags: W
HStem: 482 224
VStem: 44 59<542.5 628.809> 188 58<542.5 628.809>
LayerCount: 2
Fore
SplineSet
188 555 m 0
 188 649 288 706 297 706 c 0
 305 706 313 699 317 688 c 1
 257 652 246 606 246 597 c 0
 246 585 254 574 264 564 c 0
 275 552 287 540 287 525 c 0
 287 501 255 482 223 482 c 0
 216 482 209 483 202 485 c 1
 193 498 188 530 188 555 c 0
44 555 m 0
 44 649 145 706 154 706 c 0
 162 706 169 699 173 688 c 1
 113 652 103 606 103 597 c 0
 103 583 114 572 125 560 c 0
 135 549 144 538 144 525 c 0
 144 501 111 482 79 482 c 0
 72 482 66 483 59 485 c 1
 50 498 44 530 44 555 c 0
EndSplineSet
EndChar

StartChar: quotedblright
Encoding: 8221 8221 421
Width: 336
Flags: W
HStem: 484 224
VStem: 106 58<561.191 647.5> 249 59<561.191 647.5>
LayerCount: 2
Fore
SplineSet
308 635 m 0
 308 541 207 484 198 484 c 0
 190 484 183 491 179 502 c 1
 239 538 249 584 249 593 c 0
 249 607 236 619 225 632 c 0
 216 642 208 653 208 665 c 0
 208 689 241 708 273 708 c 0
 280 708 286 707 293 705 c 1
 302 692 308 660 308 635 c 0
164 635 m 0
 164 541 64 484 55 484 c 0
 47 484 39 491 35 502 c 1
 95 538 106 584 106 593 c 0
 106 605 98 616 88 626 c 0
 77 638 65 650 65 665 c 0
 65 689 98 708 130 708 c 0
 137 708 143 707 150 705 c 1
 159 692 164 660 164 635 c 0
EndSplineSet
EndChar

StartChar: quotedblbase
Encoding: 8222 8222 422
Width: 342
Flags: W
HStem: -99 223
VStem: 87 58<-20.7027 65.5> 230 59<-22.7027 63.5>
LayerCount: 2
Fore
SplineSet
289 51 m 0
 289 -43 188 -99 179 -99 c 0
 171 -99 164 -93 160 -82 c 1
 220 -46 230 0 230 9 c 0
 230 23 217 35 206 48 c 0
 197 58 189 69 189 81 c 0
 189 105 222 124 254 124 c 0
 261 124 267 123 274 121 c 1
 283 108 289 76 289 51 c 0
145 53 m 0
 145 -41 45 -97 36 -97 c 0
 28 -97 20 -91 16 -80 c 1
 76 -44 87 2 87 11 c 0
 87 27 72 40 60 54 c 0
 52 63 46 72 46 83 c 0
 46 107 79 126 111 126 c 0
 118 126 124 125 131 123 c 1
 140 110 145 78 145 53 c 0
EndSplineSet
EndChar

StartChar: dagger
Encoding: 8224 8224 423
Width: 399
Flags: W
HStem: -8 21G<197.5 200.5> 437 81<40.0317 105.693 293.307 358.968> 465 21<105.693 174.986 223.49 293.307> 642 20G<188.5 210.5>
VStem: 158 82<559.146 657.648> 183 32<399.651 460.923 489.038 609.698> 193 12<-7.94876 74.8876>
LayerCount: 2
Fore
SplineSet
154 486 m 8xb4
 168 486 175 492 185 505 c 1
 185 538 177 606 158 625 c 1
 158 646 177 662 200 662 c 0
 221 662 240 646 240 625 c 1
 221 606 213 538 213 505 c 1
 223 492 232 486 245 486 c 0xb8
 278 486 307 499 326 518 c 1
 347 518 364 497 364 476 c 0
 364 455 347 437 326 437 c 1xd8
 307 456 278 465 245 465 c 24xb8
 229 465 215 449 215 437 c 1xd4
 222 420 233 394 245 365 c 1
 223 227 218 171 205 4 c 1
 203 -2 202 -7 199 -8 c 1
 196 -7 195 0 193 4 c 1xd2
 180 171 175 227 153 365 c 1
 164 390 176 420 183 437 c 1xd4
 183 449 170 465 154 465 c 24xb4
 121 465 92 456 73 437 c 1
 52 437 35 455 35 476 c 0
 35 497 52 518 73 518 c 1xd4
 92 499 121 486 154 486 c 8xb4
EndSplineSet
EndChar

StartChar: daggerdbl
Encoding: 8225 8225 424
Width: 423
Flags: W
HStem: -8 21G<200.5 222.5> 136 81<52.0317 117.693 305.307 370.968> 168 21<117.693 186.986 235.49 305.307> 437 81<52.0317 117.693 305.307 370.968> 465 21<117.693 186.986 235.49 305.307> 642 20G<200.5 222.5>
VStem: 170 82<-3.64819 94.8537 559.146 657.648> 197 28<54.7904 162.77 196.041 245.095 408.905 457.959 491.23 599.21>
LayerCount: 2
Fore
SplineSet
257 289 m 1x95
 245 260 234 234 227 217 c 1xd5
 227 205 241 189 257 189 c 24xa5
 290 189 319 198 338 217 c 1
 359 217 376 199 376 178 c 0
 376 157 359 136 338 136 c 1xc5
 319 155 290 168 257 168 c 0
 244 168 235 162 225 149 c 1xa5
 225 116 233 48 252 29 c 1
 252 8 233 -8 212 -8 c 0
 189 -8 170 8 170 29 c 1xa6
 189 48 197 116 197 149 c 1
 187 162 180 168 166 168 c 16xa5
 133 168 104 155 85 136 c 1
 64 136 47 157 47 178 c 0
 47 199 64 217 85 217 c 1xc5
 104 198 133 189 166 189 c 24xa5
 182 189 195 205 195 217 c 1
 188 234 176 264 165 289 c 1
 178 306 182 311 195 327 c 1
 182 342 183 341 165 365 c 1
 176 390 188 420 195 437 c 1xd5
 195 449 182 465 166 465 c 24x8d
 133 465 104 456 85 437 c 1
 64 437 47 455 47 476 c 0
 47 497 64 518 85 518 c 1x95
 104 499 133 486 166 486 c 8
 180 486 187 492 197 505 c 1x8d
 197 538 189 606 170 625 c 1
 170 646 189 662 212 662 c 0
 233 662 252 646 252 625 c 1x8e
 233 606 225 538 225 505 c 1
 235 492 244 486 257 486 c 0x8d
 290 486 319 499 338 518 c 1
 359 518 376 497 376 476 c 0
 376 455 359 437 338 437 c 1x95
 319 456 290 465 257 465 c 24x8d
 241 465 227 449 227 437 c 1
 234 420 245 394 257 365 c 1
 240 343 239 342 227 327 c 1
 237 314 241 309 257 289 c 1x95
EndSplineSet
EndChar

StartChar: bullet
Encoding: 8226 8226 425
Width: 375
Flags: W
HStem: 155 216<123.66 251.979>
VStem: 80 215<198.66 327.34>
LayerCount: 2
Fore
SplineSet
80 263 m 0
 80 322 129 371 188 371 c 0
 247 371 295 322 295 263 c 0
 295 204 247 155 188 155 c 0
 129 155 80 204 80 263 c 0
EndSplineSet
EndChar

StartChar: onedotenleader
Encoding: 8228 8228 426
Width: 210
Flags: W
HStem: -14 116<60.4414 148.745>
VStem: 48 114<-1.2356 90.0031>
LayerCount: 2
Fore
SplineSet
48 45 m 0
 48 77 72 102 104 102 c 0
 136 102 162 77 162 45 c 0
 162 13 136 -14 104 -14 c 0
 72 -14 48 13 48 45 c 0
EndSplineSet
EndChar

StartChar: ellipsis
Encoding: 8230 8230 427
Width: 838
Flags: W
HStem: -14 116<61.6616 151.152 374.662 464.152 687.662 777.152>
VStem: 48 116<-0.338379 89.1519> 361 116<-0.338379 89.1519> 674 116<-0.338379 89.1519>
CounterMasks: 1 70
LayerCount: 2
Fore
SplineSet
674 45 m 0
 674 77 701 102 733 102 c 0
 765 102 790 77 790 45 c 0
 790 13 765 -14 733 -14 c 0
 701 -14 674 13 674 45 c 0
361 45 m 0
 361 77 388 102 420 102 c 0
 452 102 477 77 477 45 c 0
 477 13 452 -14 420 -14 c 0
 388 -14 361 13 361 45 c 0
48 45 m 0
 48 77 75 102 107 102 c 0
 139 102 164 77 164 45 c 0
 164 13 139 -14 107 -14 c 0
 75 -14 48 13 48 45 c 0
EndSplineSet
EndChar

StartChar: perthousand
Encoding: 8240 8240 429
Width: 997
Flags: W
HStem: -7 25<455.434 525.588 789.934 858.267> 289 24<442.266 511.529 776.299 845.599> 325 25<166.934 235.267> 621 24<153.299 222.599>
VStem: 44 63<408.045 571.079> 275 66<398.394 570.458> 332 64<76.045 237.871> 563 67<69.2111 238.458> 667 63<76.045 239.079> 898 66<66.3943 238.458>
LayerCount: 2
Fore
SplineSet
813 289 m 0xf9c0
 754 289 730 223 730 164 c 0
 730 95 773 18 823 18 c 0
 881 18 898 86 898 144 c 0
 898 211 866 289 813 289 c 0xf9c0
817 313 m 0
 904 313 964 239 964 152 c 0
 964 72 909 -7 817 -7 c 0
 734 -7 667 64 667 152 c 0
 667 241 728 313 817 313 c 0
190 621 m 0
 131 621 107 555 107 496 c 0
 107 427 150 350 200 350 c 0
 258 350 275 418 275 476 c 0xfdc0
 275 543 243 621 190 621 c 0
194 645 m 0
 281 645 341 571 341 484 c 0
 341 404 286 325 194 325 c 0
 111 325 44 396 44 484 c 0
 44 573 105 645 194 645 c 0
479 289 m 0
 420 289 396 223 396 164 c 0xfbc0
 396 95 439 18 489 18 c 0
 547 18 563 86 563 144 c 0
 563 211 532 289 479 289 c 0
483 313 m 0
 570 313 630 239 630 152 c 0
 630 72 574 -7 482 -7 c 0
 399 -7 332 64 332 152 c 0
 332 241 394 313 483 313 c 0
602 624 m 1
 119 0 l 2
 115 -5 98 -12 86 -12 c 0
 72 -12 69 -3 68 -1 c 1
 550 624 l 2
 555 630 564 636 570 636 c 0
 599 636 593 633 602 624 c 1
EndSplineSet
EndChar

StartChar: minute
Encoding: 8242 8242 430
Width: 160
Flags: W
HStem: 494 205
VStem: 49 87<589.411 680.213> 61 75<589.411 689.429>
LayerCount: 2
Fore
SplineSet
111 699 m 0xa0
 121 699 136 695 136 675 c 0xc0
 136 628 101 559 72 502 c 0
 69 496 65 494 61 494 c 0xa0
 55 494 49 499 49 506 c 0xc0
 49 509 53 612 61 666 c 0
 63 678 92 699 111 699 c 0xa0
EndSplineSet
EndChar

StartChar: second
Encoding: 8243 8243 431
Width: 272
Flags: W
HStem: 494 205
VStem: 49 87<589.411 680.213> 61 75<589.411 689.429> 161 87<589.411 679.4> 174 74<589.411 689.429>
LayerCount: 2
Fore
SplineSet
224 699 m 0x88
 234 699 248 695 248 675 c 0x90
 248 628 214 559 185 502 c 0
 182 496 178 494 174 494 c 0x88
 168 494 161 499 161 506 c 0x90
 161 509 166 612 174 666 c 0
 176 678 205 699 224 699 c 0x88
111 699 m 0
 121 699 136 695 136 675 c 0xc0
 136 628 101 559 72 502 c 0
 69 496 65 494 61 494 c 0xa0
 55 494 49 499 49 506 c 0xc0
 49 509 53 612 61 666 c 0xa0
 63 678 92 699 111 699 c 0
EndSplineSet
EndChar

StartChar: uni2038
Encoding: 8248 8248 432
Width: 425
Flags: W
HStem: -36 146
VStem: 90 235
LayerCount: 2
Fore
SplineSet
314 -36 m 0
 301 -36 242 11 206 47 c 1
 174 10 112 -36 99 -36 c 0
 90 -36 90 -19 90 -19 c 1
 97 -9 158 31 194 100 c 1
 197 108 198 110 203 110 c 0
 222 110 213 95 261 41 c 0
 278 21 323 -15 325 -18 c 1
 325 -22 320 -36 314 -36 c 0
EndSplineSet
EndChar

StartChar: guilsinglleft
Encoding: 8249 8249 433
Width: 309
Flags: W
VStem: 30 237
LayerCount: 2
Fore
SplineSet
244 423 m 1
 267 417 267 408 267 404 c 0
 267 396 263 392 206 338 c 0
 183 316 137 266 118 247 c 1
 205 157 l 1
 258 104 266 102 266 91 c 0
 266 79 249 76 243 73 c 1
 242 75 184 132 37 227 c 1
 32 229 30 235 30 241 c 0
 30 251 31 260 38 268 c 1
 169 347 243 422 244 423 c 1
EndSplineSet
EndChar

StartChar: guilsinglright
Encoding: 8250 8250 434
Width: 308
Flags: W
VStem: 44 236
LayerCount: 2
Fore
SplineSet
67 73 m 1
 44 79 44 87 44 91 c 0
 44 102 54 107 104 157 c 1
 191 247 l 1
 172 266 126 316 103 338 c 0
 44 395 43 396 43 404 c 0
 43 416 60 420 66 423 c 1
 68 421 141 347 271 268 c 1
 278 260 280 251 280 241 c 0
 280 235 277 229 272 227 c 1
 145 145 79 86 67 73 c 1
EndSplineSet
EndChar

StartChar: Euro
Encoding: 8364 8364 438
Width: 708
UnlinkRmOvrlpSave: 1
Flags: W
HStem: -6 36<344.45 523.708> 239 48<39.6143 441.193> 350 48<39.6143 441.193> 605 35<340.135 515.576>
VStem: 91.3096 95.0004<246.341 385.518> 621.31 31<135.891 178.37>
LayerCount: 2
Fore
SplineSet
416.31 640 m 0
 479.31 640 548.31 635 619.31 620 c 1
 619.31 620 641.31 488 641.31 478 c 1
 641.31 468 631.31 464 621.31 464 c 0
 615.31 464 610.31 465 608.31 468 c 1
 602.31 498 580.31 605 420.31 605 c 0
 278.31 605 186.31 463 186.31 329 c 0
 186.31 179 269.31 30 436.31 30 c 0
 575.31 30 609.31 128 621.31 183 c 1
 634.31 183 652.31 176 652.31 176 c 1
 652.31 157 631.31 49 618.31 37 c 1
 565.31 7 500.31 -6 412.31 -6 c 0
 222.31 -6 91.3096 139 91.3096 309 c 0
 91.3096 489 227.31 640 416.31 640 c 0
52.3096 287 m 1
 81.3096 287 430.31 287 444.31 287 c 0
 448.31 287 446.31 277 444.31 271 c 0
 442.31 264 438.31 250 428.31 239 c 1
 399.31 239 50.3096 239 36.3096 239 c 0
 32.3096 239 34.3096 248 36.3096 254 c 0
 38.3096 261 42.3096 276 52.3096 287 c 1
52.3096 398 m 1
 81.3096 398 430.31 398 444.31 398 c 0
 448.31 398 446.31 388 444.31 382 c 0
 442.31 375 438.31 361 428.31 350 c 1
 399.31 350 50.3096 350 36.3096 350 c 0
 32.3096 350 34.3096 359 36.3096 365 c 0
 38.3096 372 42.3096 387 52.3096 398 c 1
EndSplineSet
EndChar

StartChar: arrowleft
Encoding: 8592 8592 439
Width: 765
Flags: W
HStem: 216 63<147 721.904>
LayerCount: 2
Fore
SplineSet
265 404 m 0
 265 393 265 399 200 334 c 1
 147 279 l 1
 723 279 l 1
 723 279 730 279 730 269 c 0
 730 251 723 227 722 223 c 0
 720 217 715 216 715 216 c 1
 146 216 l 1
 203 157 l 1
 262 98 264 103 264 91 c 0
 264 78 246 76 241 73 c 1
 240 75 182 132 35 227 c 1
 30 229 28 235 28 241 c 0
 28 251 29 260 36 268 c 1
 167 347 241 422 242 423 c 1
 256 419 265 413 265 404 c 0
EndSplineSet
EndChar

StartChar: arrowup
Encoding: 8593 8593 440
Width: 400
Flags: W
HStem: 438 20G<34.5 47 347 359.5>
VStem: 166 63<-19.9041 555>
LayerCount: 2
Fore
SplineSet
355 437 m 0
 339 437 352 439 229 555 c 1
 229 -22 l 1
 229 -22 229 -29 219 -29 c 0
 201 -29 177 -21 173 -20 c 0
 167 -18 166 -13 166 -13 c 1
 166 556 l 1
 107 499 l 1
 48 440 53 438 41 438 c 0
 28 438 26 456 23 461 c 1
 25 462 82 520 177 667 c 1
 179 672 185 674 191 674 c 0
 201 674 210 673 218 666 c 1
 297 535 372 461 373 460 c 1
 369 446 364 437 355 437 c 0
EndSplineSet
EndChar

StartChar: arrowright
Encoding: 8594 8594 441
Width: 764
Flags: W
HStem: 217 63<34.5069 614>
LayerCount: 2
Fore
SplineSet
496 91 m 0
 496 105 499 95 614 217 c 1
 37 217 l 1
 37 217 30 216 30 226 c 0
 30 244 37 268 38 272 c 0
 40 278 45 280 45 280 c 1
 615 280 l 1
 557 339 l 2
 501 395 497 392 497 404 c 0
 497 417 515 420 520 423 c 1
 521 421 578 363 725 268 c 1
 730 266 732 261 732 255 c 0
 732 245 731 235 724 227 c 1
 593 148 519 74 518 73 c 1
 504 77 496 82 496 91 c 0
EndSplineSet
EndChar

StartChar: arrowdown
Encoding: 8595 8595 442
Width: 401
Flags: W
VStem: 168 63<90 665.903>
LayerCount: 2
Fore
SplineSet
42 208 m 0
 56 208 46 205 168 90 c 1
 168 667 l 1
 168 667 167 674 177 674 c 0
 195 674 220 667 224 666 c 0
 230 664 231 658 231 658 c 1
 231 89 l 1
 290 146 l 1
 350 206 342 207 356 207 c 0
 369 207 371 189 374 184 c 1
 372 183 314 125 219 -22 c 1
 217 -27 212 -29 206 -29 c 0
 196 -29 186 -27 178 -20 c 1
 99 111 25 184 24 185 c 1
 28 199 33 208 42 208 c 0
EndSplineSet
EndChar

StartChar: universal
Encoding: 8704 8704 443
Width: 727
Flags: W
HStem: 348 50<295.001 464.045> 633 29<25.0511 77.5156 208.376 261.234 485.188 540.56 648.781 701.923>
LayerCount: 2
Fore
SplineSet
491 407 m 2
 539 524 l 2
 548 547 556 565 556 583 c 0
 556 592 553 601 549 610 c 0
 541 626 500 633 488 633 c 0
 483 633 483 657 488 662 c 1
 525 660 546 656 583 656 c 0
 629 656 660 660 700 662 c 1
 701 659 702 650 702 645 c 0
 702 639 701 633 698 633 c 0
 690 633 648 629 634 603 c 0
 614 567 601 540 585 502 c 2
 385 19 l 2
 374 -8 363 -14 350 -14 c 0
 346 -14 342 -12 340 -8 c 2
 135 514 l 2
 120 553 107 582 90 608 c 0
 79 624 41 633 29 633 c 0
 27 633 25 640 25 646 c 0
 25 652 27 660 29 662 c 1
 75 660 101 656 147 656 c 0
 191 656 220 660 260 662 c 1
 262 656 263 633 258 633 c 0
 250 633 208 631 205 612 c 0
 204 607 204 603 204 598 c 0
 204 575 214 557 223 530 c 2
 270 403 l 2
 271 401 272 401 276 401 c 0
 310 399 342 398 375 398 c 0
 412 398 448 399 485 402 c 0
 487 402 491 406 491 407 c 2
464 342 m 2
 465 343 463 346 461 346 c 0
 434 348 409 348 382 348 c 0
 355 348 328 348 297 346 c 0
 296 346 295 345 295 344 c 2
 373 152 l 2
 374 150 375 148 377 148 c 0
 381 148 388 154 389 157 c 2
 464 342 l 2
EndSplineSet
EndChar

StartChar: partialdiff
Encoding: 8706 8706 444
Width: 482
Flags: W
HStem: 0 32<192.489 287.892> 330 37<173.435 292.214> 592 42<115.956 256.5>
VStem: 50 74<99.9418 269.621> 348 77<138.75 450.728>
LayerCount: 2
Fore
SplineSet
348 217 m 0
 348 278 297 330 222 330 c 0
 157 330 124 257 124 199 c 0
 124 122 161 32 247 32 c 0
 304 32 348 103 348 217 c 0
207 0 m 0
 109 0 50 83 50 174 c 0
 50 276 116 367 236 367 c 0
 280 367 331 344 345 339 c 0
 350 337 354 346 353 354 c 1
 353 412 325 530 261 569 c 0
 232 586 204 592 178 592 c 0
 141 592 108 578 76 552 c 1
 74 555 67 560 67 568 c 0
 67 584 113 634 221 634 c 0
 351 634 425 469 425 295 c 0
 425 149 384 0 207 0 c 0
EndSplineSet
EndChar

StartChar: uni2206
Encoding: 8710 8710 445
Width: 682
Flags: W
HStem: 0 61<106.911 535.046>
LayerCount: 2
Fore
SplineSet
535 68 m 2
 328 485 l 1
 324 488 320 489 316 483 c 2
 107 72 l 1
 105 65 110 61 115 61 c 2
 532 61 l 2
 536 61 536 64 535 68 c 2
353 613 m 1
 655 14 l 1
 655 14 649 8 647 0 c 1
 36 0 l 1
 32 6 31 9 27 16 c 1
 336 613 l 1
 353 613 l 1
EndSplineSet
EndChar

StartChar: gradient
Encoding: 8711 8711 446
Width: 683
Flags: W
HStem: 580 62<146.955 575.089>
LayerCount: 2
Fore
SplineSet
147 574 m 2
 355 156 l 1
 359 153 363 153 367 159 c 2
 575 570 l 1
 577 577 573 580 568 580 c 2
 151 580 l 2
 147 580 146 578 147 574 c 2
330 28 m 1
 28 628 l 1
 28 628 34 634 36 642 c 1
 647 642 l 1
 651 636 652 632 656 625 c 1
 347 28 l 1
 330 28 l 1
EndSplineSet
EndChar

StartChar: element
Encoding: 8712 8712 447
Width: 501
Flags: W
HStem: 10 47<180.113 443.616> 191 47<112.004 398> 374 47<176.728 444.016>
VStem: 52 60<173.992 303.322>
LayerCount: 2
Fore
SplineSet
406 216 m 0
 406 189 398 192 397 191 c 1
 117 191 l 2
 116 191 111 190 112 187 c 0
 124 124 175 57 242 57 c 2
 430 57 l 1
 430 57 445 54 445 19 c 0
 445 10 438 10 438 10 c 1
 244 10 l 2
 132 10 52 104 52 216 c 0
 52 325 125 421 234 421 c 2
 438 421 l 1
 438 421 445 421 445 409 c 0
 445 378 430 374 430 374 c 1
 234 374 l 2
 171 374 123 305 112 243 c 0
 112 240 114 238 117 238 c 2
 398 238 l 1
 398 237 406 233 406 216 c 0
EndSplineSet
EndChar

StartChar: notelement
Encoding: 8713 8713 448
Width: 494
Flags: W
HStem: 10 47<203.516 440.616> 191 47<109.003 220 298 395> 374 47<173.728 320 398 441.016>
VStem: 49 60<132.114 303.322>
LayerCount: 2
Fore
SplineSet
403 216 m 0
 403 189 395 192 394 191 c 1
 272 191 l 1
 203 64 l 1
 214 60 226 57 239 57 c 2
 427 57 l 1
 427 57 442 54 442 19 c 0
 442 10 435 10 435 10 c 1
 241 10 l 2
 218 10 197 14 178 21 c 1
 154 -23 l 1
 154 -23 154 -25 150 -25 c 0
 147 -25 130 -21 117 -5 c 0
 113 -1 116 2 116 2 c 1
 137 42 l 1
 83 79 49 143 49 216 c 0
 49 325 122 421 231 421 c 2
 346 421 l 1
 372 467 l 1
 372 467 372 470 376 470 c 0
 388 470 399 461 407 452 c 0
 412 447 410 442 410 442 c 1
 398 421 l 1
 435 421 l 1
 435 421 442 421 442 409 c 0
 442 378 427 374 427 374 c 1
 373 374 l 1
 298 238 l 1
 395 238 l 1
 395 237 403 233 403 216 c 0
164 89 m 1
 220 191 l 1
 114 191 l 2
 113 191 109 190 109 188 c 0
 109 182 123 127 164 89 c 1
246 238 m 1
 320 374 l 1
 231 374 l 2
 168 374 120 305 109 243 c 0
 109 240 111 238 114 238 c 2
 246 238 l 1
EndSplineSet
EndChar

